<?xml version="1.0" encoding="UTF-8" standalone="no"?>
<!-- Generator: Adobe Illustrator 15.1.0, SVG Export Plug-In  -->

<svg
   xmlns:dc="http://purl.org/dc/elements/1.1/"
   xmlns:cc="http://creativecommons.org/ns#"
   xmlns:rdf="http://www.w3.org/1999/02/22-rdf-syntax-ns#"
   xmlns:svg="http://www.w3.org/2000/svg"
   xmlns="http://www.w3.org/2000/svg"
   xmlns:sodipodi="http://sodipodi.sourceforge.net/DTD/sodipodi-0.dtd"
   xmlns:inkscape="http://www.inkscape.org/namespaces/inkscape"
   version="1.1"
   x="0px"
   y="0px"
   width="128"
   height="128"
   viewBox="0 0 128 128"
   enable-background="new 0 0 115 73"
   xml:space="preserve"
   id="svg2"
   inkscape:version="0.91 r13725"
   sodipodi:docname="00.svg"><metadata
     id="metadata26"><rdf:RDF><cc:Work
         rdf:about=""><dc:format>image/svg+xml</dc:format><dc:type
           rdf:resource="http://purl.org/dc/dcmitype/StillImage" /><dc:title></dc:title></cc:Work></rdf:RDF></metadata><sodipodi:namedview
     pagecolor="#ffffff"
     bordercolor="#666666"
     borderopacity="1"
     objecttolerance="10"
     gridtolerance="10"
     guidetolerance="10"
     inkscape:pageopacity="0"
     inkscape:pageshadow="2"
     inkscape:window-width="1366"
     inkscape:window-height="744"
     id="namedview24"
     showgrid="false"
     inkscape:zoom="4.34375"
     inkscape:cx="64"
     inkscape:cy="64"
     inkscape:window-x="0"
     inkscape:window-y="24"
     inkscape:window-maximized="1"
     inkscape:current-layer="svg2" /><defs
     id="defs4" /><rect
     width="115.032"
     height="73.191002"
     id="rect6"
     x="6.4840012"
     y="27.404499"
     style="fill:#e4e4e4;fill-opacity:1" /><polygon
     points="63.33,73.191 100.057,0 83.086,0 46.369,73.191 "
     id="polygon8"
     style="fill:#ffffff"
     transform="translate(6.4840012,27.404499)" /><polygon
     points="77.097,73.191 113.836,0 107.998,0 71.27,73.191 "
     id="polygon10"
     style="fill:#ffffff"
     transform="translate(6.4840012,27.404499)" /><rect
     x="16.370001"
     y="37.290501"
     width="95.260002"
     height="53.419998"
     id="rect12"
     style="fill:#ffffff" /><path
     d="m 73.480001,49.704499 c -0.105,-0.055 -0.213,-0.1 -0.322,-0.145 -0.005,-0.004 -0.008,-0.006 -0.012,-0.006 -0.447,-0.182 -0.927,-0.301 -1.428,-0.348 -0.201,-0.021 -0.404,-0.036 -0.612,-0.036 0,0 -0.009,0.002 -0.016,0.002 -0.335,-3.491 -3.421,-6.225 -7.181,-6.225 -3.764,0 -6.854,2.74 -7.184,6.235 -2.783,0.139 -5.066,2.263 -5.066,4.94 0,2.646 2.231,5.089 4.821,5.089 l 14.39,0 c 0,0 0.042,0 0.072,0 2.912,0 5.396,-2.322 5.396,-5.089 10e-4,-1.95 -1.157,-3.61 -2.858,-4.417 z"
     id="path14"
     inkscape:connector-curvature="0"
     style="fill:#e4e4e4;fill-opacity:1" /><rect
     x="38.544003"
     y="63.147495"
     width="50.912998"
     height="2.056"
     id="rect16"
     style="fill:#e4e4e4;fill-opacity:1" /><rect
     x="36.748001"
     y="69.313492"
     width="54.504002"
     height="1.553"
     id="rect18"
     style="fill:#e4e4e4;fill-opacity:1" /><rect
     x="36.748001"
     y="75.780495"
     width="54.504002"
     height="1.551"
     id="rect20"
     style="fill:#e4e4e4;fill-opacity:1" /><rect
     x="36.748001"
     y="82.244492"
     width="54.504002"
     height="1.553"
     id="rect22"
     style="fill:#e4e4e4;fill-opacity:1" /></svg>