<?xml version="1.0" encoding="UTF-8" standalone="no"?>
<!-- Generator: Adobe Illustrator 15.1.0, SVG Export Plug-In  -->

<svg
   xmlns:dc="http://purl.org/dc/elements/1.1/"
   xmlns:cc="http://creativecommons.org/ns#"
   xmlns:rdf="http://www.w3.org/1999/02/22-rdf-syntax-ns#"
   xmlns:svg="http://www.w3.org/2000/svg"
   xmlns="http://www.w3.org/2000/svg"
   xmlns:sodipodi="http://sodipodi.sourceforge.net/DTD/sodipodi-0.dtd"
   xmlns:inkscape="http://www.inkscape.org/namespaces/inkscape"
   version="1.1"
   x="0px"
   y="0px"
   width="128"
   height="128"
   viewBox="0 0 128 128"
   enable-background="new 0 0 115 73"
   xml:space="preserve"
   id="svg2"
   inkscape:version="0.91 r13725"
   sodipodi:docname="00.svg"><metadata
     id="metadata26"><rdf:RDF><cc:Work
         rdf:about=""><dc:format>image/svg+xml</dc:format><dc:type
           rdf:resource="http://purl.org/dc/dcmitype/StillImage" /><dc:title></dc:title></cc:Work></rdf:RDF></metadata><sodipodi:namedview
     pagecolor="#ffffff"
     bordercolor="#666666"
     borderopacity="1"
     objecttolerance="10"
     gridtolerance="10"
     guidetolerance="10"
     inkscape:pageopacity="0"
     inkscape:pageshadow="2"
     inkscape:window-width="1366"
     inkscape:window-height="744"
     id="namedview24"
     showgrid="false"
     inkscape:zoom="4.34375"
     inkscape:cx="64"
     inkscape:cy="64"
     inkscape:window-x="0"
     inkscape:window-y="24"
     inkscape:window-maximized="1"
     inkscape:current-layer="svg2" /><defs
     id="defs4" /><g
     id="g4154"
     transform="translate(6.4840012,-27.595501)"><rect
       style="fill:#c3c5ca"
       y="55"
       x="0"
       id="rect6"
       height="73.191002"
       width="115.032" /><polygon
       transform="translate(0,55)"
       style="fill:#ffffff"
       id="polygon8"
       points="83.086,0 46.369,73.191 63.33,73.191 100.057,0 " /><polygon
       transform="translate(0,55)"
       style="fill:#ffffff"
       id="polygon10"
       points="107.998,0 71.27,73.191 77.097,73.191 113.836,0 " /><rect
       style="fill:#ffffff"
       id="rect12"
       height="53.419998"
       width="95.260002"
       y="64.886002"
       x="9.8859997" /><path
       style="fill:#ff6f00"
       inkscape:connector-curvature="0"
       id="path14"
       d="m 66.996,77.3 c -0.105,-0.055 -0.213,-0.1 -0.322,-0.145 -0.005,-0.004 -0.008,-0.006 -0.012,-0.006 -0.447,-0.182 -0.927,-0.301 -1.428,-0.348 -0.201,-0.021 -0.404,-0.036 -0.612,-0.036 0,0 -0.009,0.002 -0.016,0.002 -0.335,-3.491 -3.421,-6.225 -7.181,-6.225 -3.764,0 -6.854,2.74 -7.184,6.235 -2.783,0.139 -5.066,2.263 -5.066,4.94 0,2.646 2.231,5.089 4.821,5.089 l 14.39,0 c 0,0 0.042,0 0.072,0 2.912,0 5.396,-2.322 5.396,-5.089 0.001,-1.95 -1.157,-3.61 -2.858,-4.417 z" /><rect
       style="fill:#b0afb5"
       id="rect16"
       height="2.056"
       width="50.912998"
       y="90.742996"
       x="32.060001" /><rect
       style="fill:#c3c5ca"
       id="rect18"
       height="1.553"
       width="54.504002"
       y="96.908997"
       x="30.264" /><rect
       style="fill:#c3c5ca"
       id="rect20"
       height="1.551"
       width="54.504002"
       y="103.376"
       x="30.264" /><rect
       style="fill:#c3c5ca"
       id="rect22"
       height="1.553"
       width="54.504002"
       y="109.84"
       x="30.264" /></g></svg>