<?xml version="1.0" encoding="UTF-8" standalone="no"?>
<!-- Generator: Adobe Illustrator 15.1.0, SVG Export Plug-In  -->

<svg
   xmlns:dc="http://purl.org/dc/elements/1.1/"
   xmlns:cc="http://creativecommons.org/ns#"
   xmlns:rdf="http://www.w3.org/1999/02/22-rdf-syntax-ns#"
   xmlns:svg="http://www.w3.org/2000/svg"
   xmlns="http://www.w3.org/2000/svg"
   xmlns:sodipodi="http://sodipodi.sourceforge.net/DTD/sodipodi-0.dtd"
   xmlns:inkscape="http://www.inkscape.org/namespaces/inkscape"
   version="1.1"
   x="0px"
   y="0px"
   width="128"
   height="128"
   viewBox="0 0 128 128"
   enable-background="new 0 0 106 106"
   xml:space="preserve"
   id="svg2"
   inkscape:version="0.91 r13725"
   sodipodi:docname="24.svg"><metadata
     id="metadata26"><rdf:RDF><cc:Work
         rdf:about=""><dc:format>image/svg+xml</dc:format><dc:type
           rdf:resource="http://purl.org/dc/dcmitype/StillImage" /><dc:title></dc:title></cc:Work></rdf:RDF></metadata><sodipodi:namedview
     pagecolor="#ffffff"
     bordercolor="#666666"
     borderopacity="1"
     objecttolerance="10"
     gridtolerance="10"
     guidetolerance="10"
     inkscape:pageopacity="0"
     inkscape:pageshadow="2"
     inkscape:window-width="1366"
     inkscape:window-height="744"
     id="namedview24"
     showgrid="false"
     inkscape:zoom="4.34375"
     inkscape:cx="64"
     inkscape:cy="64"
     inkscape:window-x="0"
     inkscape:window-y="24"
     inkscape:window-maximized="1"
     inkscape:current-layer="svg2" /><defs
     id="defs4" /><g
     id="g4160"
     transform="translate(10.769001,-11.232578)"><circle
       style="fill:#c2642a"
       id="circle6"
       r="53.230999"
       cy="75.231995"
       cx="53.230999" /><path
       style="fill:#db9671"
       inkscape:connector-curvature="0"
       id="path8"
       d="M 53.346,128.461 95.869,43.359 C 91.351,37.324 85.578,32.287 78.943,28.619 l -47.547,95.156 c 6.664,3.004 14.051,4.689 21.836,4.689 0.038,0.001 0.075,-0.003 0.114,-0.003 z" /><path
       style="fill:#db9671"
       inkscape:connector-curvature="0"
       id="path10"
       d="m 54.824,128.424 c 3.018,-0.09 5.975,-0.42 8.844,-0.988 l 37.578,-75.209 c -1.291,-2.691 -2.813,-5.248 -4.52,-7.666 l -41.902,83.863 z" /><path
       style="fill:#ce8231"
       inkscape:connector-curvature="0"
       id="path12"
       d="m 93.148,75.232 c 0,22.045 -17.873,39.916 -39.916,39.916 -22.049,0 -39.916,-17.871 -39.916,-39.916 0,-22.049 17.867,-39.916 39.916,-39.916 22.043,0 39.916,17.868 39.916,39.916 z" /><path
       style="clip-rule:evenodd;fill:#e5c4b1;fill-rule:evenodd"
       inkscape:connector-curvature="0"
       id="path14"
       d="m 27.98,50.92 c 0,0 -1.373,-4.348 -2.418,-5.391 -1.045,-1.047 -5.393,-2.42 -5.393,-2.42 0,0 4.348,-1.373 5.393,-2.42 1.045,-1.043 2.418,-5.391 2.418,-5.391 0,0 1.373,4.348 2.418,5.391 1.043,1.047 5.393,2.42 5.393,2.42 0,0 -4.35,1.373 -5.393,2.42 -1.044,1.043 -2.418,5.391 -2.418,5.391 z" /><g
       transform="translate(0,22)"
       style="fill:#e5c4b1;fill-opacity:1"
       id="g3354"><rect
         style="clip-rule:evenodd;fill:#e5c4b1;fill-opacity:1;fill-rule:evenodd"
         x="48.856998"
         y="60.041"
         width="8.7480001"
         height="7.164"
         id="rect16" /><rect
         style="clip-rule:evenodd;fill:#e5c4b1;fill-opacity:1;fill-rule:evenodd"
         x="50.686001"
         y="68.801003"
         width="5.0900002"
         height="1.7640001"
         id="rect18" /><path
         inkscape:connector-curvature="0"
         style="fill:#e5c4b1;fill-opacity:1"
         d="m 53.23,35.9 c -6.287,0 -11.391,4.656 -11.391,10.404 0,7.049 5.951,10.375 6.672,12.141 l 9.438,0 C 58.672,56.679 64.623,53.353 64.623,46.304 64.623,40.557 59.521,35.9 53.23,35.9 Z"
         id="path20" /><path
         inkscape:connector-curvature="0"
         style="fill:#e5c4b1;fill-opacity:1"
         d="m 52.014,43.332 c 0,1.746 -1.412,3.162 -3.156,3.162 -1.748,0 -3.16,-1.416 -3.16,-3.162 0,-1.744 1.412,-3.158 3.16,-3.158 1.744,0 3.156,1.414 3.156,3.158 z"
         id="path22" /></g></g></svg>