<?xml version="1.0" encoding="UTF-8" standalone="no"?>
<!-- Generator: Adobe Illustrator 15.1.0, SVG Export Plug-In  -->

<svg
   xmlns:dc="http://purl.org/dc/elements/1.1/"
   xmlns:cc="http://creativecommons.org/ns#"
   xmlns:rdf="http://www.w3.org/1999/02/22-rdf-syntax-ns#"
   xmlns:svg="http://www.w3.org/2000/svg"
   xmlns="http://www.w3.org/2000/svg"
   xmlns:sodipodi="http://sodipodi.sourceforge.net/DTD/sodipodi-0.dtd"
   xmlns:inkscape="http://www.inkscape.org/namespaces/inkscape"
   version="1.1"
   x="0px"
   y="0px"
   width="128"
   height="128"
   viewBox="0 0 128 128"
   enable-background="new 0 0 106 106"
   xml:space="preserve"
   id="svg2"
   inkscape:version="0.91 r13725"
   sodipodi:docname="40.svg"><metadata
     id="metadata26"><rdf:RDF><cc:Work
         rdf:about=""><dc:format>image/svg+xml</dc:format><dc:type
           rdf:resource="http://purl.org/dc/dcmitype/StillImage" /><dc:title></dc:title></cc:Work></rdf:RDF></metadata><sodipodi:namedview
     pagecolor="#ffffff"
     bordercolor="#666666"
     borderopacity="1"
     objecttolerance="10"
     gridtolerance="10"
     guidetolerance="10"
     inkscape:pageopacity="0"
     inkscape:pageshadow="2"
     inkscape:window-width="1366"
     inkscape:window-height="744"
     id="namedview24"
     showgrid="false"
     inkscape:zoom="4.34375"
     inkscape:cx="64"
     inkscape:cy="64"
     inkscape:window-x="0"
     inkscape:window-y="24"
     inkscape:window-maximized="1"
     inkscape:current-layer="svg2" /><defs
     id="defs4" /><g
     id="g4165"
     transform="translate(10.769001,-11.232578)"><g
       id="g4154"><circle
         cx="53.230999"
         cy="75.231995"
         r="53.230999"
         id="circle6"
         style="fill:#8e8e8e" /><path
         d="M 53.346,128.461 95.867,43.359 C 91.349,37.324 85.578,32.287 78.941,28.619 l -47.547,95.156 c 6.666,3.004 14.053,4.689 21.836,4.689 0.04,0.001 0.077,-0.003 0.116,-0.003 z"
         id="path8"
         inkscape:connector-curvature="0"
         style="fill:#bcbcbc" /><path
         d="m 54.824,128.424 c 3.018,-0.09 5.973,-0.42 8.842,-0.988 l 37.58,-75.209 c -1.291,-2.691 -2.814,-5.248 -4.521,-7.666 l -41.901,83.863 z"
         id="path10"
         inkscape:connector-curvature="0"
         style="fill:#bcbcbc" /><path
         d="m 93.146,75.232 c 0,22.045 -17.873,39.916 -39.916,39.916 -22.047,0 -39.916,-17.871 -39.916,-39.916 0,-22.049 17.869,-39.916 39.916,-39.916 22.043,0 39.916,17.868 39.916,39.916 z"
         id="path12"
         inkscape:connector-curvature="0"
         style="fill:#a0a0a0" /><path
         d="m 90.508,70.754 c 0,0 -1.15,-3.643 -2.027,-4.518 -0.875,-0.875 -4.518,-2.027 -4.518,-2.027 0,0 3.643,-1.148 4.518,-2.025 0.877,-0.875 2.027,-4.518 2.027,-4.518 0,0 1.15,3.643 2.027,4.518 0.873,0.877 4.518,2.025 4.518,2.025 0,0 -3.645,1.152 -4.518,2.027 -0.877,0.875 -2.027,4.518 -2.027,4.518 z"
         id="path14"
         inkscape:connector-curvature="0"
         style="clip-rule:evenodd;fill:#ffffff;fill-rule:evenodd" /><rect
         x="48.855"
         y="82.041"
         width="8.7480001"
         height="7.164"
         id="rect16"
         style="clip-rule:evenodd;fill:#bcbcbc;fill-rule:evenodd" /><rect
         x="50.686001"
         y="90.801003"
         width="5.0879998"
         height="1.7640001"
         id="rect18"
         style="clip-rule:evenodd;fill:#bcbcbc;fill-rule:evenodd" /><path
         d="m 53.229,57.9 c -6.287,0 -11.387,4.656 -11.387,10.404 0,7.049 5.947,10.375 6.67,12.141 l 9.436,0 C 58.673,78.679 64.622,75.353 64.622,68.304 64.621,62.557 59.521,57.9 53.229,57.9 Z"
         id="path20"
         inkscape:connector-curvature="0"
         style="fill:#bcbcbc" /><circle
         cx="48.855"
         cy="65.332001"
         r="3.1600001"
         id="circle22"
         style="fill:#ffffff" /></g></g></svg>