<?xml version="1.0" encoding="UTF-8" standalone="no"?>
<!-- Generator: Adobe Illustrator 15.1.0, SVG Export Plug-In  -->

<svg
   xmlns:dc="http://purl.org/dc/elements/1.1/"
   xmlns:cc="http://creativecommons.org/ns#"
   xmlns:rdf="http://www.w3.org/1999/02/22-rdf-syntax-ns#"
   xmlns:svg="http://www.w3.org/2000/svg"
   xmlns="http://www.w3.org/2000/svg"
   xmlns:sodipodi="http://sodipodi.sourceforge.net/DTD/sodipodi-0.dtd"
   xmlns:inkscape="http://www.inkscape.org/namespaces/inkscape"
   version="1.1"
   x="0px"
   y="0px"
   width="128"
   height="128"
   viewBox="0 0 128 128"
   enable-background="new 0 0 106 106"
   xml:space="preserve"
   id="svg2"
   inkscape:version="0.91 r13725"
   sodipodi:docname="50.svg"><metadata
     id="metadata34"><rdf:RDF><cc:Work
         rdf:about=""><dc:format>image/svg+xml</dc:format><dc:type
           rdf:resource="http://purl.org/dc/dcmitype/StillImage" /><dc:title></dc:title></cc:Work></rdf:RDF></metadata><sodipodi:namedview
     pagecolor="#ffffff"
     bordercolor="#666666"
     borderopacity="1"
     objecttolerance="10"
     gridtolerance="10"
     guidetolerance="10"
     inkscape:pageopacity="0"
     inkscape:pageshadow="2"
     inkscape:window-width="1366"
     inkscape:window-height="744"
     id="namedview32"
     showgrid="false"
     showguides="false"
     inkscape:zoom="4.34375"
     inkscape:cx="64"
     inkscape:cy="64"
     inkscape:window-x="0"
     inkscape:window-y="24"
     inkscape:window-maximized="1"
     inkscape:current-layer="svg2" /><defs
     id="defs4" /><g
     id="g3389"
     transform="translate(10.769001,-11.232578)"><circle
       style="fill:#8e8e8e"
       id="circle6"
       r="53.230999"
       cy="75.231995"
       cx="53.230999" /><path
       style="fill:#bcbcbc"
       inkscape:connector-curvature="0"
       id="path8"
       d="M 53.347,128.461 95.869,43.359 C 91.351,37.324 85.578,32.287 78.943,28.619 l -47.547,95.156 c 6.664,3.004 14.051,4.689 21.834,4.689 0.04,0.001 0.077,-0.003 0.117,-0.003 z" /><path
       style="fill:#bcbcbc"
       inkscape:connector-curvature="0"
       id="path10"
       d="m 54.824,128.424 c 3.018,-0.09 5.973,-0.42 8.844,-0.988 l 37.578,-75.209 c -1.291,-2.691 -2.813,-5.248 -4.52,-7.666 l -41.902,83.863 z" /><path
       style="fill:#a0a0a0"
       inkscape:connector-curvature="0"
       id="path12"
       d="m 93.148,75.232 c 0,22.045 -17.873,39.916 -39.918,39.916 -22.047,0 -39.916,-17.871 -39.916,-39.916 0,-22.049 17.869,-39.916 39.916,-39.916 22.045,0 39.918,17.868 39.918,39.916 z" /><path
       style="clip-rule:evenodd;fill:#ffffff;fill-rule:evenodd"
       inkscape:connector-curvature="0"
       id="path14"
       d="m 13.314,84.533 c 0,0 -1.634,-5.176 -2.879,-6.422 -1.246,-1.242 -6.421,-2.879 -6.421,-2.879 0,0 5.175,-1.637 6.421,-2.881 1.245,-1.244 2.879,-6.422 2.879,-6.422 0,0 1.637,5.178 2.881,6.422 1.244,1.244 6.422,2.881 6.422,2.881 0,0 -5.178,1.637 -6.422,2.879 -1.244,1.246 -2.881,6.422 -2.881,6.422 z" /><g
       transform="translate(0,22)"
       id="g3362"><rect
         style="clip-rule:evenodd;fill:#bcbcbc;fill-rule:evenodd"
         x="33.338001"
         y="60.041"
         width="8.75"
         height="7.164"
         id="rect16" /><rect
         style="clip-rule:evenodd;fill:#bcbcbc;fill-rule:evenodd"
         x="35.166"
         y="68.801003"
         width="5.092"
         height="1.7640001"
         id="rect18" /><path
         style="fill:#bcbcbc"
         inkscape:connector-curvature="0"
         d="m 37.713,35.9 c -6.289,0 -11.391,4.656 -11.391,10.404 0,7.049 5.949,10.375 6.672,12.141 l 9.437,0 c 0.724,-1.766 6.673,-5.092 6.673,-12.141 0,-5.747 -5.102,-10.404 -11.391,-10.404 z"
         id="path20" /><circle
         style="fill:#ffffff"
         cx="33.337002"
         cy="43.332001"
         r="3.1589999"
         id="circle22" /><rect
         style="clip-rule:evenodd;fill:#bcbcbc;fill-rule:evenodd"
         x="64.375"
         y="60.041"
         width="8.75"
         height="7.164"
         id="rect24" /><rect
         style="clip-rule:evenodd;fill:#bcbcbc;fill-rule:evenodd"
         x="66.203003"
         y="68.801003"
         width="5.0900002"
         height="1.7640001"
         id="rect26" /><path
         style="fill:#bcbcbc"
         inkscape:connector-curvature="0"
         d="m 68.748,35.9 c -6.287,0 -11.389,4.656 -11.389,10.404 0,7.049 5.949,10.375 6.67,12.141 l 9.436,0 c 0.727,-1.766 6.676,-5.092 6.676,-12.141 0,-5.747 -5.102,-10.404 -11.393,-10.404 z"
         id="path28" /><circle
         style="fill:#ffffff"
         cx="64.374001"
         cy="43.332001"
         r="3.1589999"
         id="circle30" /></g></g></svg>