<?xml version="1.0" encoding="UTF-8" standalone="no"?>
<!-- Generator: Adobe Illustrator 15.1.0, SVG Export Plug-In  -->

<svg
   xmlns:dc="http://purl.org/dc/elements/1.1/"
   xmlns:cc="http://creativecommons.org/ns#"
   xmlns:rdf="http://www.w3.org/1999/02/22-rdf-syntax-ns#"
   xmlns:svg="http://www.w3.org/2000/svg"
   xmlns="http://www.w3.org/2000/svg"
   xmlns:sodipodi="http://sodipodi.sourceforge.net/DTD/sodipodi-0.dtd"
   xmlns:inkscape="http://www.inkscape.org/namespaces/inkscape"
   version="1.1"
   x="0px"
   y="0px"
   width="128"
   height="128"
   viewBox="0 0 128 128"
   enable-background="new 0 0 106 106"
   xml:space="preserve"
   id="svg2"
   inkscape:version="0.91 r13725"
   sodipodi:docname="60.svg"><metadata
     id="metadata26"><rdf:RDF><cc:Work
         rdf:about=""><dc:format>image/svg+xml</dc:format><dc:type
           rdf:resource="http://purl.org/dc/dcmitype/StillImage" /><dc:title></dc:title></cc:Work></rdf:RDF></metadata><sodipodi:namedview
     pagecolor="#ffffff"
     bordercolor="#666666"
     borderopacity="1"
     objecttolerance="10"
     gridtolerance="10"
     guidetolerance="10"
     inkscape:pageopacity="0"
     inkscape:pageshadow="2"
     inkscape:window-width="1366"
     inkscape:window-height="744"
     id="namedview24"
     showgrid="false"
     inkscape:zoom="5.009434"
     inkscape:cx="53"
     inkscape:cy="53"
     inkscape:window-x="0"
     inkscape:window-y="24"
     inkscape:window-maximized="1"
     inkscape:current-layer="svg2" /><defs
     id="defs4" /><g
     id="g4154"
     transform="translate(10.769001,-11.232578)"><circle
       style="fill:#e59d23"
       id="circle6"
       r="53.230999"
       cy="75.231995"
       cx="53.230999" /><path
       style="fill:#e2b26d"
       inkscape:connector-curvature="0"
       id="path8"
       d="M 53.346,128.461 95.867,43.359 C 91.351,37.324 85.578,32.287 78.941,28.619 l -47.547,95.156 c 6.666,3.004 14.053,4.689 21.836,4.689 0.04,0.001 0.077,-0.003 0.116,-0.003 z" /><path
       style="fill:#e2b26d"
       inkscape:connector-curvature="0"
       id="path10"
       d="m 54.824,128.424 c 3.018,-0.09 5.973,-0.42 8.842,-0.988 l 37.58,-75.209 c -1.291,-2.691 -2.814,-5.248 -4.52,-7.666 l -41.902,83.863 z" /><path
       style="fill:#ffd800"
       inkscape:connector-curvature="0"
       id="path12"
       d="m 93.146,75.232 c 0,22.045 -17.873,39.916 -39.916,39.916 -22.047,0 -39.916,-17.871 -39.916,-39.916 0,-22.049 17.869,-39.916 39.916,-39.916 22.043,0 39.916,17.868 39.916,39.916 z" /><path
       style="clip-rule:evenodd;fill:#f2cfa0;fill-rule:evenodd"
       inkscape:connector-curvature="0"
       id="path14"
       d="m 28.686,113.35 c 0,0 -1.527,-4.834 -2.688,-5.996 -1.164,-1.16 -5.996,-2.688 -5.996,-2.688 0,0 4.832,-1.527 5.996,-2.689 1.16,-1.162 2.688,-5.994 2.688,-5.994 0,0 1.527,4.832 2.689,5.994 1.16,1.162 5.994,2.689 5.994,2.689 0,0 -4.834,1.527 -5.994,2.688 -1.162,1.162 -2.689,5.996 -2.689,5.996 z" /><rect
       style="clip-rule:evenodd;fill:#e59d23;fill-rule:evenodd"
       id="rect16"
       height="7.164"
       width="8.75"
       y="82.041"
       x="48.855" /><rect
       style="clip-rule:evenodd;fill:#e59d23;fill-rule:evenodd"
       id="rect18"
       height="1.7640001"
       width="5.0879998"
       y="90.801003"
       x="50.686001" /><path
       style="fill:#e59d23"
       inkscape:connector-curvature="0"
       id="path20"
       d="m 53.23,57.9 c -6.287,0 -11.389,4.656 -11.389,10.404 0,7.049 5.947,10.375 6.672,12.141 l 9.434,0 c 0.727,-1.766 6.674,-5.092 6.674,-12.141 0,-5.747 -5.1,-10.404 -11.391,-10.404 z" /><circle
       style="fill:#ffffff"
       id="circle22"
       r="3.1589999"
       cy="65.332001"
       cx="48.855999" /></g></svg>