<?xml version="1.0" encoding="UTF-8" standalone="no"?>
<!-- Generator: Adobe Illustrator 15.1.0, SVG Export Plug-In  -->

<svg
   xmlns:dc="http://purl.org/dc/elements/1.1/"
   xmlns:cc="http://creativecommons.org/ns#"
   xmlns:rdf="http://www.w3.org/1999/02/22-rdf-syntax-ns#"
   xmlns:svg="http://www.w3.org/2000/svg"
   xmlns="http://www.w3.org/2000/svg"
   xmlns:sodipodi="http://sodipodi.sourceforge.net/DTD/sodipodi-0.dtd"
   xmlns:inkscape="http://www.inkscape.org/namespaces/inkscape"
   version="1.1"
   x="0px"
   y="0px"
   width="128"
   height="128"
   viewBox="0 0 128 128"
   enable-background="new 0 0 106 106"
   xml:space="preserve"
   id="svg2"
   inkscape:version="0.91 r13725"
   sodipodi:docname="79.svg"><metadata
     id="metadata34"><rdf:RDF><cc:Work
         rdf:about=""><dc:format>image/svg+xml</dc:format><dc:type
           rdf:resource="http://purl.org/dc/dcmitype/StillImage" /><dc:title></dc:title></cc:Work></rdf:RDF></metadata><sodipodi:namedview
     pagecolor="#ffffff"
     bordercolor="#666666"
     borderopacity="1"
     objecttolerance="10"
     gridtolerance="10"
     guidetolerance="10"
     inkscape:pageopacity="0"
     inkscape:pageshadow="2"
     inkscape:window-width="1366"
     inkscape:window-height="744"
     id="namedview32"
     showgrid="false"
     inkscape:zoom="4.34375"
     inkscape:cx="64"
     inkscape:cy="64"
     inkscape:window-x="0"
     inkscape:window-y="24"
     inkscape:window-maximized="1"
     inkscape:current-layer="svg2" /><defs
     id="defs4" /><g
     id="g4162"
     transform="translate(10.769001,10.76742)"><circle
       id="circle6"
       r="53.230999"
       cy="53.231998"
       cx="53.230999"
       style="fill:#e59d23" /><path
       id="path8"
       d="M 53.346,106.461 95.869,21.359 C 91.351,15.324 85.578,10.287 78.943,6.619 l -47.547,95.156 c 6.664,3.004 14.051,4.689 21.836,4.689 0.038,0.001 0.075,-0.003 0.114,-0.003 z"
       inkscape:connector-curvature="0"
       style="fill:#e2b26d" /><path
       id="path10"
       d="m 54.824,106.424 c 3.018,-0.09 5.973,-0.42 8.844,-0.988 l 37.578,-75.209 c -1.291,-2.691 -2.813,-5.248 -4.52,-7.666 l -41.902,83.863 z"
       inkscape:connector-curvature="0"
       style="fill:#e2b26d" /><path
       id="path12"
       d="m 93.148,53.232 c 0,22.045 -17.873,39.916 -39.916,39.916 -22.049,0 -39.918,-17.871 -39.918,-39.916 0,-22.049 17.869,-39.916 39.918,-39.916 22.043,0 39.916,17.868 39.916,39.916 z"
       inkscape:connector-curvature="0"
       style="fill:#ffd800" /><path
       id="path14"
       d="m 41.969,22.568 c 0,0 -1.219,-3.863 -2.148,-4.791 -0.928,-0.928 -4.791,-2.148 -4.791,-2.148 0,0 3.863,-1.219 4.791,-2.15 0.93,-0.928 2.148,-4.789 2.148,-4.789 0,0 1.221,3.861 2.148,4.789 0.928,0.932 4.791,2.15 4.791,2.15 0,0 -3.863,1.221 -4.791,2.148 -0.928,0.927 -2.148,4.791 -2.148,4.791 z"
       inkscape:connector-curvature="0"
       style="clip-rule:evenodd;fill:#f2cfa0;fill-rule:evenodd" /><rect
       id="rect16"
       height="7.164"
       width="8.75"
       y="60.041"
       x="33.338001"
       style="clip-rule:evenodd;fill:#e59d23;fill-rule:evenodd" /><rect
       id="rect18"
       height="1.7640001"
       width="5.092"
       y="68.801003"
       x="35.166"
       style="clip-rule:evenodd;fill:#e59d23;fill-rule:evenodd" /><path
       id="path20"
       d="m 37.713,35.9 c -6.289,0 -11.391,4.656 -11.391,10.404 0,7.049 5.951,10.375 6.674,12.141 l 9.434,0 c 0.725,-1.766 6.674,-5.092 6.674,-12.141 0,-5.747 -5.102,-10.404 -11.391,-10.404 z"
       inkscape:connector-curvature="0"
       style="fill:#e59d23" /><circle
       id="circle22"
       r="3.1589999"
       cy="43.332001"
       cx="33.339001"
       style="fill:#ffffff" /><rect
       id="rect24"
       height="7.164"
       width="8.75"
       y="60.041"
       x="64.375"
       style="clip-rule:evenodd;fill:#e59d23;fill-rule:evenodd" /><rect
       id="rect26"
       height="1.7640001"
       width="5.0900002"
       y="68.801003"
       x="66.203003"
       style="clip-rule:evenodd;fill:#e59d23;fill-rule:evenodd" /><path
       id="path28"
       d="m 68.748,35.9 c -6.287,0 -11.389,4.656 -11.389,10.404 0,7.049 5.949,10.375 6.674,12.141 l 9.434,0 c 0.725,-1.766 6.674,-5.092 6.674,-12.141 0,-5.747 -5.102,-10.404 -11.393,-10.404 z"
       inkscape:connector-curvature="0"
       style="fill:#e59d23" /><circle
       id="circle30"
       r="3.1600001"
       cy="43.332001"
       cx="64.375"
       style="fill:#ffffff" /></g></svg>