<?xml version="1.0" encoding="UTF-8" standalone="no"?>
<!-- Generator: Adobe Illustrator 15.1.0, SVG Export Plug-In  -->

<svg
   xmlns:dc="http://purl.org/dc/elements/1.1/"
   xmlns:cc="http://creativecommons.org/ns#"
   xmlns:rdf="http://www.w3.org/1999/02/22-rdf-syntax-ns#"
   xmlns:svg="http://www.w3.org/2000/svg"
   xmlns="http://www.w3.org/2000/svg"
   xmlns:sodipodi="http://sodipodi.sourceforge.net/DTD/sodipodi-0.dtd"
   xmlns:inkscape="http://www.inkscape.org/namespaces/inkscape"
   version="1.1"
   x="0px"
   y="0px"
   width="128"
   height="128"
   viewBox="0 0 128 128"
   enable-background="new 0 0 106 106"
   xml:space="preserve"
   id="svg2"
   inkscape:version="0.91 r13725"
   sodipodi:docname="80.svg"><metadata
     id="metadata36"><rdf:RDF><cc:Work
         rdf:about=""><dc:format>image/svg+xml</dc:format><dc:type
           rdf:resource="http://purl.org/dc/dcmitype/StillImage" /><dc:title></dc:title></cc:Work></rdf:RDF></metadata><sodipodi:namedview
     pagecolor="#ffffff"
     bordercolor="#666666"
     borderopacity="1"
     objecttolerance="10"
     gridtolerance="10"
     guidetolerance="10"
     inkscape:pageopacity="0"
     inkscape:pageshadow="2"
     inkscape:window-width="1366"
     inkscape:window-height="744"
     id="namedview34"
     showgrid="false"
     inkscape:zoom="4.34375"
     inkscape:cx="64"
     inkscape:cy="64"
     inkscape:window-x="0"
     inkscape:window-y="24"
     inkscape:window-maximized="1"
     inkscape:current-layer="svg2" /><defs
     id="defs4" /><g
     id="g4164"
     transform="translate(10.768002,-11.232078)"><circle
       style="fill:#3c466c"
       id="circle6"
       r="53.231998"
       cy="75.231995"
       cx="53.231998" /><path
       style="fill:#5f71aa"
       inkscape:connector-curvature="0"
       id="path8"
       d="M 53.348,128.461 95.869,43.359 C 91.351,37.324 85.578,32.287 78.943,28.619 l -47.547,95.156 c 6.664,3.004 14.053,4.689 21.836,4.689 0.039,0.001 0.077,-0.003 0.116,-0.003 z" /><path
       style="fill:#5f71aa"
       inkscape:connector-curvature="0"
       id="path10"
       d="m 54.826,128.424 c 3.018,-0.09 5.973,-0.42 8.842,-0.988 l 37.578,-75.209 c -1.289,-2.691 -2.813,-5.248 -4.52,-7.666 l -41.9,83.863 z" /><path
       style="fill:#505f90"
       inkscape:connector-curvature="0"
       id="path12"
       d="m 93.148,75.232 c 0,22.045 -17.873,39.916 -39.916,39.916 -22.047,0 -39.916,-17.871 -39.916,-39.916 0,-22.049 17.869,-39.916 39.916,-39.916 22.043,0 39.916,17.868 39.916,39.916 z" /><path
       style="clip-rule:evenodd;fill:#5f71aa;fill-rule:evenodd"
       inkscape:connector-curvature="0"
       id="path14"
       d="m 14.576,86.152 c 0,0 -1.52,-4.811 -2.676,-5.967 -1.158,-1.156 -5.967,-2.678 -5.967,-2.678 0,0 4.809,-1.52 5.967,-2.676 1.156,-1.156 2.676,-5.967 2.676,-5.967 0,0 1.52,4.811 2.678,5.967 1.154,1.156 5.967,2.676 5.967,2.676 0,0 -4.813,1.521 -5.967,2.678 -1.158,1.157 -2.678,5.967 -2.678,5.967 z" /><polygon
       transform="translate(0,22)"
       style="fill:#00a1d7"
       id="polygon16"
       points="66.999,44.353 52.839,44.353 52.839,70.08 " /><polyline
       transform="translate(0,22)"
       style="fill:#00a1d7"
       id="polyline18"
       points="66.839,44.353 80.676,44.353 75.708,35.82 75.708,35.82 " /><polygon
       transform="translate(0,22)"
       style="fill:#6fc7ef"
       id="polygon20"
       points="30.646,36.059 25.567,44.386 53.115,69.866 53.115,36.059 " /><polygon
       transform="translate(0,22)"
       style="fill:#6dc3eb"
       id="polygon22"
       points="39.34,44.386 53.115,69.866 25.567,44.386 " /><polygon
       transform="translate(0,22)"
       style="fill:#6ec6ee"
       id="polygon24"
       points="39.34,44.386 30.646,36.059 53.115,36.059 " /><polygon
       transform="translate(0,22)"
       style="fill:#9ad8f4"
       id="polygon26"
       points="39.34,44.386 53.115,44.386 53.115,36.059 " /><polygon
       transform="translate(0,22)"
       style="fill:#019ed3"
       id="polygon28"
       points="66.891,44.386 53.115,69.866 80.666,44.386 " /><polygon
       transform="translate(0,22)"
       style="fill:#26afdd"
       id="polygon30"
       points="66.891,44.386 75.584,36.059 53.115,36.059 " /><polygon
       transform="translate(0,22)"
       style="fill:#80d0eb"
       id="polygon32"
       points="66.891,44.386 53.115,44.386 53.115,36.059 " /></g></svg>