<?xml version="1.0" encoding="UTF-8" standalone="no"?>
<!-- Created with Inkscape (http://www.inkscape.org/) -->

<svg
   xmlns:dc="http://purl.org/dc/elements/1.1/"
   xmlns:cc="http://creativecommons.org/ns#"
   xmlns:rdf="http://www.w3.org/1999/02/22-rdf-syntax-ns#"
   xmlns:svg="http://www.w3.org/2000/svg"
   xmlns="http://www.w3.org/2000/svg"
   xmlns:sodipodi="http://sodipodi.sourceforge.net/DTD/sodipodi-0.dtd"
   xmlns:inkscape="http://www.inkscape.org/namespaces/inkscape"
   width="128"
   height="118"
   viewBox="0 0 128 118"
   id="svg190976"
   version="1.1"
   inkscape:version="0.91 r13725"
   sodipodi:docname="Idealize - Brand.svg">
  <defs
     id="defs190978">
    <clipPath
       id="SVGID_23_">
      <path
         inkscape:connector-curvature="0"
         id="use46396"
         d="m 110.907,64.41 c -0.015,0 -0.03,0.002 -0.046,0.002 C 109.764,52.995 99.669,44.05 87.373,44.05 75.061,44.05 64.956,53.016 63.878,64.455 54.777,64.902 47.304,72.22 47.304,80.981 47.304,89.636 54.6,97 63.072,98 l 0,0 47.07,0 c 0,0 0.135,0 0.234,0 9.521,0 17.651,-7.967 17.651,-17.019 0,-9.052 -7.599,-16.571 -17.12,-16.571 z" />
    </clipPath>
    <clipPath
       id="SVGID_25_">
      <rect
         id="use46406"
         x="38.411999"
         y="42.772999"
         width="91.538002"
         height="55.143002" />
    </clipPath>
  </defs>
  <sodipodi:namedview
     id="base"
     pagecolor="#ffffff"
     bordercolor="#666666"
     borderopacity="1.0"
     inkscape:pageopacity="0.0"
     inkscape:pageshadow="2"
     inkscape:zoom="4.7118644"
     inkscape:cx="64"
     inkscape:cy="59"
     inkscape:document-units="px"
     inkscape:current-layer="layer1"
     showgrid="false"
     units="px"
     inkscape:window-width="1366"
     inkscape:window-height="744"
     inkscape:window-x="1024"
     inkscape:window-y="24"
     inkscape:window-maximized="1" />
  <metadata
     id="metadata190981">
    <rdf:RDF>
      <cc:Work
         rdf:about="">
        <dc:format>image/svg+xml</dc:format>
        <dc:type
           rdf:resource="http://purl.org/dc/dcmitype/StillImage" />
        <dc:title></dc:title>
      </cc:Work>
    </rdf:RDF>
  </metadata>
  <g
     inkscape:label="Layer 1"
     inkscape:groupmode="layer"
     id="layer1"
     transform="translate(0,-934.36214)">
    <g
       id="g259327"
       transform="matrix(1.449814,0,0,1.449814,6.1291881,-474.37469)">
      <path
         style="clip-rule:evenodd;fill:#ffa000;fill-opacity:1;fill-rule:evenodd"
         inkscape:connector-curvature="0"
         d="m 63.11605,996.50357 c -0.015,0 -0.03,0.002 -0.045,0.002 -1.099,-11.417 -11.193,-20.362 -23.489,-20.362 -12.311,0 -22.416,8.966 -23.494,20.404 -9.102,0.447 -16.574,7.39103 -16.574,16.15203 0,8.655 7.295,16.643 15.767,16.643 l 0,0 47.071,0 c 0,0 0.136,0 0.233,0 9.521,0 17.652,-7.591 17.652,-16.643 0,-9.052 -7.598,-16.19603 -17.121,-16.19603 z"
         id="path46336" />
      <g
         transform="translate(-47.541,932.34257)"
         id="g46338">
        <path
           style="fill:#ffffff"
           inkscape:connector-curvature="0"
           d="m 64.129,78.461 0.949,0 0,1.409 -0.949,0 0,-1.409 z m 0,2.562 0.949,0 0,6.665 -0.949,0 0,-6.665 z"
           id="path46340" />
        <path
           style="fill:#ffffff"
           inkscape:connector-curvature="0"
           d="m 73.292,86.355 -0.024,0 c -0.256,0.564 -1.104,1.538 -2.717,1.538 -2.73,0 -3.627,-1.909 -3.627,-3.537 0,-1.858 1.139,-3.537 3.627,-3.537 1.268,0 2.281,0.692 2.717,1.537 l 0.024,0 0,-3.896 0.948,0 0,9.228 -0.948,0 0,-1.333 z m -2.741,-4.742 c -1.5,0 -2.68,1.051 -2.68,2.743 0,1.333 0.744,2.743 2.68,2.743 1.575,0 2.793,-1 2.793,-2.743 0,-1.371 -0.858,-2.743 -2.793,-2.743 z"
           id="path46342" />
        <path
           style="fill:#ffffff"
           inkscape:connector-curvature="0"
           d="m 83.329,85.562 c -0.385,1.178 -1.385,2.332 -3.589,2.332 -2.73,0 -3.627,-1.909 -3.627,-3.537 0,-1.858 1.141,-3.537 3.627,-3.537 1.717,0 3.756,0.743 3.756,3.769 l -6.434,0 c 0,1.384 0.984,2.512 2.678,2.512 1.59,0 2.307,-0.526 2.641,-1.538 l 0.948,0 z m -0.782,-1.693 c -0.27,-1.641 -1.475,-2.256 -2.743,-2.256 -1.218,0 -2.523,0.628 -2.741,2.256 l 5.484,0 z"
           id="path46344" />
        <path
           style="fill:#ffffff"
           inkscape:connector-curvature="0"
           d="m 85.237,83.074 c 0.142,-1.396 0.897,-2.255 3.18,-2.255 2.229,0 3.05,0.692 3.05,1.974 l 0,3.486 c 0,0.551 0.154,0.743 0.525,0.743 0.168,0 0.332,-0.013 0.5,-0.026 l 0,0.641 c -0.191,0.039 -0.486,0.103 -0.793,0.103 -0.963,0 -1.016,-0.653 -1.026,-1.178 l -0.026,0 c -0.295,0.435 -0.934,1.332 -3.114,1.332 -1.141,0 -2.589,-0.5 -2.589,-1.999 0,-1.808 1.859,-2.012 3.319,-2.089 2.075,-0.115 2.332,-0.23 2.332,-0.885 0,-0.961 -0.64,-1.308 -2.204,-1.308 -1.5,0 -2.217,0.397 -2.281,1.461 l -0.873,0 z m 5.358,1.026 c -0.422,0.27 -1.063,0.321 -2.959,0.5 -1.103,0.104 -1.744,0.436 -1.744,1.23 0,1.038 0.897,1.346 1.923,1.346 1.281,0 2.78,-0.691 2.78,-2.063 l 0,-1.013 z"
           id="path46346" />
        <path
           style="fill:#ffffff"
           inkscape:connector-curvature="0"
           d="m 93.735,78.461 0.948,0 0,9.228 -0.948,0 0,-9.228 z"
           id="path46348" />
        <path
           style="fill:#ffffff"
           inkscape:connector-curvature="0"
           d="m 96.734,78.461 0.948,0 0,1.409 -0.948,0 0,-1.409 z m 0,2.562 0.948,0 0,6.665 -0.948,0 0,-6.665 z"
           id="path46350" />
        <path
           style="fill:#ffffff"
           inkscape:connector-curvature="0"
           d="m 99.286,86.894 5.062,-5.075 -4.768,0 0,-0.795 6.125,0 0,0.795 -5.164,5.075 5.357,0 0,0.795 -6.612,0 0,-0.795 z"
           id="path46352" />
        <path
           style="fill:#ffffff"
           inkscape:connector-curvature="0"
           d="m 114.512,85.562 c -0.385,1.178 -1.385,2.332 -3.59,2.332 -2.729,0 -3.627,-1.909 -3.627,-3.537 0,-1.858 1.142,-3.537 3.627,-3.537 1.718,0 3.755,0.743 3.755,3.769 l -6.434,0 c 0,1.384 0.987,2.512 2.679,2.512 1.59,0 2.309,-0.526 2.642,-1.538 l 0.948,0 z m -0.783,-1.693 c -0.27,-1.641 -1.473,-2.256 -2.742,-2.256 -1.217,0 -2.525,0.628 -2.743,2.256 l 5.485,0 z"
           id="path46354" />
      </g>
      <path
         style="clip-rule:evenodd;fill:#795548;fill-opacity:1;fill-rule:evenodd"
         inkscape:connector-curvature="0"
         d="m -0.388,1048.4966 1.336,-0.01 -0.026,-4.783 4.877,-0.024 c 2.501,-0.013 4.145,-1.209 4.135,-3.228 -0.012,-2.023 -1.666,-3.201 -4.168,-3.188 l -6.211,0.033 0.057,11.196 0,0 z m 65.101,-0.335 3.428,-0.019 -0.045,-8.49 0.036,0 2.993,8.476 2.78,-0.015 2.903,-8.506 0.037,0 0.043,8.491 3.43,-0.018 -0.058,-11.197 -5.375,0.028 -2.372,7.48 -0.035,0 -2.451,-7.455 -5.375,0.027 0.061,11.198 0,0 z m -7.846,-8.043 0.037,0 1.557,3.904 -3.17,0.016 1.576,-3.92 0,0 z m -7.023,8.119 3.744,-0.018 0.881,-2.006 4.874,-0.027 0.865,1.999 3.817,-0.021 -5.305,-11.168 -3.707,0.021 -5.169,11.22 0,0 z m -48.947,-10.035 4.577,-0.023 c 1.853,-0.012 3.118,0.745 3.124,2.281 0.009,1.539 -1.248,2.288 -3.102,2.298 l -4.579,0.021 -0.02,-4.577 0,0 z m 10.671,10.233 1.334,-0.01 -0.025,-4.966 5.063,-0.028 c 2.52,-0.013 2.693,1.656 2.813,3.232 0.041,0.46 0.047,1.295 0.381,1.721 l 1.483,-0.01 c -0.597,-0.555 -0.604,-2.092 -0.663,-2.852 -0.119,-1.336 -0.643,-2.352 -2.479,-2.527 l 0,-0.02 c 1.815,-0.305 2.718,-1.458 2.71,-2.868 -0.01,-2.02 -1.942,-2.92 -4.26,-2.908 l -6.412,0.034 0.055,11.197 0,0 z m 1.282,-10.294 4.987,-0.026 c 2.001,-0.01 3.024,0.854 3.032,2.228 0.006,1.353 -1.396,2.176 -3.01,2.183 l -4.986,0.025 -0.023,-4.41 0,0 z m 10.627,4.633 c 0.017,3.06 2.236,5.829 6.647,5.806 4.394,-0.023 6.567,-2.814 6.55,-5.872 -0.016,-3.059 -2.217,-5.811 -6.608,-5.786 -4.414,0.022 -6.604,2.793 -6.589,5.852 l 0,0 0,0 z m 1.336,-0.01 c -0.013,-2.445 1.549,-4.919 5.256,-4.938 3.69,-0.019 5.259,2.438 5.271,4.883 0.014,2.447 -1.531,4.939 -5.22,4.959 -3.708,0.02 -5.298,-2.458 -5.307,-4.904 l 0,0 0,0 z m 14.859,-4.766 2.836,-0.014 c 4.02,-0.021 5.771,1.322 5.789,4.658 0.018,3.354 -1.718,4.699 -5.741,4.719 l -2.837,0.015 -0.047,-9.378 0,0 z m -1.28,10.295 4.837,-0.028 c 4.226,-0.018 6.422,-1.957 6.402,-5.629 -0.02,-3.671 -2.234,-5.585 -6.461,-5.563 l -4.838,0.025 0.06,11.195 z"
         id="path46356" />
      <g
         transform="translate(-47.541,932.34257)"
         id="g46358">
        <path
           style="fill:#ffffff"
           inkscape:connector-curvature="0"
           d="M 92,69.449 C 92,69.201 91.799,69 91.551,69 l -7.102,0 C 84.201,69 84,69.201 84,69.449 l 0,0.102 C 84,69.799 84.201,70 84.449,70 l 7.102,0 C 91.799,70 92,69.799 92,69.551 l 0,-0.102 z"
           id="path46360" />
        <rect
           style="fill:#ffffff"
           x="85"
           y="71"
           width="5"
           height="2"
           id="rect46362" />
        <path
           style="fill:#ffffff"
           inkscape:connector-curvature="0"
           d="M 85.973,73.535 C 86.044,73.887 86.423,74 86.877,74 l 1.001,0 c 0.456,0 0.835,-0.113 0.903,-0.465 -0.564,0.064 -1.102,0.07 -1.404,0.07 -0.302,0 -0.837,-0.005 -1.404,-0.07 z"
           id="path46364" />
        <path
           style="fill:#ffffff"
           inkscape:connector-curvature="0"
           d="m 87.377,57.518 c -2.912,0 -5.274,2.361 -5.274,5.275 0,1.298 0.473,2.537 1.337,3.506 0.32,0.361 0.529,0.751 0.646,1.218 l 0.012,0.03 C 84.17,67.83 84.411,68 84.706,68 l 5.345,0 c 0.294,0 0.535,-0.17 0.607,-0.455 l 0.013,-0.039 c 0.119,-0.467 0.324,-0.852 0.646,-1.21 0.865,-0.97 1.338,-2.207 1.338,-3.505 -0.001,-2.914 -2.364,-5.273 -5.278,-5.273 z m 1.862,6.159 -0.831,3.262 c -0.025,0.094 -0.105,0.148 -0.187,0.127 -0.079,-0.021 -0.132,-0.113 -0.118,-0.21 l 0.281,-2.21 c 0.023,-0.176 0.012,-0.351 -0.035,-0.497 -0.139,-0.443 -1.805,-0.443 -1.943,0 -0.047,0.146 -0.06,0.321 -0.036,0.497 l 0.283,2.21 c 0.013,0.098 -0.041,0.189 -0.12,0.211 -0.082,0.021 -0.16,-0.034 -0.185,-0.128 l -0.831,-3.262 c -0.294,-1.161 4.016,-1.161 3.722,0 z"
           id="path46366" />
        <path
           style="fill:#ffffff"
           inkscape:connector-curvature="0"
           d="m 78.01,67.434 0.436,0.76 2.672,-1.681 C 81.005,66.334 80.899,66.15 80.801,65.962 l -2.791,1.472 z"
           id="path46368" />
        <path
           style="fill:#ffffff"
           inkscape:connector-curvature="0"
           d="m 79.959,62.531 c 0,-0.107 -0.404,-0.214 -0.399,-0.32 L 76,62.09 l 0,0.881 3.56,-0.119 c -0.005,-0.108 0.399,-0.214 0.399,-0.321 z"
           id="path46370" />
        <path
           style="fill:#ffffff"
           inkscape:connector-curvature="0"
           d="m 87.377,55.112 c 0.107,0 0.215,0.021 0.32,0.024 L 87.818,52 l -0.881,0 0.12,3.137 c 0.107,-0.004 0.214,-0.025 0.32,-0.025 z"
           id="path46372" />
        <path
           style="fill:#ffffff"
           inkscape:connector-curvature="0"
           d="m 96.746,57.629 -0.438,-0.761 -2.67,1.68 c 0.114,0.181 0.219,0.364 0.318,0.553 l 2.79,-1.472 z"
           id="path46374" />
        <path
           style="fill:#ffffff"
           inkscape:connector-curvature="0"
           d="m 81.117,58.549 -2.672,-1.681 -0.436,0.761 2.788,1.472 c 0.099,-0.189 0.207,-0.372 0.32,-0.552 z"
           id="path46376" />
        <path
           style="fill:#ffffff"
           inkscape:connector-curvature="0"
           d="m 94.819,62.211 c 0.004,0.106 -0.009,0.213 -0.009,0.32 0,0.106 0.021,0.213 0.016,0.32 l 3.174,0.12 0,-0.881 -3.181,0.121 z"
           id="path46378" />
        <path
           style="fill:#ffffff"
           inkscape:connector-curvature="0"
           d="m 93.638,66.513 2.671,1.681 0.438,-0.76 -2.789,-1.472 c -0.101,0.187 -0.206,0.372 -0.32,0.551 z"
           id="path46380" />
        <path
           style="fill:#ffffff"
           inkscape:connector-curvature="0"
           d="m 90.81,55.952 c 0.188,0.098 0.37,0.204 0.551,0.318 l 1.681,-2.671 -0.76,-0.437 -1.472,2.79 z"
           id="path46382" />
        <path
           style="fill:#ffffff"
           inkscape:connector-curvature="0"
           d="m 83.947,55.952 -1.473,-2.789 -0.76,0.437 1.683,2.671 c 0.177,-0.115 0.363,-0.221 0.55,-0.319 z"
           id="path46384" />
      </g>
      <path
         style="opacity:0.5;fill:#ff6f00;fill-opacity:1"
         inkscape:connector-curvature="0"
         d="m 15.861,997.75057 c 6.103,0 11.51,2.98603 14.84,7.57503 -2.769,-5.152 -8.207,-8.65603 -14.467,-8.65603 -4.787,0 -9.096,2.052 -12.096,5.32103 3.176,-2.64603 7.263,-4.24003 11.723,-4.24003 z"
         id="path46386" />
      <path
         style="opacity:0.5;fill:#ff6f00;fill-opacity:1"
         inkscape:connector-curvature="0"
         d="m 63.244,997.62557 c 6.104,0 11.51,2.98603 14.84,7.57603 -2.768,-5.152 -8.207,-8.65703 -14.467,-8.65703 -4.786,0 -9.096,2.052 -12.096,5.32203 3.176,-2.64703 7.263,-4.24103 11.723,-4.24103 z"
         id="path46388" />
    </g>
  </g>
</svg>
