<?xml version="1.0" encoding="UTF-8" standalone="no"?>
<!-- Created with Inkscape (http://www.inkscape.org/) -->
<svg
   xmlns:dc="http://purl.org/dc/elements/1.1/"
   xmlns:cc="http://creativecommons.org/ns#"
   xmlns:rdf="http://www.w3.org/1999/02/22-rdf-syntax-ns#"
   xmlns:svg="http://www.w3.org/2000/svg"
   xmlns="http://www.w3.org/2000/svg"
   xmlns:sodipodi="http://sodipodi.sourceforge.net/DTD/sodipodi-0.dtd"
   xmlns:inkscape="http://www.inkscape.org/namespaces/inkscape"
   width="240"
   height="240"
   viewBox="0 0 239.99999 240"
   id="svg4199"
   version="1.1"
   inkscape:version="0.91 r13725"
   sodipodi:docname="prodam.svg">
  <defs
     id="defs4201">
    <linearGradient
       gradientTransform="translate(-507.55079,-203.71065)"
       id="SVGID_1_"
       gradientUnits="userSpaceOnUse"
       x1="76.794899"
       y1="129.7402"
       x2="291.56839"
       y2="129.7402">
      <stop
         offset="0"
         style="stop-color:#C3E0AA"
         id="stop6" />
      <stop
         offset="1"
         style="stop-color:#73C167"
         id="stop8" />
    </linearGradient>
  </defs>
  <sodipodi:namedview
     id="base"
     pagecolor="#ffffff"
     bordercolor="#666666"
     borderopacity="1.0"
     inkscape:pageopacity="0.0"
     inkscape:pageshadow="2"
     inkscape:zoom="2.3166667"
     inkscape:cx="120"
     inkscape:cy="120"
     inkscape:document-units="px"
     inkscape:current-layer="layer1"
     showgrid="false"
     units="px"
     inkscape:window-width="1366"
     inkscape:window-height="744"
     inkscape:window-x="0"
     inkscape:window-y="24"
     inkscape:window-maximized="1" />
  <metadata
     id="metadata4204">
    <rdf:RDF>
      <cc:Work
         rdf:about="">
        <dc:format>image/svg+xml</dc:format>
        <dc:type
           rdf:resource="http://purl.org/dc/dcmitype/StillImage" />
        <dc:title></dc:title>
      </cc:Work>
    </rdf:RDF>
  </metadata>
  <g
     inkscape:label="Layer 1"
     inkscape:groupmode="layer"
     id="layer1"
     transform="translate(0,-812.36216)">
    <g
       id="g4763"
       transform="translate(445.71428,977.14281)">
      <path
         id="path3"
         d="m -435.29079,36.837348 3.587,-0.019 -0.066,-12.848 13.099,-0.067 c 6.721,-0.035 11.136,-3.245 11.108,-8.674 -0.028,-5.4280004 -4.475,-8.5920004 -11.197,-8.5570004 l -16.686,0.086 0.155,30.0790004 0,0 z m 174.901,-0.901 9.212,-0.048 -0.117,-22.811 0.1,0 8.037,22.77 7.469,-0.039 7.802,-22.852 0.099,0 0.117,22.811 9.213,-0.047 -0.155,-30.0800004 -14.441,0.075 -6.371,20.1010004 -0.098,0 -6.58,-20.0340004 -14.441,0.074 0.154,30.0800004 0,0 z m -21.078,-21.606 0.099,0 4.188,10.487 -8.515,0.044 4.228,-10.531 0,0 z m -18.862,21.812 10.059,-0.052 2.363,-5.392 13.096,-0.068 2.319,5.368 10.259,-0.053 -14.249,-30.0070004 -9.959,0.051 -13.888,30.1530004 0,0 z m -131.516,-26.9630004 12.3,-0.063 c 4.979,-0.026 8.378,2.0000004 8.399,6.1330004 0.021,4.133 -3.356,6.143 -8.336,6.168 l -12.3,0.063 -0.063,-12.3010004 0,0 z m 28.677,27.4930004 3.583,-0.019 -0.068,-13.349 13.599,-0.07 c 6.771,-0.035 7.242,4.447 7.563,8.678 0.106,1.245 0.118,3.486 1.021,4.627 l 3.983,-0.021 c -1.602,-1.486 -1.623,-5.621 -1.782,-7.662 -0.317,-3.584 -1.726,-6.315 -6.659,-6.789 l 0,-0.049 c 4.877,-0.822 7.3,-3.921 7.281,-7.707 -0.028,-5.4280004 -5.219,-7.8400004 -11.445,-7.8080004 l -17.23,0.088 0.154,30.0810004 0,0 z m 3.442,-27.6590004 13.396,-0.069 c 5.38,-0.028 8.131,2.2990004 8.15,5.9840004 0.019,3.635 -3.755,5.845 -8.089,5.868 l -13.396,0.069 -0.061,-11.8520004 0,0 z m 28.553,12.4530004 c 0.042,8.217 6.006,15.656 17.86,15.595 11.801,-0.061 17.639,-7.56 17.596,-15.777 -0.042,-8.218 -5.957,-15.6060004 -17.757,-15.5460004 -11.854,0.06 -17.741,7.5100004 -17.699,15.7280004 l 0,0 0,0 z m 3.585,-0.019 c -0.034,-6.573 4.163,-13.2180004 14.126,-13.2700004 9.909,-0.051 14.126,6.5510004 14.16,13.1240004 0.034,6.573 -4.115,13.27 -14.024,13.321 -9.962,0.052 -14.228,-6.603 -14.262,-13.175 l 0,0 0,0 z m 39.925,-12.8050004 7.621,-0.039 c 10.805,-0.056 15.506,3.5550004 15.553,12.5190004 0.046,9.014 -4.618,12.624 -15.423,12.679 l -7.621,0.04 -0.13,-25.1990004 0,0 z m -3.443,27.6590004 12.998,-0.067 c 11.354,-0.059 17.253,-5.271 17.203,-15.13 -0.051,-9.86 -6.004,-15.0080004 -17.357,-14.9490004 l -12.998,0.067 0.154,30.0790004 z"
         style="clip-rule:evenodd;fill-rule:evenodd"
         inkscape:connector-curvature="0" />
      <path
         id="path10"
         d="m -256.81279,-106.58465 0,1.272 9.461,0 0,-9.46 -9.461,0 0,8.133 c 0.996,-0.166 2.047,-0.277 3.099,-0.442 -1.052,0.165 -2.103,0.331 -3.099,0.497 l 0,0 z m -169.462,103.6239976 c 0.554,-1.051 1.162,-1.992 1.715,-2.932 l -3.762,0 2.047,2.932 0,0 z m -4.481,-6.362 1.383,1.992 5.643,0 c 0.166,-0.276 0.332,-0.553 0.498,-0.83 l 0,-8.6309996 -1.217,0 c -1.992,2.269 -4.094,4.758 -6.307,7.4689996 l 0,0 z m 9.073,-1.3269996 c 1.438,-2.213 2.822,-4.26 4.205,-6.142 l -4.205,0 0,6.142 0,0 z m 0,-9.185 0,1.66 5.256,0 c 1.438,-1.937 2.822,-3.707 4.205,-5.256 l 0,-4.26 -1.66,0 c -2.379,2.213 -4.979,4.758 -7.801,7.856 l 0,0 z m 11.01,-5.256 c 0.885,-0.94 1.771,-1.771 2.6,-2.6 l -2.6,0 0,2.6 0,0 z m 0,-3.983 4.205,0 c 1.826,-1.549 3.596,-2.766 5.256,-3.817 l 0,-3.707 c -2.821,1.328 -5.919,3.265 -9.46,6.142 l 0,1.382 -0.001,0 z m 11.01,-8.188 0,3.485 c 2.158,-1.162 4.26,-1.936 6.307,-2.545 0.775,2.49 1.881,4.813 3.154,6.971 l 0,-9.184 -5.256,0 c -1.384,0.277 -2.767,0.72 -4.205,1.273 l 0,0 z m 4.315,-7.912 c 1.715,0.277 3.43,0.443 5.146,0.553 l 0,-4.813 -5.201,0 c 0,1.383 0,2.822 0.055,4.26 l 0,0 z m -0.111,-5.643 5.256,0 0,-9.461 -4.979,0 c -0.166,2.988 -0.277,6.142 -0.277,9.461 l 0,0 z m 0.388,-10.899 4.869,0 0,-9.461 -3.818,0 c -0.443,2.932 -0.83,6.086 -1.051,9.461 l 0,0 z m 6.417,32.642 9.46,0 0,-9.46 -9.46,0 0,9.46 0,0 z m 0,-15.491 c 3.209,0.056 6.362,-0.166 9.46,-0.664 l 0,-4.205 -9.46,0 0,4.869 0,0 z m 0,-6.252 9.46,0 0,-9.461 -9.46,0 0,9.461 0,0 z m 0,-10.899 9.46,0 0,-9.461 -9.46,0 0,9.461 0,0 z m 20.471,48.631 0,-3.707 -8.354,0 c 2.6,1.438 5.422,2.656 8.354,3.707 l 0,0 z m -9.461,-5.09 9.46,0 0,-9.516 -9.46,0 0,9.516 0,0 z m 0,-10.899 9.46,0 0,-9.46 -9.46,0 0,9.46 0,0 z m 0,-16.376 c 3.153,-0.609 6.307,-1.438 9.46,-2.49 l 0,-1.494 -9.46,0 0,3.984 0,0 z m 9.461,5.477 0,-0.885 c -1.549,0.387 -3.043,0.664 -4.481,0.885 l 4.481,0 0,0 z m -9.461,-10.844 9.46,0 0,-9.461 -9.46,0 0,9.461 0,0 z m 0,-10.899 9.46,0 0,-9.461 -9.46,0 0,9.461 0,0 z m 11.01,43.541 9.461,0 0,-9.516 -9.461,0 0,9.516 0,0 z m 0,-10.899 9.461,0 0,-9.46 -9.461,0 0,9.46 0,0 z m 0,-12.227 0,1.328 9.461,0 0,-4.813 c -2.158,0.94 -4.316,1.826 -6.474,2.601 -1.05,0.331 -1.991,0.662 -2.987,0.884 l 0,0 z m 0,-8.133 0,0.94 c 0.83,-0.277 1.66,-0.608 2.49,-0.94 l -2.49,0 0,0 z m 0,-1.383 5.92,0 c 1.162,-0.553 2.379,-1.106 3.541,-1.66 l 0,-7.801 -9.461,0 0,9.461 0,0 z m 0,-10.899 9.461,0 0,-9.461 -9.461,0 0,9.461 0,0 z m 11.01,51.674 c 3.098,0.4979996 6.252,0.8849996 9.46,1.0509996 l 0,-7.8009996 -9.46,0 0,6.75 0,0 z m 0,-8.133 9.46,0 0,-9.516 -9.46,0 0,9.516 0,0 z m 0,-10.899 9.46,0 0,-9.46 -9.46,0 0,9.46 0,0 z m 0,-16.487 0,5.588 9.46,0 0,-9.46 -2.213,0 c -2.434,1.437 -4.813,2.71 -7.247,3.872 l 0,0 z m 0,-7.69 c 3.153,-1.605 6.307,-3.32 9.46,-5.201 l 0,-1.826 -9.46,0 0,7.027 0,0 z m 0,-8.465 9.46,0 0,-9.461 -9.46,0 0,9.461 0,0 z m 11.01,43.541 9.46,0 0,-9.516 -9.46,0 0,9.516 0,0 z m 0,-21.798 9.46,0 0,-9.46 -9.46,0 0,9.46 0,0 z m 0,-10.844 9.46,0 0,-7.303 c -3.153,2.269 -6.307,4.426 -9.46,6.418 l 0,0.885 0,0 z m 0,-9.461 0,0.885 c 0.553,-0.276 1.051,-0.608 1.549,-0.885 l -1.549,0 0,0 z m 0,-1.438 3.873,0 c 1.826,-1.162 3.707,-2.379 5.588,-3.652 l 0,-5.809 -9.46,0 0,9.461 -10e-4,0 z m 11.009,52.8909996 c 3.209,-0.111 6.362,-0.388 9.461,-0.72 l 0,-7.2479996 -9.461,0 0,7.9679996 0,0 z m 0,-9.3499996 9.461,0 0,-9.516 -9.461,0 0,9.516 0,0 z m 0,-10.899 9.461,0 0,-9.46 -9.461,0 0,9.46 0,0 z m 0,-10.899 9.461,0 0,-9.46 -9.461,0 0,9.46 0,0 z m 0,-20.305 0,1.052 0,8.409 9.461,0 0,-9.461 -8.022,0 -1.439,0 0,0 z m 9.461,-1.438 0,-4.647 c -1.992,1.549 -4.039,3.098 -6.086,4.647 l 6.086,0 0,0 z m -9.461,-9.461 7.137,0 c -2.379,1.604 -4.758,3.209 -7.137,4.813 l 0,-4.813 0,0 z m 11.01,42.103 9.46,0 0,-9.46 -9.46,0 0,9.46 0,0 z m 0,-10.899 9.46,0 0,-9.46 -9.46,0 0,9.46 0,0 z m 0,-27.608 0,5.865 9.46,0 0,-9.461 -4.813,0 c -1.549,1.217 -3.098,2.379 -4.647,3.596 l 0,0 z m -71.148,-5.089 3.541,0 0,-9.46 -1.328,0 c -0.886,2.931 -1.605,6.085 -2.213,9.46 l 0,0 z m 5.089,0 9.46,0 0,-9.46 -9.46,0 0,9.46 0,0 z m 0,-16.985 0,6.141 9.46,0 0,-9.516 -7.746,0 c -0.607,1.106 -1.16,2.213 -1.714,3.375 l 0,0 z m 2.545,-4.758 6.916,0 0,-8.630998 c -2.545,2.434 -4.868,5.310998 -6.916,8.630998 l 0,0 z m 8.465,21.743 9.46,0 0,-9.46 -9.46,0 0,9.46 0,0 z m 0,-10.844 9.46,0 0,-9.516 -9.46,0 0,9.516 0,0 z m 0,-10.899 9.46,0 0,-9.460998 -9.46,0 0,9.460998 0,0 z m 9.461,-10.899998 0,-5.256 c -2.987,1.438 -5.809,3.209 -8.409,5.256 l 8.409,0 0,0 z m 1.549,32.642998 9.461,0 0,-9.46 -9.461,0 0,9.46 0,0 z m 0,-10.844 9.461,0 0,-9.516 -9.461,0 0,9.516 0,0 z m 0,-10.899 9.461,0 0,-9.460998 -9.461,0 0,9.460998 0,0 z m 0,-10.899998 9.461,0 0,-9.239 c -3.32,0.885 -6.474,1.937 -9.461,3.264 l 0,5.975 0,0 z m 11.01,32.642998 9.46,0 0,-9.46 -9.46,0 0,9.46 0,0 z m 0,-10.844 9.46,0 0,-9.516 -9.46,0 0,9.516 0,0 z m 0,-10.899 9.46,0 0,-9.460998 -9.46,0 0,9.460998 0,0 z m 0,-10.899998 9.46,0 0,-9.46 -9.46,0 0,9.46 0,0 z m 11.01,32.642998 9.46,0 0,-9.46 -9.46,0 0,9.46 0,0 z m 0,-10.844 9.46,0 0,-9.516 -9.46,0 0,9.516 0,0 z m 0,-10.899 9.46,0 0,-9.460998 -9.46,0 0,9.460998 0,0 z m 0,-10.899998 9.46,0 0,-9.46 -9.46,0 0,9.46 0,0 z m 0,-10.898 9.46,0 0,-1.604 c -3.208,0.221 -6.362,0.553 -9.46,0.94 l 0,0.664 0,0 z m 11.009,43.540998 9.294,0 0.167,0 0,-0.11 0,-9.35 -9.461,0 0,9.46 0,0 z m 0,-10.844 9.461,0 0,-9.516 -9.461,0 0,9.516 0,0 z m 0,-10.899 9.461,0 0,-9.460998 -9.461,0 0,9.460998 0,0 z m 0,-10.899998 9.461,0 0,-9.46 -9.461,0 0,9.46 0,0 z m 0,-10.898 9.461,0 0,-2.158 c -3.209,0.11 -6.363,0.276 -9.461,0.442 l 0,1.716 0,0 z m 11.01,42.377998 c 3.153,-2.158 6.307,-4.315 9.46,-6.473 l 0,-1.826 -9.46,0 0,8.299 0,0 z m 9.461,1.163 -2.932,0 c 0.996,-0.775 1.937,-1.549 2.932,-2.324 l 0,2.324 0,0 z m -9.461,-10.844 9.46,0 0,-9.516 -9.46,0 0,9.516 0,0 z m 0,-10.899 9.46,0 0,-9.460998 -9.46,0 0,9.460998 0,0 z m 0,-10.899998 9.46,0 0,-9.46 -9.46,0 0,9.46 0,0 z m 0,-10.898 9.46,0 0,-2.49 c -3.153,0.111 -6.362,0.166 -9.46,0.277 l 0,2.213 0,0 z m 10.733,34.079998 0,0.996 c 0.498,-0.332 0.996,-0.664 1.494,-0.996 l -1.494,0 0,0 z m 0,6.196 c 2.656,-2.103 5.312,-4.149 7.967,-6.196 l 1.494,0 0,9.46 -9.461,0 0,-3.264 0,0 z m 0,-7.579 3.596,0 c 1.937,-1.272 3.873,-2.545 5.865,-3.762 l 0,-5.754 -9.461,0 0,9.516 0,0 z m 0,-10.899 9.461,0 0,-9.460998 -9.461,0 0,9.460998 0,0 z m 0,-10.899998 9.461,0 0,-9.46 -9.461,0 0,9.46 0,0 z m 0,-10.898 9.461,0 0,-2.766 c -3.209,0.11 -6.362,0.166 -9.461,0.276 l 0,2.49 0,0 z m 11.01,43.540998 9.46,0 0,-9.46 -9.46,0 0,9.46 0,0 z m 0,-20.36 0,4.758 c 2.6,-1.604 5.311,-3.208 7.966,-4.703 l -7.966,-0.055 0,0 z m 0,9.516 0,-0.83 c 3.098,-2.324 6.251,-4.592 9.46,-6.694 l 0,7.524 -9.46,0 0,0 z m 0,-10.899 9.46,0 0,-9.460998 -9.46,0 0,9.460998 0,0 z m 0,-10.899998 9.46,0 0,-9.46 -9.46,0 0,9.46 0,0 z m 0,-10.898 9.46,0 0,-3.264 c -3.209,0.166 -6.362,0.332 -9.46,0.442 l 0,2.822 0,0 z m 11.009,43.540998 9.461,0 0,-9.46 -9.461,0 0,9.46 0,0 z m 0,-19.364 0,8.52 9.461,0 0,-9.516 -8.022,0 c -0.498,0.332 -0.996,0.664 -1.439,0.996 l 0,0 z m 9.461,-2.379 0,-3.375 c -1.937,1.051 -3.873,2.213 -5.754,3.375 l 5.754,0 0,0 z m -9.461,-0.222 0,-9.238998 9.461,0 0,4.536998 c -3.209,1.438 -6.362,2.987 -9.461,4.702 l 0,0 z m 0,-10.677998 9.461,0 0,-9.46 -9.461,0 0,9.46 0,0 z m 0,-10.898 9.461,0 0,-4.15 c -3.154,0.332 -6.362,0.553 -9.461,0.774 l 0,3.376 0,0 z m 20.471,34.079998 -9.461,0 0,9.46 9.461,0 0,-9.46 0,0 z m 0,-10.899 -9.461,0 0,9.516 9.461,0 0,-9.516 0,0 z m 0,-10.843998 -9.461,0 0,3.873 c 3.099,-1.328 6.252,-2.545 9.461,-3.596 l 0,-0.277 0,0 z m 0,0.885 0,8.575998 -9.461,0 0,-4.205 c 3.099,-1.659998 6.252,-3.097998 9.461,-4.370998 l 0,0 z m 0,-11.784 -9.461,0 0,9.46 9.461,0 0,-9.46 0,0 z m 0,-7.026 c -3.154,0.498 -6.307,0.94 -9.461,1.272 l 0,4.316 9.461,0 0,-5.588 0,0 z m 1.55,49.128998 9.46,0 0,-9.46 -9.46,0 0,9.46 0,0 z m 0,-10.844 9.46,0 0,-9.516 -9.46,0 0,9.516 0,0 z m 0,-20.027998 0,9.128998 9.46,0 0,-9.460998 -8.576,0 c -0.276,0.111 -0.608,0.221 -0.884,0.332 l 0,0 z m 9.46,-1.771 0,-0.996 c -1.383,0.276 -2.767,0.608 -4.094,0.996 l 4.094,0 0,0 z m -9.46,0 0,-9.46 9.46,0 0,8.409 c -1.66,0.332 -3.32,0.664 -4.979,1.051 l -4.481,0 0,0 z m 0,-10.898 9.46,0 0,-7.801 c -3.154,0.774 -6.307,1.383 -9.46,1.936 l 0,5.865 0,0 z m 11.009,32.696998 9.461,0 0,-9.516 -9.461,0 0,9.516 0,0 z m 0,-40.884998 0,8.188 9.461,0 0,-9.461 -4.979,0 c -1.494,0.442 -2.988,0.885 -4.482,1.273 l 0,0 z m 11.01,29.985998 9.46,0 0,-9.460998 -9.46,0 0,9.460998 0,0 z m 0,-10.899998 9.46,0 0,-9.46 -9.46,0 0,9.46 0,0 z m 0,-10.898 9.46,0 0,-9.461 -9.46,0 0,9.461 0,0 z m 0,-10.844 9.46,0 0,-4.703 c -3.154,1.494 -6.307,2.821 -9.46,3.983 l 0,0.72 0,0 z m 11.009,21.742 7.58,0 c 0.664,-1.992 1.272,-3.983 1.881,-5.92 l 0,-3.541 -9.461,0 0,9.461 0,0 z m 0,-27.219 0,5.477 9.461,0 0,-9.461 -2.269,0 c -2.378,1.438 -4.757,2.766 -7.192,3.984 l 0,0 z m 9.461,-5.423 0,0 -0.055,0 0.055,0 0,0 z m 1.549,21.467 c 0.885,-3.209 1.771,-6.251 2.545,-9.184 l -2.545,0 0,9.184 0,0 z m 0,-10.567 2.877,0 c 0.94,-3.486 1.771,-6.639 2.49,-9.461 l -5.367,0 0,9.461 0,0 z m 0,-11.951 0,1.051 5.754,0 c 0.775,-2.766 1.438,-5.145 2.047,-7.026 -2.545,2.158 -5.145,4.149 -7.801,5.975 l 0,0 z m -88.078,120.996998 9.461,0 0,-9.461 -9.461,0 0,9.461 0,0 z m 0,-21.743 9.461,0 0,-9.46 -9.461,0 0,9.46 0,0 z m 0,-10.899 9.461,0 0,-9.46 -9.461,0 0,9.46 0,0 z m 0,-10.844 9.461,0 0,-9.461 -9.461,0 0,9.461 0,0 z m 11.01,10.844 9.46,0 0,-9.46 -9.46,0 0,9.46 0,0 z m 11.009,10.899 9.461,0 0,-9.46 -9.461,0 0,9.46 0,0 z m 0,-21.743 9.461,0 0,-9.461 -9.461,0 0,9.461 0,0 z m 11.066,0 9.46,0 0,-9.461 -9.46,0 0,9.461 0,0 z m 10.955,10.954 9.46,0 0,-9.46 -9.46,0 0,9.46 z"
         style="clip-rule:evenodd;fill:url(#SVGID_1_);fill-rule:evenodd"
         inkscape:connector-curvature="0" />
      <path
         id="path12"
         d="m -435.37279,46.171348 10.469,0 0,1.081 -4.61,0 0,8.133 -1.228,0 0,-8.133 -4.631,0 0,-1.081 0,0 z m 11.158,9.214 0,-9.214 9.032,0 0,1.081 -7.804,0 0,2.813 7.472,0 0,1.081 -7.472,0 0,3.159 7.811,0 0,1.081 -9.039,0 0,-10e-4 z m 19.299,-3.152 1.196,0 c -0.032,0.836 -0.081,1.412 -0.15,1.728 -0.147,0.684 -0.603,1.106 -1.368,1.262 -0.622,0.127 -1.726,0.189 -3.315,0.189 -2.06,0 -3.454,-0.072 -4.178,-0.217 -0.689,-0.138 -1.152,-0.5 -1.392,-1.083 -0.237,-0.583 -0.357,-1.645 -0.357,-3.191 0,-1.47 0.09,-2.539 0.27,-3.205 0.217,-0.788 0.772,-1.247 1.668,-1.378 0.864,-0.131 2.132,-0.196 3.799,-0.196 1.592,0 2.735,0.078 3.422,0.237 0.343,0.076 0.638,0.226 0.889,0.447 0.249,0.223 0.408,0.481 0.475,0.774 0.067,0.274 0.106,0.811 0.115,1.613 l -1.14,0 c -0.005,-0.157 -0.007,-0.263 -0.007,-0.318 0,-0.44 -0.043,-0.756 -0.129,-0.942 -0.086,-0.186 -0.251,-0.33 -0.5,-0.428 -0.454,-0.185 -1.516,-0.277 -3.184,-0.277 -1.212,0 -2.12,0.032 -2.728,0.097 -0.606,0.066 -1.002,0.17 -1.187,0.315 -0.178,0.143 -0.307,0.44 -0.389,0.892 -0.083,0.449 -0.125,1.076 -0.125,1.877 0,0.378 0.016,0.867 0.048,1.466 0.03,0.597 0.063,1.009 0.095,1.235 0.048,0.355 0.162,0.613 0.338,0.774 0.18,0.159 0.459,0.255 0.841,0.292 0.698,0.071 1.693,0.108 2.991,0.108 0.396,0 0.915,-0.011 1.555,-0.037 0.64,-0.026 1.051,-0.048 1.226,-0.071 0.341,-0.044 0.597,-0.113 0.763,-0.205 0.166,-0.092 0.281,-0.23 0.344,-0.417 0.059,-0.16 0.095,-0.606 0.114,-1.341 l 0,0 z m 2.207,-6.062 2.046,0 8.073,8.08 0.284,0 0,-8.08 1.228,0 0,9.214 -2.078,0 -8.055,-8.06 -0.27,0 0,8.06 -1.228,0 0,-9.214 0,0 z m 18.866,-0.028 c 1.576,0 2.687,0.051 3.332,0.152 0.645,0.102 1.118,0.297 1.415,0.59 0.189,0.185 0.33,0.406 0.424,0.659 0.094,0.253 0.17,0.611 0.223,1.069 0.067,0.581 0.102,1.316 0.102,2.203 0,1.133 -0.053,1.993 -0.159,2.573 -0.106,0.583 -0.288,1.012 -0.551,1.281 -0.27,0.288 -0.714,0.484 -1.332,0.59 -0.62,0.106 -1.633,0.159 -3.042,0.159 -0.693,0 -1.46,-0.012 -2.306,-0.035 -0.843,-0.021 -1.398,-0.044 -1.664,-0.067 -0.458,-0.043 -0.82,-0.12 -1.087,-0.223 -0.265,-0.104 -0.5,-0.265 -0.707,-0.486 -0.274,-0.288 -0.459,-0.691 -0.551,-1.214 -0.092,-0.523 -0.139,-1.406 -0.139,-2.647 0,-1.465 0.102,-2.509 0.304,-3.125 0.242,-0.73 0.8,-1.159 1.668,-1.29 0.796,-0.122 2.153,-0.185 4.07,-0.189 l 0,0 z m -0.708,1.106 c -1.288,0 -2.232,0.051 -2.836,0.154 -0.35,0.06 -0.603,0.159 -0.76,0.302 -0.155,0.141 -0.263,0.373 -0.328,0.691 -0.104,0.514 -0.154,1.265 -0.154,2.256 0,1.018 0.028,1.76 0.085,2.226 0.055,0.465 0.157,0.779 0.306,0.936 0.118,0.131 0.286,0.226 0.507,0.283 0.219,0.06 0.569,0.104 1.046,0.136 0.788,0.053 1.703,0.081 2.746,0.081 1.486,0 2.565,-0.06 3.24,-0.182 0.532,-0.09 0.848,-0.403 0.947,-0.94 0.104,-0.576 0.154,-1.36 0.154,-2.351 0,-1.209 -0.046,-2.064 -0.136,-2.56 -0.09,-0.502 -0.438,-0.802 -1.046,-0.896 -0.355,-0.056 -0.756,-0.09 -1.201,-0.106 -0.445,-0.016 -1.302,-0.025 -2.57,-0.03 l 0,0 z m 7.396,-1.078 1.229,0 0,8.133 7.276,0 0,1.081 -8.504,0 0,-9.214 -10e-4,0 z m 15.113,-0.028 c 1.576,0 2.687,0.051 3.332,0.152 0.645,0.102 1.117,0.297 1.415,0.59 0.189,0.185 0.33,0.406 0.424,0.659 0.095,0.253 0.17,0.611 0.224,1.069 0.067,0.581 0.101,1.316 0.101,2.203 0,1.133 -0.053,1.993 -0.159,2.573 -0.106,0.583 -0.288,1.012 -0.551,1.281 -0.27,0.288 -0.714,0.484 -1.332,0.59 -0.62,0.106 -1.633,0.159 -3.041,0.159 -0.693,0 -1.461,-0.012 -2.306,-0.035 -0.844,-0.021 -1.399,-0.044 -1.664,-0.067 -0.458,-0.043 -0.82,-0.12 -1.087,-0.223 -0.265,-0.104 -0.5,-0.265 -0.707,-0.486 -0.274,-0.288 -0.458,-0.691 -0.551,-1.214 -0.093,-0.523 -0.138,-1.406 -0.138,-2.647 0,-1.465 0.102,-2.509 0.304,-3.125 0.242,-0.73 0.799,-1.159 1.668,-1.29 0.794,-0.122 2.151,-0.185 4.068,-0.189 l 0,0 z m -0.707,1.106 c -1.288,0 -2.232,0.051 -2.836,0.154 -0.35,0.06 -0.604,0.159 -0.76,0.302 -0.154,0.141 -0.263,0.373 -0.327,0.691 -0.104,0.514 -0.154,1.265 -0.154,2.256 0,1.018 0.027,1.76 0.085,2.226 0.055,0.465 0.157,0.779 0.307,0.936 0.117,0.131 0.286,0.226 0.507,0.283 0.219,0.06 0.569,0.104 1.046,0.136 0.788,0.053 1.703,0.081 2.747,0.081 1.486,0 2.564,-0.06 3.239,-0.182 0.533,-0.09 0.848,-0.403 0.947,-0.94 0.104,-0.576 0.154,-1.36 0.154,-2.351 0,-1.209 -0.046,-2.064 -0.136,-2.56 -0.09,-0.502 -0.438,-0.802 -1.046,-0.896 -0.355,-0.056 -0.755,-0.09 -1.2,-0.106 -0.449,-0.016 -1.306,-0.025 -2.573,-0.03 l 0,0 z m 12.451,3.465 6.041,0 c -0.009,1.426 -0.056,2.353 -0.141,2.781 -0.094,0.473 -0.244,0.828 -0.447,1.067 -0.203,0.237 -0.512,0.426 -0.931,0.567 -0.566,0.185 -1.843,0.276 -3.827,0.276 -1.869,0 -3.188,-0.06 -3.963,-0.182 -0.675,-0.108 -1.161,-0.4 -1.463,-0.877 -0.338,-0.535 -0.507,-1.724 -0.507,-3.564 0,-1.279 0.092,-2.276 0.276,-2.991 0.175,-0.68 0.592,-1.125 1.253,-1.336 0.659,-0.212 1.954,-0.318 3.882,-0.318 0.636,0 1.348,0.016 2.138,0.051 0.788,0.034 1.327,0.071 1.615,0.111 0.59,0.08 1.069,0.309 1.438,0.682 0.221,0.23 0.376,0.496 0.466,0.797 0.09,0.301 0.141,0.728 0.149,1.276 l -1.269,0 c -0.014,-0.716 -0.113,-1.166 -0.298,-1.353 -0.122,-0.115 -0.292,-0.203 -0.513,-0.256 -0.219,-0.053 -0.572,-0.099 -1.053,-0.136 -0.662,-0.044 -1.481,-0.067 -2.463,-0.067 -1.291,0 -2.219,0.035 -2.788,0.102 -0.567,0.066 -0.942,0.188 -1.127,0.364 -0.17,0.164 -0.288,0.454 -0.355,0.876 -0.064,0.421 -0.096,1.094 -0.096,2.022 0,1.382 0.055,2.288 0.168,2.721 0.071,0.256 0.185,0.447 0.339,0.571 0.152,0.122 0.382,0.21 0.687,0.258 0.604,0.094 1.921,0.143 3.956,0.143 1.125,0 1.956,-0.046 2.491,-0.136 0.486,-0.081 0.794,-0.256 0.929,-0.53 0.131,-0.272 0.205,-0.885 0.219,-1.839 l -4.806,0 0,-1.08 0,0 z m 7.188,-4.543 1.228,0 0,9.214 -1.228,0 0,-9.214 0,0 z m 12.818,9.214 -1.092,-1.944 -7.454,0 -1.099,1.944 -1.392,0 5.226,-9.214 1.965,0 5.209,9.214 -1.363,0 0,0 z m -1.68,-3.026 -2.869,-5.108 -0.493,0 -2.91,5.108 6.272,0 0,0 z m 7.048,3.026 0,-9.214 9.032,0 0,1.081 -7.804,0 0,2.813 7.472,0 0,1.081 -7.472,0 0,3.159 7.811,0 0,1.081 -9.039,0 0,-10e-4 z m 9.916,-9.214 2.457,0 5.002,7.811 4.921,-7.811 2.47,0 0,9.214 -1.228,0 0,-8.073 -0.514,0 -5.143,8.073 -1,0 -5.198,-8.073 -0.539,0 0,8.073 -1.229,0 0,-9.214 10e-4,0 z m 19.428,6.331 1.194,0 c 0,0.104 0.002,0.17 0.007,0.203 0.009,0.519 0.046,0.864 0.11,1.039 0.067,0.178 0.21,0.311 0.429,0.405 0.343,0.15 1.461,0.224 3.354,0.224 1.374,0 2.36,-0.067 2.957,-0.203 0.59,-0.131 0.884,-0.587 0.884,-1.371 0,-0.396 -0.048,-0.693 -0.143,-0.894 -0.095,-0.2 -0.256,-0.341 -0.484,-0.421 -0.23,-0.081 -0.553,-0.129 -0.965,-0.143 -0.415,-0.014 -1.758,-0.018 -4.03,-0.018 -0.765,0 -1.378,-0.072 -1.836,-0.214 -0.458,-0.141 -0.811,-0.366 -1.06,-0.678 -0.292,-0.368 -0.438,-0.93 -0.438,-1.682 0,-0.832 0.233,-1.436 0.696,-1.809 0.224,-0.185 0.475,-0.325 0.749,-0.419 0.274,-0.094 0.659,-0.17 1.155,-0.23 0.813,-0.099 1.781,-0.147 2.903,-0.147 1.039,0 1.841,0.053 2.408,0.159 0.567,0.106 1.009,0.286 1.325,0.543 0.26,0.212 0.438,0.459 0.534,0.742 0.097,0.283 0.15,0.721 0.159,1.311 l -1.228,0 c 0,-0.072 0,-0.12 0,-0.143 0,-0.449 -0.048,-0.751 -0.147,-0.905 -0.145,-0.237 -0.458,-0.41 -0.942,-0.514 -0.484,-0.104 -1.205,-0.154 -2.164,-0.154 -1.191,0 -2.087,0.046 -2.682,0.136 -0.597,0.09 -1,0.237 -1.212,0.444 -0.198,0.198 -0.297,0.528 -0.297,0.986 0,0.415 0.048,0.709 0.147,0.885 0.099,0.175 0.292,0.309 0.581,0.398 0.419,0.134 1.226,0.206 2.417,0.214 0.405,0.004 1.405,0.009 3.002,0.014 0.664,0.005 1.17,0.069 1.523,0.189 0.353,0.122 0.643,0.332 0.867,0.629 0.278,0.378 0.419,0.917 0.419,1.62 0,0.67 -0.115,1.2 -0.343,1.587 -0.276,0.449 -0.786,0.751 -1.53,0.903 -0.744,0.154 -2.081,0.23 -4.011,0.23 -1.023,0 -1.774,-0.03 -2.258,-0.092 -0.484,-0.06 -0.866,-0.171 -1.149,-0.334 -0.343,-0.194 -0.579,-0.44 -0.709,-0.74 -0.132,-0.297 -0.196,-0.744 -0.196,-1.338 -0.002,-0.027 0,-0.165 0.004,-0.412 l 0,0 z m 11.212,-6.331 1.229,0 0,4.53 c 0,1.336 0.014,2.143 0.041,2.417 0.035,0.352 0.136,0.606 0.302,0.762 0.168,0.159 0.445,0.263 0.832,0.312 0.638,0.076 1.558,0.115 2.76,0.115 1.647,0 2.781,-0.048 3.401,-0.147 0.371,-0.061 0.629,-0.173 0.781,-0.344 0.15,-0.168 0.237,-0.442 0.261,-0.827 0.021,-0.346 0.037,-1.108 0.046,-2.288 l 0,-4.53 1.228,0 0,4.53 c -0.009,1.228 -0.032,2.076 -0.067,2.543 -0.081,0.802 -0.375,1.359 -0.884,1.675 -0.316,0.189 -0.698,0.309 -1.148,0.357 -0.449,0.051 -1.56,0.094 -3.327,0.136 -1.553,-0.023 -2.481,-0.042 -2.788,-0.058 -0.306,-0.016 -0.641,-0.062 -1.004,-0.138 -0.608,-0.132 -1.053,-0.473 -1.336,-1.025 -0.136,-0.272 -0.221,-0.595 -0.254,-0.97 -0.034,-0.375 -0.057,-1.216 -0.071,-2.521 l 0,-4.529 -0.002,0 z m 22.213,9.214 -1.092,-1.944 -7.454,0 -1.099,1.944 -1.392,0 5.226,-9.214 1.965,0 5.209,9.214 -1.363,0 0,0 z m -1.679,-3.026 -2.869,-5.108 -0.493,0 -2.91,5.108 6.272,0 0,0 z m 6.177,-6.188 1.357,0 4.562,8.087 0.433,0 4.46,-8.087 1.371,0 -5.089,9.214 -1.896,0 -5.198,-9.214 0,0 z m 12.683,0 1.228,0 0,9.214 -1.228,0 0,-9.214 0,0 z m 2.606,9.214 0,-9.214 6.359,0 c 1.408,0 2.398,0.058 2.97,0.175 0.687,0.141 1.212,0.507 1.571,1.102 0.185,0.302 0.316,0.705 0.392,1.212 0.076,0.504 0.116,1.209 0.116,2.115 0,1.129 -0.102,2.025 -0.304,2.687 -0.316,1.016 -0.986,1.613 -2.012,1.788 -0.53,0.09 -1.41,0.136 -2.638,0.136 l -6.454,0 0,-10e-4 z m 1.228,-1.081 5.17,0 c 0.887,0 1.438,-0.004 1.65,-0.016 0.214,-0.012 0.449,-0.049 0.707,-0.113 0.498,-0.116 0.857,-0.443 1.071,-0.977 0.217,-0.537 0.325,-1.362 0.325,-2.477 0,-1.449 -0.187,-2.403 -0.56,-2.862 -0.141,-0.177 -0.325,-0.309 -0.553,-0.396 -0.23,-0.088 -0.543,-0.15 -0.939,-0.184 -0.233,-0.019 -0.821,-0.028 -1.761,-0.028 l -5.11,0 0,7.053 0,0 z m 21.255,1.081 -1.092,-1.944 -7.454,0 -1.099,1.944 -1.392,0 5.226,-9.214 1.965,0 5.209,9.214 -1.363,0 0,0 z m -1.679,-3.026 -2.869,-5.108 -0.493,0 -2.91,5.108 6.272,0 z"
         style="fill:#58595b"
         inkscape:connector-curvature="0" />
    </g>
  </g>
</svg>
