<?xml version="1.0" encoding="UTF-8" standalone="no"?>
<!-- Created with Inkscape (http://www.inkscape.org/) -->

<svg
   xmlns:dc="http://purl.org/dc/elements/1.1/"
   xmlns:cc="http://creativecommons.org/ns#"
   xmlns:rdf="http://www.w3.org/1999/02/22-rdf-syntax-ns#"
   xmlns:svg="http://www.w3.org/2000/svg"
   xmlns="http://www.w3.org/2000/svg"
   xmlns:sodipodi="http://sodipodi.sourceforge.net/DTD/sodipodi-0.dtd"
   xmlns:inkscape="http://www.inkscape.org/namespaces/inkscape"
   width="128"
   height="118"
   viewBox="0 0 128 118"
   id="svg190976"
   version="1.1"
   inkscape:version="0.91 r13725"
   sodipodi:docname="brand-colored.svg">
  <defs
     id="defs190978">
    <clipPath
       id="SVGID_23_">
      <path
         inkscape:connector-curvature="0"
         id="use46396"
         d="m 110.907,64.41 c -0.015,0 -0.03,0.002 -0.046,0.002 C 109.764,52.995 99.669,44.05 87.373,44.05 75.061,44.05 64.956,53.016 63.878,64.455 54.777,64.902 47.304,72.22 47.304,80.981 47.304,89.636 54.6,97 63.072,98 l 0,0 47.07,0 c 0,0 0.135,0 0.234,0 9.521,0 17.651,-7.967 17.651,-17.019 0,-9.052 -7.599,-16.571 -17.12,-16.571 z" />
    </clipPath>
    <clipPath
       id="SVGID_25_">
      <rect
         id="use46406"
         x="38.411999"
         y="42.772999"
         width="91.538002"
         height="55.143002" />
    </clipPath>
  </defs>
  <sodipodi:namedview
     id="base"
     pagecolor="#ffffff"
     bordercolor="#666666"
     borderopacity="1.0"
     inkscape:pageopacity="0.0"
     inkscape:pageshadow="2"
     inkscape:zoom="4.7118644"
     inkscape:cx="64"
     inkscape:cy="59"
     inkscape:document-units="px"
     inkscape:current-layer="layer1"
     showgrid="false"
     units="px"
     inkscape:window-width="1366"
     inkscape:window-height="744"
     inkscape:window-x="0"
     inkscape:window-y="24"
     inkscape:window-maximized="1" />
  <metadata
     id="metadata190981">
    <rdf:RDF>
      <cc:Work
         rdf:about="">
        <dc:format>image/svg+xml</dc:format>
        <dc:type
           rdf:resource="http://purl.org/dc/dcmitype/StillImage" />
        <dc:title />
      </cc:Work>
    </rdf:RDF>
  </metadata>
  <g
     inkscape:label="Layer 1"
     inkscape:groupmode="layer"
     id="layer1"
     transform="translate(0,-934.36214)">
    <g
       id="g4165"
       transform="translate(0.0586775,13.94578)">
      <path
         style="clip-rule:evenodd;fill:#ffa000;fill-opacity:1;fill-rule:evenodd"
         inkscape:connector-curvature="0"
         d="m 97.635721,970.37014 c -0.02175,0 -0.04349,0.003 -0.06524,0.003 -1.593345,-16.55253 -16.227768,-29.52112 -34.054681,-29.52112 -17.84866,0 -32.49903,12.99904 -34.06193,29.58201 -13.196207,0.64807 -24.029217,10.71562 -24.029217,23.41744 0,12.54813 10.576393,24.12923 22.859217,24.12923 l 0,0 68.244195,0 c 0,0 0.197175,0 0.337807,0 13.803678,0 25.592118,-11.0055 25.592118,-24.12923 0,-13.12372 -11.01569,-23.48123 -24.822267,-23.48123 z"
         id="path46336" />
      <g
         transform="matrix(1.449814,0,0,1.449814,-62.796419,877.34862)"
         id="g46338">
        <path
           style="fill:#ffffff"
           inkscape:connector-curvature="0"
           d="m 64.129,78.461 0.949,0 0,1.409 -0.949,0 0,-1.409 z m 0,2.562 0.949,0 0,6.665 -0.949,0 0,-6.665 z"
           id="path46340" />
        <path
           style="fill:#ffffff"
           inkscape:connector-curvature="0"
           d="m 73.292,86.355 -0.024,0 c -0.256,0.564 -1.104,1.538 -2.717,1.538 -2.73,0 -3.627,-1.909 -3.627,-3.537 0,-1.858 1.139,-3.537 3.627,-3.537 1.268,0 2.281,0.692 2.717,1.537 l 0.024,0 0,-3.896 0.948,0 0,9.228 -0.948,0 0,-1.333 z m -2.741,-4.742 c -1.5,0 -2.68,1.051 -2.68,2.743 0,1.333 0.744,2.743 2.68,2.743 1.575,0 2.793,-1 2.793,-2.743 0,-1.371 -0.858,-2.743 -2.793,-2.743 z"
           id="path46342" />
        <path
           style="fill:#ffffff"
           inkscape:connector-curvature="0"
           d="m 83.329,85.562 c -0.385,1.178 -1.385,2.332 -3.589,2.332 -2.73,0 -3.627,-1.909 -3.627,-3.537 0,-1.858 1.141,-3.537 3.627,-3.537 1.717,0 3.756,0.743 3.756,3.769 l -6.434,0 c 0,1.384 0.984,2.512 2.678,2.512 1.59,0 2.307,-0.526 2.641,-1.538 l 0.948,0 z m -0.782,-1.693 c -0.27,-1.641 -1.475,-2.256 -2.743,-2.256 -1.218,0 -2.523,0.628 -2.741,2.256 l 5.484,0 z"
           id="path46344" />
        <path
           style="fill:#ffffff"
           inkscape:connector-curvature="0"
           d="m 85.237,83.074 c 0.142,-1.396 0.897,-2.255 3.18,-2.255 2.229,0 3.05,0.692 3.05,1.974 l 0,3.486 c 0,0.551 0.154,0.743 0.525,0.743 0.168,0 0.332,-0.013 0.5,-0.026 l 0,0.641 c -0.191,0.039 -0.486,0.103 -0.793,0.103 -0.963,0 -1.016,-0.653 -1.026,-1.178 l -0.026,0 c -0.295,0.435 -0.934,1.332 -3.114,1.332 -1.141,0 -2.589,-0.5 -2.589,-1.999 0,-1.808 1.859,-2.012 3.319,-2.089 2.075,-0.115 2.332,-0.23 2.332,-0.885 0,-0.961 -0.64,-1.308 -2.204,-1.308 -1.5,0 -2.217,0.397 -2.281,1.461 l -0.873,0 z m 5.358,1.026 c -0.422,0.27 -1.063,0.321 -2.959,0.5 -1.103,0.104 -1.744,0.436 -1.744,1.23 0,1.038 0.897,1.346 1.923,1.346 1.281,0 2.78,-0.691 2.78,-2.063 l 0,-1.013 z"
           id="path46346" />
        <path
           style="fill:#ffffff"
           inkscape:connector-curvature="0"
           d="m 93.735,78.461 0.948,0 0,9.228 -0.948,0 0,-9.228 z"
           id="path46348" />
        <path
           style="fill:#ffffff"
           inkscape:connector-curvature="0"
           d="m 96.734,78.461 0.948,0 0,1.409 -0.948,0 0,-1.409 z m 0,2.562 0.948,0 0,6.665 -0.948,0 0,-6.665 z"
           id="path46350" />
        <path
           style="fill:#ffffff"
           inkscape:connector-curvature="0"
           d="m 99.286,86.894 5.062,-5.075 -4.768,0 0,-0.795 6.125,0 0,0.795 -5.164,5.075 5.357,0 0,0.795 -6.612,0 0,-0.795 z"
           id="path46352" />
        <path
           style="fill:#ffffff"
           inkscape:connector-curvature="0"
           d="m 114.512,85.562 c -0.385,1.178 -1.385,2.332 -3.59,2.332 -2.729,0 -3.627,-1.909 -3.627,-3.537 0,-1.858 1.142,-3.537 3.627,-3.537 1.718,0 3.755,0.743 3.755,3.769 l -6.434,0 c 0,1.384 0.987,2.512 2.679,2.512 1.59,0 2.309,-0.526 2.642,-1.538 l 0.948,0 z m -0.783,-1.693 c -0.27,-1.641 -1.473,-2.256 -2.742,-2.256 -1.217,0 -2.525,0.628 -2.743,2.256 l 5.485,0 z"
           id="path46354" />
      </g>
      <g
         id="g3409">
        <g
           id="g3405"
           transform="translate(-0.175425,0)">
          <path
             id="path46360"
             d="m 68.881333,978.03675 c 0,-0.35955 -0.242156,-0.65096 -0.540935,-0.65096 l -8.556184,0 c -0.298779,0 -0.540935,0.29141 -0.540935,0.65096 l 0,0.14788 c 0,0.35956 0.242156,0.65097 0.540935,0.65097 l 8.556184,0 c 0.298779,0 0.540935,-0.29141 0.540935,-0.65097 l 0,-0.14788 z"
             inkscape:connector-curvature="0"
             style="fill:#ffffff" />
          <rect
             id="rect46362"
             height="2.8996279"
             width="7.2490702"
             y="980.2854"
             x="60.437771"
             style="fill:#ffffff" />
        </g>
        <path
           style="fill:#ffffff"
           inkscape:connector-curvature="0"
           d="m 61.851342,983.96069 c 0.102937,0.51034 0.652416,0.67417 1.310632,0.67417 l 1.451264,0 c 0.661115,0 1.210594,-0.16383 1.309182,-0.67417 -0.817695,0.0928 -1.597695,0.10149 -2.035539,0.10149 -0.437844,0 -1.213494,-0.007 -2.035539,-0.10149 z"
           id="path46364" />
        <path
           style="fill:#ffffff"
           inkscape:connector-curvature="0"
           d="m 63.883979,960.73902 c -4.221858,0 -7.646319,3.42301 -7.646319,7.64777 0,1.88186 0.685762,3.67818 1.938401,5.08305 0.463941,0.52338 0.766952,1.08881 0.93658,1.76587 l 0.0174,0.0435 c 0.104386,0.41029 0.453792,0.65676 0.881487,0.65676 l 7.749256,0 c 0.426245,0 0.77565,-0.24647 0.880037,-0.65966 l 0.01885,-0.0566 c 0.172528,-0.67706 0.46974,-1.23524 0.93658,-1.75427 1.254089,-1.40632 1.939851,-3.19974 1.939851,-5.0816 -0.0014,-4.22476 -3.42736,-7.64487 -7.652118,-7.64487 z m 2.699554,8.92941 -1.204796,4.72929 c -0.03625,0.13628 -0.15223,0.21457 -0.271115,0.18413 -0.114535,-0.0305 -0.191376,-0.16383 -0.171078,-0.30447 l 0.407398,-3.20408 c 0.03334,-0.25517 0.0174,-0.50889 -0.05074,-0.72056 -0.201524,-0.64227 -2.616914,-0.64227 -2.816989,0 -0.06814,0.21167 -0.08699,0.46539 -0.05219,0.72056 l 0.410298,3.20408 c 0.01885,0.14209 -0.05944,0.27402 -0.173978,0.30592 -0.118885,0.0304 -0.23197,-0.0493 -0.268216,-0.18558 l -1.204795,-4.72929 c -0.426245,-1.68324 5.822453,-1.68324 5.396208,0 z"
           id="path46366" />
        <path
           style="fill:#ffffff"
           inkscape:connector-curvature="0"
           d="m 50.303571,975.11538 0.632119,1.10186 3.873903,-2.43714 c -0.163829,-0.25952 -0.317509,-0.52628 -0.459591,-0.79885 l -4.046431,2.13413 z"
           id="path46368" />
        <path
           style="fill:#ffffff"
           inkscape:connector-curvature="0"
           d="m 53.129259,968.00694 c 0,-0.15513 -0.585725,-0.31026 -0.578476,-0.46394 l -5.161338,-0.17543 0,1.27729 5.161338,-0.17253 c -0.0072,-0.15658 0.578476,-0.31026 0.578476,-0.46539 z"
           id="path46370" />
        <path
           style="fill:#ffffff"
           inkscape:connector-curvature="0"
           d="m 63.883979,957.25077 c 0.15513,0 0.31171,0.0304 0.46394,0.0348 l 0.175428,-4.54661 -1.277286,0 0.173977,4.54806 c 0.15513,-0.006 0.310261,-0.0362 0.463941,-0.0362 z"
           id="path46372" />
        <path
           style="fill:#ffffff"
           inkscape:connector-curvature="0"
           d="m 77.467286,960.89995 -0.635018,-1.10331 -3.871004,2.43569 c 0.165279,0.26242 0.31751,0.52773 0.461041,0.80175 l 4.044981,-2.13413 z"
           id="path46374" />
        <path
           style="fill:#ffffff"
           inkscape:connector-curvature="0"
           d="m 54.808143,962.23378 -3.873903,-2.43714 -0.632119,1.10331 4.042082,2.13413 c 0.143531,-0.27402 0.300111,-0.53933 0.46394,-0.8003 z"
           id="path46376" />
        <path
           style="fill:#ffffff"
           inkscape:connector-curvature="0"
           d="m 74.673495,967.543 c 0.0058,0.15368 -0.01305,0.30881 -0.01305,0.46394 0,0.15368 0.03045,0.30881 0.0232,0.46394 l 4.60171,0.17398 0,-1.27729 -4.611858,0.17543 z"
           id="path46378" />
        <path
           style="fill:#ffffff"
           inkscape:connector-curvature="0"
           d="m 72.961264,973.7801 3.872454,2.43714 0.635018,-1.10186 -4.043531,-2.13413 c -0.146431,0.27112 -0.298662,0.53933 -0.463941,0.79885 z"
           id="path46380" />
        <path
           style="fill:#ffffff"
           inkscape:connector-curvature="0"
           d="m 68.86119,958.46861 c 0.272565,0.14208 0.536432,0.29576 0.798848,0.46104 l 2.437137,-3.87245 -1.101858,-0.63357 -2.134127,4.04498 z"
           id="path46382" />
        <path
           style="fill:#ffffff"
           inkscape:connector-curvature="0"
           d="m 58.911117,958.46861 -2.135576,-4.04353 -1.101859,0.63357 2.440037,3.87245 c 0.256617,-0.16673 0.526283,-0.32041 0.797398,-0.46249 z"
           id="path46384" />
      </g>
      <path
         style="opacity:0.5;fill:#ff6f00;fill-opacity:1"
         inkscape:connector-curvature="0"
         d="m 29.124688,972.17805 c 8.848215,0 16.687359,4.32919 21.51524,10.98239 -4.014535,-7.46944 -11.898624,-12.54963 -20.974459,-12.54963 -6.94026,0 -13.187509,2.97501 -17.536951,7.7145 4.60461,-3.83625 10.53,-6.14726 16.99617,-6.14726 z"
         id="path46386" />
      <path
         style="opacity:0.5;fill:#ff6f00;fill-opacity:1"
         inkscape:connector-curvature="0"
         d="m 97.821225,971.99683 c 8.849665,0 16.687355,4.32919 21.515235,10.98383 -4.01308,-7.46944 -11.89862,-12.55108 -20.974455,-12.55108 -6.938809,0 -13.187508,2.97502 -17.53695,7.71595 4.604609,-3.8377 10.529999,-6.1487 16.99617,-6.1487 z"
         id="path46388" />
    </g>
  </g>
</svg>
