<?xml version="1.0" encoding="utf-8"?>
<!-- Generator: Adobe Illustrator 15.1.0, SVG Export Plug-In . SVG Version: 6.00 Build 0)  -->
<!DOCTYPE svg PUBLIC "-//W3C//DTD SVG 1.1//EN" "http://www.w3.org/Graphics/SVG/1.1/DTD/svg11.dtd">
<svg version="1.1" id="Camada_1" xmlns="http://www.w3.org/2000/svg" xmlns:xlink="http://www.w3.org/1999/xlink" x="0px" y="0px"
	 width="1042.786px" height="518.477px" viewBox="0 0 1042.786 518.477" enable-background="new 0 0 1042.786 518.477"
	 xml:space="preserve">
<rect x="2360.557" y="0.178" fill="#002D44" width="1043" height="518"/>
<rect x="2443.363" y="-137.019" transform="matrix(0.7071 -0.7071 0.7071 0.7071 566.5151 1935.0603)" fill="#00A0EE" width="351.439" height="841.41"/>
<circle fill="#004467" cx="2592.557" cy="238.178" r="214.344"/>
<rect x="2537.866" y="-103.732" transform="matrix(-0.7071 -0.7071 0.7071 -0.7071 4201.3252 2374.1836)" fill="#E58073" width="109.009" height="841.409"/>
<rect x="2521.363" y="0.98" transform="matrix(-0.7071 -0.7071 0.7071 -0.7071 4306.0303 2626.9873)" fill="#138EBF" width="351.439" height="841.41"/>
<rect x="2959.363" y="-269.019" transform="matrix(0.7071 -0.7071 0.7071 0.7071 810.9863 2261.2654)" fill="#00A0EE" width="351.439" height="841.41"/>
<rect x="3098.158" y="-326.511" transform="matrix(0.7071 -0.7071 0.7071 0.7071 868.4854 2285.0874)" fill="#017DBB" width="188.829" height="841.41"/>
<rect x="2935.146" y="-294.171" transform="matrix(0.7071 -0.7071 0.7071 0.7071 708.6272 2144.1873)" fill="#017DBB" width="14.512" height="1021.867"/>
<rect x="972.371" y="-546.632" transform="matrix(-0.7071 -0.7071 0.7071 -0.7071 1998.0291 139.331)" fill="#E75F47" width="111" height="404.991"/>
<rect x="1447.557" y="-961.013" transform="matrix(0.7071 -0.7071 0.7071 0.7071 789.7827 918.0422)" fill="#E75F47" width="111" height="933.381"/>
<g>
	<rect x="1537.045" y="323.617" fill="#00A0EE" width="173.121" height="173.121"/>
	<rect x="1704.154" y="323.617" fill="#017DBB" width="173.121" height="173.121"/>
	<rect x="1850.826" y="323.617" fill="#004467" width="173.121" height="173.121"/>
	<rect x="2023.947" y="323.617" fill="#002D44" width="173.12" height="173.121"/>
</g>
<rect x="2974.921" y="-195.205" transform="matrix(0.7071 0.7071 -0.7071 0.7071 1087.9083 -2059.8386)" fill="#E58073" width="111" height="957.038"/>
<linearGradient id="SVGID_1_" gradientUnits="userSpaceOnUse" x1="1213.5566" y1="-47.8223" x2="1369.5566" y2="-47.8223" gradientTransform="matrix(-1.346898e-010 1 -1 -1.346898e-010 1243.7344 -1339.3789)">
	<stop  offset="0" style="stop-color:#000000;stop-opacity:0"/>
	<stop  offset="1" style="stop-color:#000000"/>
</linearGradient>
<rect x="1213.557" y="-125.822" fill="url(#SVGID_1_)" width="156" height="156"/>
<linearGradient id="SVGID_2_" gradientUnits="userSpaceOnUse" x1="3043.9209" y1="228.8145" x2="3073.1707" y2="258.0643">
	<stop  offset="0" style="stop-color:#000000;stop-opacity:0"/>
	<stop  offset="1" style="stop-color:#000000"/>
</linearGradient>
<polygon fill="url(#SVGID_2_)" points="2750.609,544.232 2734.436,528.057 3343.163,-80.672 3359.339,-64.497 "/>
<rect x="2986.283" y="-28.086" transform="matrix(-0.7071 -0.7071 0.7071 -0.7071 5207.5947 2962.3806)" fill="#004467" width="462.087" height="861.497"/>
<linearGradient id="SVGID_3_" gradientUnits="userSpaceOnUse" x1="977.5566" y1="1455.6777" x2="1119.6129" y2="1455.6777">
	<stop  offset="0" style="stop-color:#000000;stop-opacity:0"/>
	<stop  offset="1" style="stop-color:#000000"/>
</linearGradient>
<rect x="971.557" y="1263.178" fill="url(#SVGID_3_)" width="27" height="385"/>
<g>
	<defs>
		<rect id="SVGID_4_" x="-0.443" y="0.178" width="1043" height="518"/>
	</defs>
	<clipPath id="SVGID_5_">
		<use xlink:href="#SVGID_4_"  overflow="visible"/>
	</clipPath>
	<g clip-path="url(#SVGID_5_)">
		<rect x="-18.497" y="-10.285" fill="#00A0EE" width="1084.616" height="538.668"/>
		<circle fill="#017DBB" cx="234.312" cy="238.049" r="214.343"/>
		
			<rect x="179.889" y="-103.691" transform="matrix(-0.7071 -0.7071 0.7071 -0.7071 175.9342 706.9795)" fill="#E26D64" width="109" height="841.487"/>
		
			<rect x="163.118" y="0.853" transform="matrix(-0.7071 -0.7071 0.7071 -0.7071 280.345 959.2379)" fill="#004467" width="351.439" height="841.41"/>
		
			<linearGradient id="SVGID_6_" gradientUnits="userSpaceOnUse" x1="1222.5273" y1="389.1289" x2="1222.5273" y2="539.4189" gradientTransform="matrix(0.7071 -0.7071 0.7071 0.7071 -959.6165 826.1589)">
			<stop  offset="0" style="stop-color:#000000;stop-opacity:0"/>
			<stop  offset="1" style="stop-color:#000000"/>
		</linearGradient>
		<polygon fill="url(#SVGID_6_)" points="1.216,471.736 -28.482,442.038 385.175,28.381 414.874,58.079 		"/>
		
			<linearGradient id="SVGID_7_" gradientUnits="userSpaceOnUse" x1="1149.5254" y1="476.7979" x2="1149.5254" y2="351.3148" gradientTransform="matrix(0.7071 -0.7071 0.7071 0.7071 -959.6165 826.1589)">
			<stop  offset="0" style="stop-color:#000000;stop-opacity:0"/>
			<stop  offset="1" style="stop-color:#000000"/>
		</linearGradient>
		<polygon fill="url(#SVGID_7_)" points="-82.223,594.772 -65.959,611.036 450.936,94.142 434.672,77.878 		"/>
		
			<linearGradient id="SVGID_8_" gradientUnits="userSpaceOnUse" x1="1494.0264" y1="522.2969" x2="1636.0826" y2="522.2969" gradientTransform="matrix(0.7071 -0.7071 0.7071 0.7071 -959.6165 826.1589)">
			<stop  offset="0" style="stop-color:#000000;stop-opacity:0"/>
			<stop  offset="1" style="stop-color:#000000"/>
		</linearGradient>
		<polygon fill="url(#SVGID_8_)" points="617.105,260.312 598.014,279.403 325.778,7.167 344.87,-11.925 		"/>
		
			<rect x="601.117" y="-269.148" transform="matrix(0.7071 -0.7071 0.7071 0.7071 120.3628 593.6967)" fill="#00A0EE" width="351.439" height="841.41"/>
		<linearGradient id="SVGID_9_" gradientUnits="userSpaceOnUse" x1="588.2803" y1="16.9019" x2="765.3594" y2="-160.1772">
			<stop  offset="0" style="stop-color:#000000;stop-opacity:0"/>
			<stop  offset="1" style="stop-color:#000000"/>
		</linearGradient>
		<polygon fill="url(#SVGID_9_)" points="742.264,135.153 723.172,154.245 450.936,-117.99 470.028,-137.083 		"/>
		<linearGradient id="SVGID_10_" gradientUnits="userSpaceOnUse" x1="502.2808" y1="102.9019" x2="406.748" y2="198.4346">
			<stop  offset="0" style="stop-color:#000000;stop-opacity:0"/>
			<stop  offset="1" style="stop-color:#000000"/>
		</linearGradient>
		<polygon fill="url(#SVGID_10_)" points="627.713,249.705 646.805,230.613 374.568,-41.623 355.477,-22.531 		"/>
		
			<rect x="739.913" y="-326.64" transform="matrix(0.7071 -0.7071 0.7071 0.7071 177.8584 617.5146)" fill="#017DBB" width="188.829" height="841.411"/>
		
			<rect x="576.901" y="-294.298" transform="matrix(0.7071 -0.7071 0.7071 0.7071 17.9241 476.5392)" fill="#017DBB" width="14.512" height="1021.866"/>
		
			<rect x="616.76" y="-194.854" transform="matrix(0.7071 0.7071 -0.7071 0.7071 397.4705 -392.2825)" fill="#E26D64" width="111" height="957"/>
		
			<linearGradient id="SVGID_11_" gradientUnits="userSpaceOnUse" x1="1585.7324" y1="720.7979" x2="1585.7324" y2="808.6628" gradientTransform="matrix(0.7071 -0.7071 0.4551 0.4551 -768.8929 1016.8821)">
			<stop  offset="0" style="stop-color:#000000;stop-opacity:0"/>
			<stop  offset="1" style="stop-color:#000000"/>
		</linearGradient>
		<polygon opacity="0.5" fill="url(#SVGID_11_)" points="392.537,544.277 373.424,525.163 981.951,-83.364 1001.064,-64.251 		"/>
		<linearGradient id="SVGID_12_" gradientUnits="userSpaceOnUse" x1="563.4453" y1="270.29" x2="744.0291" y2="450.8738">
			<stop  offset="0" style="stop-color:#000000;stop-opacity:0"/>
			<stop  offset="1" style="stop-color:#000000"/>
		</linearGradient>
		<polygon fill="url(#SVGID_12_)" points="294.665,582.752 264.967,553.054 846.208,-28.188 875.907,1.511 		"/>
		
			<rect x="628.038" y="-28.214" transform="matrix(-0.7071 -0.7071 0.7071 -0.7071 1181.908 1294.6316)" fill="#00A0EE" width="462.087" height="861.496"/>
	</g>
</g>
</svg>
