<?xml version="1.0" encoding="UTF-8" standalone="no"?>
<!-- Generator: Adobe Illustrator 15.1.0, SVG Export Plug-In  -->

<svg
   xmlns:dc="http://purl.org/dc/elements/1.1/"
   xmlns:cc="http://creativecommons.org/ns#"
   xmlns:rdf="http://www.w3.org/1999/02/22-rdf-syntax-ns#"
   xmlns:svg="http://www.w3.org/2000/svg"
   xmlns="http://www.w3.org/2000/svg"
   xmlns:sodipodi="http://sodipodi.sourceforge.net/DTD/sodipodi-0.dtd"
   xmlns:inkscape="http://www.inkscape.org/namespaces/inkscape"
   version="1.1"
   x="0px"
   y="0px"
   width="168"
   height="168"
   viewBox="0 0 168 168"
   enable-background="new 0 0 160 109"
   xml:space="preserve"
   id="svg2"
   inkscape:version="0.91 r13725"
   sodipodi:docname="contribuicao-maos.svg"><metadata
     id="metadata26"><rdf:RDF><cc:Work
         rdf:about=""><dc:format>image/svg+xml</dc:format><dc:type
           rdf:resource="http://purl.org/dc/dcmitype/StillImage" /><dc:title></dc:title></cc:Work></rdf:RDF></metadata><sodipodi:namedview
     pagecolor="#ffffff"
     bordercolor="#666666"
     borderopacity="1"
     objecttolerance="10"
     gridtolerance="10"
     guidetolerance="10"
     inkscape:pageopacity="0"
     inkscape:pageshadow="2"
     inkscape:window-width="1366"
     inkscape:window-height="744"
     id="namedview24"
     showgrid="false"
     inkscape:zoom="3.3095238"
     inkscape:cx="84"
     inkscape:cy="84"
     inkscape:window-x="0"
     inkscape:window-y="24"
     inkscape:window-maximized="1"
     inkscape:current-layer="svg2" /><defs
     id="defs4" /><g
     id="g3354"
     transform="translate(3.8836336,-29.347739)"><path
       style="fill:#8575bc"
       inkscape:connector-curvature="0"
       id="path6"
       d="m 68.913,167.14 0,0 c -1.838,0 -3.573,-0.823 -4.642,-2.201 l -1.954,-2.513 c -0.956,-1.226 -1.378,-2.75 -1.186,-4.292 0.198,-1.544 0.978,-2.918 2.196,-3.873 l 11.383,-8.856 c 1.095,-0.854 2.49,-1.292 3.879,-1.218 1.686,0.087 3.249,0.902 4.289,2.236 l 1.954,2.517 c 0.962,1.227 1.384,2.754 1.184,4.296 -0.187,1.531 -0.968,2.909 -2.197,3.869 l -11.373,8.854 c -0.98,0.762 -2.235,1.181 -3.533,1.181 z m 9.363,-20.461 c -0.731,0 -1.451,0.249 -2.028,0.699 l -11.382,8.855 c -0.694,0.543 -1.141,1.332 -1.254,2.215 -0.109,0.873 0.132,1.742 0.678,2.442 l 1.957,2.517 c 0.599,0.772 1.595,1.233 2.666,1.233 0.746,0 1.456,-0.232 1.999,-0.654 l 11.37,-8.852 c 0.701,-0.548 1.147,-1.333 1.254,-2.21 0.114,-0.88 -0.125,-1.746 -0.674,-2.446 l -1.957,-2.52 c -0.592,-0.759 -1.484,-1.225 -2.447,-1.274 l -0.182,-0.005 z" /><path
       style="fill:#8575bc"
       inkscape:connector-curvature="0"
       id="path8"
       d="m 56.321,157.627 0,0 c -1.839,0 -3.574,-0.821 -4.643,-2.197 l -1.959,-2.516 c -0.95,-1.228 -1.371,-2.75 -1.187,-4.29 0.193,-1.541 0.976,-2.914 2.205,-3.875 l 11.375,-8.855 c 1.097,-0.854 2.484,-1.289 3.879,-1.221 1.684,0.088 3.247,0.902 4.292,2.232 l 1.958,2.518 c 0.954,1.226 1.373,2.751 1.181,4.296 -0.192,1.545 -0.974,2.921 -2.199,3.875 l -11.373,8.855 c -0.977,0.76 -2.23,1.178 -3.529,1.178 z m 9.37,-20.461 c -0.736,0 -1.462,0.249 -2.043,0.701 l -11.373,8.854 c -0.703,0.55 -1.151,1.334 -1.261,2.208 -0.104,0.877 0.137,1.75 0.68,2.453 l 1.958,2.515 c 0.599,0.771 1.597,1.231 2.669,1.231 0.745,0 1.453,-0.231 1.993,-0.651 l 11.374,-8.855 c 0.698,-0.543 1.144,-1.328 1.254,-2.21 0.109,-0.882 -0.129,-1.753 -0.673,-2.452 l -1.955,-2.514 c -0.596,-0.758 -1.49,-1.225 -2.452,-1.275 l -0.171,-0.005 z" /><path
       style="fill:#8575bc"
       inkscape:connector-curvature="0"
       id="path10"
       d="m 44.141,147.484 0,0 c -1.836,0 -3.57,-0.821 -4.64,-2.195 l -1.961,-2.513 c -1.965,-2.537 -1.506,-6.2 1.021,-8.171 l 11.374,-8.853 c 1.092,-0.854 2.489,-1.293 3.881,-1.219 1.688,0.088 3.251,0.903 4.287,2.237 l 1.958,2.51 c 1.971,2.534 1.515,6.199 -1.016,8.17 l -11.38,8.854 c -0.974,0.761 -2.227,1.18 -3.524,1.18 z m 9.365,-20.459 c -0.735,0 -1.457,0.248 -2.032,0.698 l -11.376,8.854 c -1.442,1.125 -1.705,3.218 -0.584,4.664 l 1.959,2.511 c 0.601,0.772 1.598,1.232 2.668,1.232 l 0,0 c 0.744,0 1.45,-0.231 1.989,-0.652 l 11.38,-8.854 c 1.443,-1.125 1.704,-3.217 0.579,-4.663 l -1.957,-2.51 c -0.592,-0.761 -1.483,-1.226 -2.447,-1.276 l -0.179,-0.004 z" /><path
       style="fill:#8575bc"
       inkscape:connector-curvature="0"
       id="path12"
       d="m 35.911,134.601 c -1.837,0 -3.572,-0.821 -4.644,-2.197 l -1.958,-2.511 c -1.161,-1.491 -1.521,-3.467 -0.964,-5.287 0.107,-0.348 0.247,-0.687 0.416,-1.011 0.004,-0.009 0.009,-0.018 0.013,-0.026 0.205,-0.382 0.431,-0.713 0.687,-1.016 0.256,-0.305 0.547,-0.584 0.863,-0.831 l 11.375,-8.854 c 1.098,-0.856 2.502,-1.298 3.884,-1.22 1.681,0.084 3.245,0.899 4.288,2.237 l 1.957,2.515 c 0.954,1.225 1.373,2.75 1.181,4.294 -0.193,1.544 -0.975,2.919 -2.201,3.873 l -11.374,8.857 c -0.975,0.759 -2.226,1.177 -3.523,1.177 z m -4.923,-9.869 0,0 c -0.104,0.195 -0.188,0.4 -0.253,0.608 -0.318,1.04 -0.114,2.168 0.546,3.017 l 1.958,2.511 c 0.603,0.773 1.601,1.234 2.672,1.234 0.743,0 1.448,-0.231 1.987,-0.65 l 11.375,-8.857 c 0.699,-0.543 1.145,-1.328 1.254,-2.209 0.11,-0.881 -0.128,-1.751 -0.672,-2.449 l -1.956,-2.514 c -0.596,-0.763 -1.487,-1.229 -2.445,-1.277 l -0.181,-0.005 c -0.734,0 -1.458,0.249 -2.039,0.701 l -11.374,8.852 c -0.178,0.139 -0.344,0.298 -0.489,0.472 -0.138,0.163 -0.259,0.339 -0.361,0.524 -0.007,0.014 -0.014,0.028 -0.022,0.042 z" /><path
       style="fill:#8575bc"
       inkscape:connector-curvature="0"
       id="path14"
       d="m 141.154,122.66 c -0.102,0 -0.213,-0.002 -0.343,-0.01 -1.687,-0.089 -5.058,-0.802 -8.663,-4.567 -1.867,-1.95 -4.447,-5.153 -7.435,-8.861 l -0.115,-0.143 c -3.649,-4.534 -7.722,-9.593 -11.544,-13.696 l -1.48,-1.601 C 106.412,88.197 99.343,80.55 94.894,80.318 c -0.9,-0.054 -1.649,0.214 -2.271,0.801 -5.015,4.725 -11.013,9.779 -18.754,9.936 l -0.386,0.004 c -5.566,0 -9.673,-2.516 -11.074,-4.206 -0.295,-0.357 -0.777,-1.045 -0.735,-1.669 0.026,-0.396 0.238,-0.755 0.572,-0.969 1.126,-0.722 3.722,-3.231 7.008,-6.408 l 0.32,-0.31 c 2.294,-2.216 4.895,-4.728 7.613,-7.234 6.692,-6.175 9.584,-6.568 12.933,-7.023 l 0.371,-0.048 c 0.186,-0.026 0.41,-0.041 0.658,-0.041 2.961,0 9.596,2.188 16.012,4.304 l 0.72,0.237 c 2.933,0.969 5.621,1.857 7.898,2.53 5.258,1.556 12.771,2.218 18.146,2.499 3.632,0.189 6.472,0.216 7.255,0.22 0.522,0.002 0.988,0.33 1.168,0.82 6.033,16.488 1.12,42.792 0.074,47.898 -0.118,0.577 -0.623,0.993 -1.211,0.999 -0.003,0.002 -0.053,0.002 -0.057,0.002 z M 94.693,77.813 c 0.109,0 0.22,0.003 0.331,0.008 5.464,0.285 12.328,7.711 18.385,14.263 l 1.478,1.597 c 3.881,4.167 7.983,9.262 11.602,13.758 l 0.173,0.214 c 2.951,3.664 5.5,6.828 7.292,8.7 2.516,2.626 4.789,3.468 6.238,3.715 1.311,-6.768 5.129,-29.684 0.096,-44.635 -1.306,-0.018 -3.663,-0.068 -6.49,-0.215 -5.512,-0.289 -13.233,-0.974 -18.726,-2.599 -2.315,-0.684 -5.021,-1.579 -7.887,-2.525 l -0.806,-0.266 c -5.645,-1.86 -12.669,-4.177 -15.229,-4.177 -0.12,0 -0.229,0.005 -0.325,0.018 l -0.375,0.049 c -3.162,0.43 -5.453,0.741 -11.566,6.383 -2.698,2.488 -5.287,4.989 -7.571,7.195 l -0.32,0.309 c -2.858,2.763 -4.957,4.792 -6.374,5.954 1.199,1.139 4.433,3.001 8.866,3.001 l 0.334,-0.003 c 6.854,-0.14 12.415,-4.851 17.09,-9.256 1.045,-0.987 2.319,-1.488 3.784,-1.488 z" /><path
       style="fill:#8575bc"
       inkscape:connector-curvature="0"
       id="path16"
       d="m 155.77,126.637 -15.934,0 c -0.374,0 -0.729,-0.167 -0.966,-0.457 -0.237,-0.29 -0.333,-0.669 -0.261,-1.036 1.154,-5.835 6.577,-35.882 0.009,-54.431 -0.135,-0.382 -0.076,-0.807 0.158,-1.139 0.234,-0.331 0.614,-0.528 1.021,-0.528 l 15.935,0 c 0.529,0 1.002,0.333 1.179,0.833 6.789,19.174 1.263,49.805 0.086,55.75 -0.117,0.586 -0.631,1.008 -1.227,1.008 z m -14.422,-2.5 13.391,0 c 1.432,-7.573 5.927,-34.89 0.1,-52.591 l -13.312,0 c 5.52,17.917 1.34,44.394 -0.179,52.591 z" /><path
       style="fill:#8575bc"
       inkscape:connector-curvature="0"
       id="path18"
       d="m 41.945,71.261 -0.021,0.137 c -10e-4,0 -0.002,0 -0.002,0 l -0.739,1.564 -0.267,0.551 c 0.291,0.093 0.601,0.17 0.924,0.275 2.448,0.793 4.415,1.394 5.599,1.456 4.033,0.209 8.398,-0.402 12.934,-1.805 6.765,-2.092 12.977,-3.511 18.471,-4.216 0.108,0.011 0.217,0.006 0.325,-0.011 0.375,-0.061 0.759,-0.062 1.147,-0.034 0.994,-0.828 1.883,-1.498 2.691,-2.043 -0.313,-0.068 -0.625,-0.137 -0.938,-0.205 l -0.46,-0.1 c -0.822,-0.178 -1.646,-0.226 -2.451,-0.14 -0.134,-0.014 -0.264,-0.008 -0.394,0.019 -5.696,0.713 -12.132,2.171 -19.131,4.335 -4.252,1.315 -8.312,1.889 -12.065,1.691 -0.95,-0.049 -3.362,-0.786 -4.958,-1.304 -0.23,-0.075 -0.452,-0.102 -0.665,-0.17 z" /><path
       style="fill:#8575bc"
       inkscape:connector-curvature="0"
       id="path20"
       d="m 137.762,124.303 c -0.354,-1.149 -0.953,-2.76 -2.181,-4.901 -0.809,-0.562 -1.658,-1.273 -2.53,-2.183 -1.854,-1.936 -4.458,-5.174 -7.479,-8.924 -3.624,-4.502 -7.729,-9.605 -11.603,-13.764 l -1.479,-1.598 c -4.749,-5.138 -10.477,-11.321 -15.131,-13.25 0.16,0.171 0.322,0.346 0.487,0.523 1.169,1.256 2.495,2.68 3.259,3.73 0.075,0.104 0.167,0.196 0.271,0.272 3.615,2.657 7.778,7.163 11.125,10.785 l 1.487,1.604 c 3.782,4.061 7.835,9.095 11.462,13.6 2.127,2.643 3.895,4.83 5.417,6.613 3.001,4.011 4.008,6.616 4.505,8.229 0.534,1.733 -0.154,4.559 -1.635,6.716 -0.681,0.988 -2.234,2.646 -4.988,2.646 -0.332,0 -0.678,-0.024 -1.028,-0.073 -2.08,-0.285 -6.354,-3.332 -11.371,-8.089 -3.396,-3.705 -7.391,-7.624 -7.415,-7.647 -0.796,-0.774 -2.155,-0.79 -2.975,-0.015 -0.842,0.804 -0.894,2.111 -0.117,2.978 0.352,0.396 3.544,3.967 7.354,7.585 0.512,0.551 1.002,1.101 1.464,1.624 0.943,1.077 1.912,2.118 2.885,3.163 5.485,5.865 7.643,8.789 5.276,12.175 -1.326,1.9 -3.955,3.92 -6.217,3.92 -0.064,0 -0.128,-0.002 -0.196,-0.005 -0.354,-0.018 -0.697,-0.092 -1.016,-0.219 -1.979,-0.802 -11.676,-9.853 -19.91,-18.145 -0.806,-0.802 -2.189,-0.821 -3.028,-0.008 -0.831,0.822 -0.843,2.178 -0.005,3.044 0.088,0.087 9.369,9.483 14.076,15.529 1.137,1.465 1.337,2.923 0.594,4.34 -0.977,1.881 -3.509,3.412 -5.646,3.412 -0.071,0 -0.143,-0.001 -0.21,-0.005 -0.252,-0.014 -0.485,-0.05 -0.671,-0.097 -1.006,-0.402 -5.8,-4.934 -9.301,-8.243 -3.191,-3.017 -6.492,-6.136 -8.84,-8.087 -0.399,-0.377 -0.896,-0.584 -1.403,-0.584 -0.728,0 -1.374,0.426 -1.647,1.084 -0.295,0.713 -0.093,1.543 0.572,2.207 0.115,0.104 0.235,0.216 0.359,0.333 -0.608,-0.234 -1.181,-0.362 -1.744,-0.39 -1.389,-0.073 -2.784,0.364 -3.879,1.218 l -11.383,8.856 c -0.48,0.376 -0.893,0.821 -1.229,1.323 -0.169,-0.161 -0.338,-0.325 -0.508,-0.492 l 9.632,-7.499 c 1.226,-0.953 2.007,-2.329 2.199,-3.875 0.192,-1.544 -0.227,-3.07 -1.181,-4.296 l -1.958,-2.518 c -1.045,-1.331 -2.608,-2.144 -4.292,-2.232 -1.395,-0.067 -2.782,0.367 -3.879,1.221 l -10.215,7.951 c -0.132,-0.152 -0.26,-0.299 -0.386,-0.44 -0.016,-0.019 -0.032,-0.037 -0.049,-0.055 l 7.582,-5.9 c 2.53,-1.971 2.986,-5.636 1.016,-8.17 l -1.958,-2.51 c -1.036,-1.333 -2.6,-2.149 -4.287,-2.237 -1.392,-0.074 -2.789,0.365 -3.881,1.219 l -10.272,7.998 c -0.094,-0.097 -0.185,-0.193 -0.274,-0.29 0.016,-0.012 0.031,-0.024 0.047,-0.036 l 11.374,-8.857 c 1.227,-0.953 2.008,-2.328 2.201,-3.873 0.192,-1.544 -0.227,-3.069 -1.181,-4.294 l -1.957,-2.515 c -1.043,-1.337 -2.607,-2.153 -4.288,-2.237 -1.395,-0.079 -2.786,0.364 -3.884,1.22 l -11.375,8.854 c -0.067,0.053 -0.134,0.106 -0.198,0.162 -0.061,-0.096 -0.118,-0.193 -0.173,-0.292 -0.052,-0.094 -0.095,-0.188 -0.175,-0.356 -0.071,-0.148 -0.17,-0.282 -0.293,-0.392 -1.21,-1.089 -3.208,-2.52 -4.972,-3.782 -0.877,-0.627 -1.712,-1.227 -2.356,-1.716 l -1.048,2.339 c 0.575,0.425 1.237,0.9 1.949,1.409 1.619,1.16 3.443,2.465 4.572,3.446 0.043,0.088 0.087,0.176 0.136,0.264 0.359,0.648 0.805,1.25 1.4,1.893 0.107,0.116 0.237,0.202 0.376,0.269 0.088,-0.283 0.202,-0.558 0.342,-0.821 0.004,-0.006 0.005,-0.012 0.008,-0.018 0.146,-0.271 0.319,-0.527 0.522,-0.768 0.199,-0.236 0.425,-0.455 0.678,-0.652 l 11.374,-8.854 c 0.869,-0.677 1.953,-1.017 3.05,-0.958 1.323,0.066 2.551,0.709 3.369,1.758 l 1.956,2.514 c 1.548,1.988 1.189,4.865 -0.801,6.412 l -11.375,8.857 c -0.708,0.551 -1.566,0.844 -2.442,0.9 0.04,0.185 0.12,0.362 0.241,0.514 l 0.197,0.252 c 0.174,0.223 0.348,0.446 0.537,0.662 0.44,0.502 0.918,0.989 1.448,1.483 0.201,-0.238 0.428,-0.46 0.683,-0.659 l 11.373,-8.853 c 0.865,-0.677 1.949,-1.016 3.047,-0.957 1.325,0.069 2.555,0.711 3.367,1.756 l 1.959,2.512 c 1.546,1.988 1.187,4.869 -0.799,6.416 l -9.675,7.528 c 0.036,0.046 0.069,0.093 0.112,0.135 l 0.108,0.105 c 0.279,0.27 0.56,0.539 0.821,0.834 0.349,0.392 0.721,0.83 1.113,1.302 0.016,0.019 0.038,0.026 0.055,0.044 0.207,-0.246 0.436,-0.476 0.695,-0.679 l 11.373,-8.854 c 0.868,-0.676 1.95,-1.016 3.047,-0.959 1.326,0.069 2.553,0.711 3.373,1.756 l 1.955,2.514 c 1.548,1.989 1.189,4.869 -0.8,6.416 l -11.374,8.855 c -0.114,0.089 -0.243,0.149 -0.364,0.225 0.035,0.049 0.052,0.107 0.094,0.151 0.968,1.006 1.938,1.935 2.881,2.76 0.189,0.166 0.422,0.258 0.664,0.29 -10e-4,-0.199 -0.01,-0.397 0.016,-0.599 0.155,-1.211 0.767,-2.291 1.727,-3.043 l 11.38,-8.854 c 0.865,-0.676 1.947,-1.017 3.044,-0.957 1.299,0.067 2.499,0.688 3.315,1.699 -0.058,-0.09 -0.112,-0.171 -0.157,-0.237 -0.29,-0.427 -0.464,-0.705 -0.435,-0.972 0.019,-0.176 0,-0.348 -0.051,-0.509 4.104,4.1 11.275,12.549 11.554,14.191 0.012,0.758 -1.069,2.603 -2.697,4.14 -1.28,1.205 -2.062,1.452 -2.842,1.452 l -0.174,-0.004 c -1.649,-0.086 -4.184,-1.325 -8.162,-3.977 l -0.172,-0.128 0.716,-0.558 c 0.238,-0.185 0.4,-0.45 0.459,-0.745 l 0.278,-1.412 -4.496,3.5 c 0.068,0.087 0.145,0.168 0.234,0.236 l 1.538,1.148 c 4.548,3.034 7.293,4.318 9.477,4.432 0.102,0.005 0.202,0.008 0.302,0.008 1.605,0 2.968,-0.638 4.557,-2.132 1.625,-1.535 3.513,-4.026 3.482,-6.002 -0.022,-1.188 -1.688,-3.676 -3.856,-6.409 5.071,4.771 7.379,6.807 8.52,7.115 0.391,0.103 0.801,0.167 1.222,0.189 3.14,0.151 6.745,-1.938 8.202,-4.747 0.696,-1.326 1.514,-4.003 -0.836,-7.031 -1.154,-1.482 -2.56,-3.144 -4.033,-4.817 4.196,3.924 8.384,7.599 9.995,8.252 0.582,0.231 1.195,0.364 1.82,0.395 3.365,0.187 6.857,-2.499 8.59,-4.98 3.754,-5.372 -0.481,-9.947 -5.444,-15.254 2.875,2.317 5.816,4.234 7.952,4.527 0.463,0.064 0.924,0.096 1.37,0.096 4.042,0 6.274,-2.606 7.048,-3.729 1.615,-2.348 2.848,-6.002 1.965,-8.866 z" /><path
       style="fill:#8575bc"
       inkscape:connector-curvature="0"
       id="path22"
       d="m 19.326,122.916 c -0.176,0 -0.352,-0.037 -0.515,-0.111 L 0.735,114.643 c -0.627,-0.283 -0.907,-1.02 -0.627,-1.648 L 23.837,59.741 c 0.275,-0.617 0.99,-0.904 1.615,-0.648 l 18.471,7.563 c 0.313,0.128 0.562,0.378 0.687,0.692 0.126,0.314 0.119,0.666 -0.02,0.975 l -1.525,3.407 c -0.01,0.022 -0.021,0.044 -0.031,0.066 l -22.566,50.38 c -0.136,0.303 -0.387,0.54 -0.697,0.657 -0.144,0.056 -0.294,0.083 -0.445,0.083 z m -16.428,-10.04 15.8,7.134 22.082,-49.302 c 0.011,-0.023 0.021,-0.045 0.033,-0.067 l 0.968,-2.162 -16.154,-6.613 -22.729,51.01 z" /></g></svg>