<?xml version="1.0" encoding="UTF-8" standalone="no"?>
<!-- Generator: Adobe Illustrator 15.1.0, SVG Export Plug-In  -->

<svg
   xmlns:dc="http://purl.org/dc/elements/1.1/"
   xmlns:cc="http://creativecommons.org/ns#"
   xmlns:rdf="http://www.w3.org/1999/02/22-rdf-syntax-ns#"
   xmlns:svg="http://www.w3.org/2000/svg"
   xmlns="http://www.w3.org/2000/svg"
   xmlns:sodipodi="http://sodipodi.sourceforge.net/DTD/sodipodi-0.dtd"
   xmlns:inkscape="http://www.inkscape.org/namespaces/inkscape"
   version="1.1"
   x="0px"
   y="0px"
   width="168"
   height="168"
   viewBox="0 0 168 168"
   enable-background="new 0 0 168 140"
   xml:space="preserve"
   id="svg2"
   inkscape:version="0.91 r13725"
   sodipodi:docname="contribuicao-folha.svg"><metadata
     id="metadata20"><rdf:RDF><cc:Work
         rdf:about=""><dc:format>image/svg+xml</dc:format><dc:type
           rdf:resource="http://purl.org/dc/dcmitype/StillImage" /><dc:title></dc:title></cc:Work></rdf:RDF></metadata><sodipodi:namedview
     pagecolor="#ffffff"
     bordercolor="#666666"
     borderopacity="1"
     objecttolerance="10"
     gridtolerance="10"
     guidetolerance="10"
     inkscape:pageopacity="0"
     inkscape:pageshadow="2"
     inkscape:window-width="725"
     inkscape:window-height="480"
     id="namedview18"
     showgrid="false"
     inkscape:zoom="1.6857143"
     inkscape:cx="63.830508"
     inkscape:cy="93.728814"
     inkscape:window-x="601"
     inkscape:window-y="148"
     inkscape:window-maximized="0"
     inkscape:current-layer="svg2" /><defs
     id="defs4" /><g
     id="g4148"
     transform="translate(-0.12808903,-14.210377)"><path
       style="fill:#8575bc"
       inkscape:connector-curvature="0"
       id="path6"
       d="m 164.304,106.034 -15.709,0 c -0.69,0 -1.25,-0.56 -1.25,-1.25 l 0,-9.334 c 0,-0.69 0.56,-1.25 1.25,-1.25 l 15.709,0 c 0.69,0 1.25,0.56 1.25,1.25 l 0,9.334 c 0,0.691 -0.56,1.25 -1.25,1.25 z m -14.459,-2.5 13.209,0 0,-6.834 -13.209,0 0,6.834 z" /><path
       style="fill:#8575bc"
       inkscape:connector-curvature="0"
       id="path8"
       d="m 164.304,123.034 -15.709,0 c -0.69,0 -1.25,-0.56 -1.25,-1.25 l 0,-9.334 c 0,-0.69 0.56,-1.25 1.25,-1.25 l 15.709,0 c 0.69,0 1.25,0.56 1.25,1.25 l 0,9.334 c 0,0.691 -0.56,1.25 -1.25,1.25 z m -14.459,-2.5 13.209,0 0,-6.834 -13.209,0 0,6.834 z" /><path
       style="fill:#8575bc"
       inkscape:connector-curvature="0"
       id="path10"
       d="m 167.433,28.097 c -0.488,-0.205 -1.053,-0.079 -1.409,0.313 -0.152,0.167 -16.133,16.859 -101.662,32.24 -25.095,4.515 -41.692,27.371 -37.785,52.035 0.409,2.581 1.044,5.154 1.889,7.649 0.119,0.35 0.417,0.612 0.761,0.747 0.343,0.134 0.759,0.093 1.084,-0.084 l 0.176,-0.094 c 5.934,-3.167 11.827,-5.655 16.294,-7.467 9.532,-3.835 19.786,-7.42 33.255,-11.626 l 0.399,-0.125 c 0.223,-0.069 0.445,-0.138 0.694,-0.222 l 3.072,-1.131 c 1.364,-0.512 2.72,-1.036 4.073,-1.57 2.703,-1.064 5.419,-2.193 8.072,-3.354 0.926,-0.405 1.847,-0.814 2.76,-1.229 -0.892,0.46 -1.79,0.916 -2.694,1.367 -2.522,1.26 -5.181,2.525 -7.903,3.763 -1.329,0.604 -2.664,1.197 -3.997,1.778 l -3.042,1.3 c -0.24,0.105 -0.471,0.216 -0.703,0.328 l -0.326,0.155 c -12.463,5.958 -22.3,11.076 -30.958,16.105 -5.88,3.431 -10.453,6.379 -14.397,9.281 -0.429,0.319 -0.853,0.637 -1.273,0.962 -0.024,0.019 -0.048,0.039 -0.071,0.059 -3.044,2.124 -6.002,4.293 -8.794,6.45 -5.22,4.054 -9.413,7.705 -13.198,11.492 -2.407,2.419 -4.354,4.602 -6.129,6.872 -1.116,1.434 -2.023,2.725 -2.857,4.066 -0.539,0.873 -0.967,1.635 -1.347,2.394 -0.224,0.443 -0.444,0.908 -0.657,1.42 -0.114,0.269 -0.226,0.548 -0.332,0.854 -0.052,0.143 -0.103,0.297 -0.184,0.542 -0.063,0.208 -0.119,0.396 -0.213,0.804 -0.075,0.328 -0.014,0.673 0.168,0.956 0.183,0.283 0.472,0.48 0.801,0.548 l 13.365,2.721 c 0.084,0.017 0.168,0.025 0.25,0.025 0.567,0 1.079,-0.388 1.215,-0.961 0.03,-0.127 0.079,-0.284 0.139,-0.457 0.13,-0.385 0.311,-0.833 0.524,-1.298 0.415,-0.91 0.947,-1.908 1.584,-2.968 1.143,-1.91 2.536,-3.914 4.257,-6.125 2.884,-3.699 6.352,-7.549 10.598,-11.768 2.082,-2.058 4.27,-4.125 6.666,-6.294 8.154,8.389 18.871,13.176 29.584,13.176 3.208,0 6.423,-0.422 9.558,-1.254 19.139,-5.083 34.115,-14.233 45.812,-25.026 -0.672,-0.508 -1.317,-1.048 -1.924,-1.63 -11.403,10.459 -25.968,19.311 -44.529,24.24 -2.925,0.776 -5.925,1.17 -8.916,1.17 -10.394,0 -20.817,-4.836 -28.596,-13.268 -0.464,-0.502 -1.245,-0.54 -1.753,-0.083 -2.784,2.497 -5.289,4.849 -7.66,7.194 -4.324,4.296 -7.86,8.223 -10.811,12.007 -1.785,2.293 -3.234,4.38 -4.429,6.376 -0.684,1.14 -1.26,2.222 -1.713,3.214 -0.167,0.363 -0.318,0.723 -0.446,1.059 L 2.842,163.499 c 0.073,-0.2 0.147,-0.381 0.223,-0.56 0.191,-0.457 0.385,-0.868 0.585,-1.264 0.348,-0.696 0.743,-1.396 1.24,-2.202 0.784,-1.261 1.644,-2.484 2.702,-3.845 1.711,-2.187 3.596,-4.299 5.929,-6.644 3.708,-3.71 7.826,-7.295 12.958,-11.281 2.796,-2.16 5.763,-4.334 8.817,-6.462 0.06,-0.042 0.115,-0.088 0.165,-0.137 0.368,-0.283 0.738,-0.561 1.11,-0.837 3.867,-2.846 8.37,-5.748 14.169,-9.132 8.597,-4.994 18.377,-10.081 30.771,-16.007 l 0.338,-0.162 c 0.206,-0.099 0.411,-0.198 0.61,-0.286 l 3.042,-1.299 c 1.353,-0.59 2.7,-1.187 4.04,-1.797 2.75,-1.25 5.436,-2.529 7.985,-3.802 5.42,-2.705 10.633,-5.57 15.497,-8.515 1.604,-0.973 3.178,-1.958 4.679,-2.929 3.177,-2.054 2.826,-3.246 2.71,-3.638 -0.19,-0.646 -0.791,-1.063 -1.529,-1.063 -0.693,0 -1.641,0.354 -2.896,1.084 -1.647,0.956 -3.357,1.912 -5.083,2.841 -4.886,2.635 -10.121,5.176 -15.562,7.554 -2.625,1.149 -5.312,2.266 -7.986,3.319 -1.341,0.529 -2.685,1.048 -4.03,1.553 l -3.023,1.114 c -0.199,0.067 -0.404,0.13 -0.608,0.193 l -0.414,0.129 c -13.527,4.225 -23.839,7.83 -33.438,11.692 -4.264,1.729 -9.807,4.066 -15.46,7.013 -0.579,-1.918 -1.028,-3.875 -1.339,-5.836 -3.69,-23.307 12.017,-44.911 35.76,-49.183 69.869,-12.564 93.728,-25.949 100.633,-30.977 -0.773,7.285 -3.479,27.063 -12.673,48.364 -1.204,2.79 -2.943,5.673 -3.943,8.604 l 0,5.32 c 2,-4.424 4.445,-8.778 6.239,-12.933 11.713,-27.138 13.18,-51.92 13.195,-52.167 0.028,-0.529 -0.334,-1.019 -0.822,-1.224 z" /><path
       style="fill:#8575bc"
       inkscape:connector-curvature="0"
       id="path12"
       d="m 145.948,134.224 c -2.025,0 -3.695,-1.411 -3.879,-3.208 l -4.683,0 c -12.453,0 -22.584,-10.131 -22.584,-22.584 0,-12.453 10.131,-22.584 22.584,-22.584 l 4.683,0 c 0.184,-1.797 1.854,-3.208 3.879,-3.208 2.148,0 3.896,1.587 3.896,3.538 l 0,44.508 c 0.001,1.95 -1.747,3.538 -3.896,3.538 z m -8.561,-45.876 c -11.074,0 -20.084,9.01 -20.084,20.084 0,11.074 9.01,20.084 20.084,20.084 l 5.916,0 c 0.69,0 1.25,0.56 1.25,1.25 l 0,0.92 c 0,0.563 0.639,1.038 1.396,1.038 0.757,0 1.396,-0.476 1.396,-1.038 l 0,-44.508 c 0,-0.563 -0.64,-1.038 -1.396,-1.038 -0.756,0 -1.396,0.476 -1.396,1.038 l 0,0.92 c 0,0.69 -0.56,1.25 -1.25,1.25 l -5.916,0 z" /><path
       style="fill:#8575bc"
       inkscape:connector-curvature="0"
       id="path14"
       d="m 124.162,133.094 -23.325,0 c -5.478,0 -10.017,-4.758 -10.017,-10.236 l 0,-2.482 c 0,-5.478 4.539,-10.281 10.017,-10.281 l 15.216,0 c 0.69,0 1.25,-0.31 1.25,-1 0,-0.69 -0.56,-1 -1.25,-1 l -15.216,0 c -6.856,0 -12.017,5.425 -12.017,12.281 l 0,2.482 c 0,6.856 5.16,12.236 12.017,12.236 l 23.325,0 c 5.478,0 9.658,4.655 9.658,10.133 l 0,5.256 c 0,5.478 -4.18,9.611 -9.658,9.611 l -39.751,0 c 0.093,1 0.148,1.069 0.148,1.5 0,0.431 -0.055,0.5 -0.148,1.5 l 39.751,0 c 6.856,0 12.658,-5.755 12.658,-12.611 l 0,-5.256 c 0,-6.857 -5.801,-12.133 -12.658,-12.133 z" /><path
       style="fill:#8575bc"
       inkscape:connector-curvature="0"
       id="path16"
       d="m 79.055,168.421 c -3.724,0 -6.754,-3.03 -6.754,-6.754 0,-3.724 3.03,-6.754 6.754,-6.754 3.724,0 6.754,3.03 6.754,6.754 0,3.724 -3.03,6.754 -6.754,6.754 z m 0,-11.008 c -2.346,0 -4.254,1.908 -4.254,4.254 0,2.346 1.908,4.254 4.254,4.254 2.346,0 4.254,-1.908 4.254,-4.254 0,-2.346 -1.909,-4.254 -4.254,-4.254 z" /></g></svg>