<?xml version="1.0" encoding="UTF-8" standalone="no"?>
<!-- Generator: Adobe Illustrator 15.1.0, SVG Export Plug-In  -->

<svg
   xmlns:dc="http://purl.org/dc/elements/1.1/"
   xmlns:cc="http://creativecommons.org/ns#"
   xmlns:rdf="http://www.w3.org/1999/02/22-rdf-syntax-ns#"
   xmlns:svg="http://www.w3.org/2000/svg"
   xmlns="http://www.w3.org/2000/svg"
   xmlns:sodipodi="http://sodipodi.sourceforge.net/DTD/sodipodi-0.dtd"
   xmlns:inkscape="http://www.inkscape.org/namespaces/inkscape"
   version="1.1"
   x="0px"
   y="0px"
   width="220"
   height="220"
   viewBox="-0.059 0.18 220 220"
   enable-background="new -0.059 0.18 217 191"
   xml:space="preserve"
   id="svg2"
   inkscape:version="0.91 r13725"
   sodipodi:docname="contribuicao-trofeu.svg"><metadata
     id="metadata28"><rdf:RDF><cc:Work
         rdf:about=""><dc:format>image/svg+xml</dc:format><dc:type
           rdf:resource="http://purl.org/dc/dcmitype/StillImage" /><dc:title></dc:title></cc:Work></rdf:RDF></metadata><sodipodi:namedview
     pagecolor="#ffffff"
     bordercolor="#666666"
     borderopacity="1"
     objecttolerance="10"
     gridtolerance="10"
     guidetolerance="10"
     inkscape:pageopacity="0"
     inkscape:pageshadow="2"
     inkscape:window-width="1366"
     inkscape:window-height="744"
     id="namedview26"
     showgrid="false"
     inkscape:zoom="2.7801047"
     inkscape:cx="46.811676"
     inkscape:cy="109.88795"
     inkscape:window-x="0"
     inkscape:window-y="24"
     inkscape:window-maximized="1"
     inkscape:current-layer="svg2" /><defs
     id="defs4" /><g
     id="g3390"
     transform="translate(-4.4962332,0)"><g
       transform="matrix(0.95717873,0,0,1,9.0543682,0)"
       id="g3378"><path
         d="m 151.13857,196.0395 -89.438999,0 c -0.69,0 -1.25,-0.56 -1.25,-1.25 0,-0.69 0.56,-1.25 1.25,-1.25 l 89.438999,0 c 0.69,0 1.25,0.56 1.25,1.25 0,0.69 -0.559,1.25 -1.25,1.25 z"
         id="path6"
         inkscape:connector-curvature="0"
         style="fill:#8575bc" /><path
         d="m 151.50857,180.3875 -33.063,-9.463 0,-39.309 c 17,-5.904 29.99,-21.643 38.926,-34.729 l -2.271,-0.905 c -11.273,16.374 -24.655,29.438 -38.655,33.844 l 0,42.982 35,9.982 0,12 0,8.391 -89.999999,0 0,-8.391 0,-12 35,-10.158 0,-42.807 c -16.792,-5.299 -33.011,-23.123 -45.359,-44.172 -13.046,-0.289 -25.296,-6.547 -34.182,-17.701 C 8.4815706,57.3795 4.4455706,43.4655 3.4455706,28.7095 l 0,-4.529 25.7210004,0 c -0.259,-2 -0.392,-4.545 -0.392,-6.814 0,-0.176 0.006,-0.186 0.007,-0.186 l 77.637999,0 77.639,0 c 0,0 0.006,0.01 0.006,0.186 0,2.27 -0.133,4.814 -0.391,6.814 l 25.772,0 0,4.529 c -1,6.64 -1.296,13.105 -3.124,19.177 l 2.213,0.879 c 1.929,-6.344 2.911,-13.101 2.911,-20.033 l 0,-4.188 c 0,-1.382 -1.113,-2.364 -2.494,-2.364 l -22.554,0 c 0.11,-2 0.166,-3.234 0.166,-4.725 0,-0.102 -0.001,-0.237 -0.003,-0.338 l -0.002,-0.331 c 0,-1.381 -1.119,-2.607 -2.5,-2.607 l -77.639,0 -77.637999,0 c -1.375,0 -2.492,1.201 -2.5,2.576 l -0.003,0.255 c -0.002,0.11 -0.004,0.311 -0.004,0.422 0,1.493 0.056,2.748 0.166,4.748 l -22.5540004,0 c -1.38,0 -2.441,0.982 -2.441,2.363 l 0,4.166 c 0,15.336 5.004,29.818 13.7540004,40.8 9.016,11.318 20.943,17.881 34.194,18.59 8.216,13.756 24.052,36.196 44.052,43.517 l 0,39.142 -32.575,9.633 c -1.066,0.312 -1.425,1.289 -1.425,2.399 l 0,12 0,8.535 c 0,1.381 0.873,2.855 2.254,2.855 l 89.438999,0 c 1.381,0 2.307,-1.475 2.307,-2.855 l 0,-8.535 0,-12 c 0,-1.115 -0.865,-2.095 -1.937,-2.403 z"
         id="path8"
         inkscape:connector-curvature="0"
         style="fill:#8575bc" /><path
         d="m 181.69657,36.5765 2.836,-1.419 c 0.269,-1.296 0.521,-2.977 0.738,-3.977 l 15.017,0 c -0.229,5 -0.982,9.376 -2.179,13.698 l 2.331,1.119 c 1.514,-5.343 2.363,-10.817 2.42,-16.817 l -19.718,0 c -0.37,2 -0.862,4.787 -1.445,7.396 z"
         id="path10"
         inkscape:connector-curvature="0"
         style="fill:#8575bc" /><path
         d="m 48.259571,81.1235 c -9.44,-17.314 -16.201,-36.943 -18.564,-51.943 l -19.7180004,0 c 0.2600004,27 16.9890004,49.566 38.2820004,51.943 z m -4.631,-3.922 c -17.213,-4.688 -29.988,-23.021 -31.079,-46.021 l 15.017,0 c 2.43,14 8.17,30.552 16.062,46.021 z"
         id="path12"
         inkscape:connector-curvature="0"
         style="fill:#8575bc" /></g><path
       style="fill:#8575bc"
       inkscape:connector-curvature="0"
       id="path14"
       d="m 217.19257,146.6665 -11.884,-53.018 -1.605,4.269 11.05,49.296 -19.821,-9.584 -13.833,17.127 -11.107,-49.547 -3.223,-2.949 11.89,53.043 c 0.21,0.936 0.937,1.669 1.871,1.888 0.188,0.044 0.379,0.065 0.568,0.065 0.745,0 1.464,-0.334 1.945,-0.929 l 12.586,-15.583 18.035,8.72 c 0.346,0.167 0.718,0.25 1.088,0.25 0.554,0 1.103,-0.184 1.554,-0.541 0.752,-0.597 1.096,-1.571 0.886,-2.507 z" /><polygon
       transform="translate(1.4455706,14.1805)"
       style="fill:#8575bc"
       id="polygon16"
       points="184.553,89.307 192.54,124.942 194.979,124.396 186.96,88.618 185.975,88.662 " /><path
       style="fill:#8575bc"
       inkscape:connector-curvature="0"
       id="path18"
       d="m 174.03857,110.1605 c -0.307,0 -0.609,-0.113 -0.844,-0.328 l -10.663,-9.755 -13.527,-5.085 c -0.468,-0.176 -0.787,-0.614 -0.809,-1.114 l -0.643,-14.437 -5.969,-13.163 c -0.207,-0.456 -0.122,-0.991 0.216,-1.36 l 9.755,-10.664 5.086,-13.526 c 0.176,-0.468 0.615,-0.787 1.115,-0.809 l 14.437,-0.64 13.162,-5.97 c 0.457,-0.208 0.992,-0.121 1.36,0.216 l 10.663,9.757 13.527,5.083 c 0.469,0.176 0.787,0.614 0.809,1.114 l 0.642,14.437 5.969,13.161 c 0.207,0.456 0.122,0.991 -0.216,1.36 l -9.755,10.664 -5.086,13.528 c -0.176,0.468 -0.614,0.787 -1.114,0.809 l -14.437,0.642 -13.162,5.968 c -0.166,0.076 -0.341,0.112 -0.516,0.112 z m -23.382,-17.217 12.981,4.88 c 0.149,0.056 0.286,0.14 0.404,0.248 l 10.232,9.361 12.631,-5.728 c 0.145,-0.066 0.301,-0.104 0.46,-0.11 l 13.853,-0.616 4.881,-12.982 c 0.056,-0.149 0.14,-0.286 0.248,-0.404 l 9.361,-10.233 -5.729,-12.63 c -0.066,-0.145 -0.104,-0.301 -0.11,-0.46 l -0.616,-13.854 -12.981,-4.878 c -0.149,-0.056 -0.286,-0.14 -0.404,-0.248 l -10.232,-9.363 -12.63,5.729 c -0.146,0.066 -0.302,0.104 -0.461,0.11 l -13.854,0.614 -4.88,12.979 c -0.056,0.149 -0.14,0.286 -0.248,0.404 l -9.361,10.233 5.729,12.632 c 0.066,0.145 0.104,0.301 0.11,0.46 l 0.616,13.856 z" /><path
       style="fill:#8575bc"
       inkscape:connector-curvature="0"
       id="path20"
       d="m 179.97257,51.3075 c 9.321,0 17.73,6.441 19.854,15.916 2.461,10.977 -4.441,21.869 -15.418,24.33 -1.499,0.336 -2.997,0.497 -4.471,0.497 -9.323,0 -17.733,-6.44 -19.858,-15.915 -2.461,-10.977 4.444,-21.869 15.419,-24.33 1.501,-0.336 2.999,-0.498 4.474,-0.498 m 0.001,-2.5 0,0 c -1.68,0 -3.369,0.188 -5.021,0.558 -12.304,2.759 -20.07,15.013 -17.312,27.316 2.322,10.354 11.699,17.868 22.297,17.868 1.678,0 3.367,-0.188 5.018,-0.558 5.961,-1.336 11.044,-4.914 14.313,-10.073 3.269,-5.159 4.334,-11.283 2.998,-17.243 -2.321,-10.353 -11.697,-17.868 -22.293,-17.868 l 0,0 z" /><path
       style="fill:#8575bc"
       inkscape:connector-curvature="0"
       id="path22"
       d="m 32.058571,136.6315 c -0.45,0 -0.865,-0.242 -1.087,-0.634 l -6.525,-11.51 -11.512,-6.525 c -0.392,-0.222 -0.634,-0.637 -0.634,-1.087 0,-0.45 0.242,-0.866 0.634,-1.087 l 11.512,-6.525 6.525,-11.512 c 0.443,-0.783 1.731,-0.783 2.175,0 l 6.525,11.512 11.51,6.525 c 0.392,0.222 0.634,0.637 0.634,1.087 0,0.45 -0.242,0.865 -0.634,1.087 l -11.51,6.525 -6.525,11.51 c -0.222,0.392 -0.638,0.634 -1.088,0.634 z m -15.972,-19.756 9.894,5.608 c 0.197,0.111 0.36,0.274 0.471,0.471 l 5.608,9.892 5.608,-9.892 c 0.111,-0.197 0.274,-0.36 0.471,-0.471 l 9.892,-5.608 -9.892,-5.608 c -0.197,-0.111 -0.36,-0.274 -0.471,-0.471 l -5.608,-9.894 -5.608,9.894 c -0.111,0.197 -0.274,0.36 -0.471,0.471 l -9.894,5.608 z" /><path
       style="fill:#8575bc"
       inkscape:connector-curvature="0"
       id="path24"
       d="m 182.59457,202.5755 c -0.45,0 -0.866,-0.242 -1.087,-0.634 l -6.525,-11.512 -11.511,-6.525 c -0.392,-0.222 -0.634,-0.637 -0.634,-1.087 0,-0.45 0.242,-0.866 0.634,-1.087 l 11.511,-6.525 6.525,-11.51 c 0.444,-0.783 1.73,-0.783 2.175,0 l 6.525,11.51 11.511,6.525 c 0.392,0.222 0.634,0.637 0.634,1.087 0,0.45 -0.242,0.865 -0.634,1.087 l -11.511,6.525 -6.525,11.512 c -0.222,0.391 -0.637,0.634 -1.088,0.634 z m -15.972,-19.758 9.893,5.608 c 0.197,0.111 0.36,0.274 0.471,0.471 l 5.608,9.894 5.608,-9.894 c 0.111,-0.197 0.274,-0.36 0.471,-0.471 l 9.893,-5.608 -9.893,-5.608 c -0.197,-0.111 -0.36,-0.274 -0.471,-0.471 l -5.608,-9.892 -5.608,9.892 c -0.111,0.197 -0.274,0.36 -0.471,0.471 l -9.893,5.608 z" /></g></svg>