<?xml version="1.0" encoding="UTF-8" standalone="no"?>
<!-- Generator: Adobe Illustrator 15.1.0, SVG Export Plug-In  -->

<svg
   xmlns:dc="http://purl.org/dc/elements/1.1/"
   xmlns:cc="http://creativecommons.org/ns#"
   xmlns:rdf="http://www.w3.org/1999/02/22-rdf-syntax-ns#"
   xmlns:svg="http://www.w3.org/2000/svg"
   xmlns="http://www.w3.org/2000/svg"
   xmlns:sodipodi="http://sodipodi.sourceforge.net/DTD/sodipodi-0.dtd"
   xmlns:inkscape="http://www.inkscape.org/namespaces/inkscape"
   version="1.1"
   x="0px"
   y="0px"
   width="168"
   height="168"
   viewBox="0.032 0 168 168"
   enable-background="new 0.032 0 169 173"
   xml:space="preserve"
   id="svg2"
   inkscape:version="0.91 r13725"
   sodipodi:docname="contribuicao-moedas.svg"><metadata
     id="metadata26"><rdf:RDF><cc:Work
         rdf:about=""><dc:format>image/svg+xml</dc:format><dc:type
           rdf:resource="http://purl.org/dc/dcmitype/StillImage" /><dc:title /></cc:Work></rdf:RDF></metadata><sodipodi:namedview
     pagecolor="#ffffff"
     bordercolor="#666666"
     borderopacity="1"
     objecttolerance="10"
     gridtolerance="10"
     guidetolerance="10"
     inkscape:pageopacity="0"
     inkscape:pageshadow="2"
     inkscape:window-width="1366"
     inkscape:window-height="744"
     id="namedview24"
     showgrid="false"
     inkscape:zoom="3.3095238"
     inkscape:cx="84"
     inkscape:cy="84"
     inkscape:window-x="0"
     inkscape:window-y="24"
     inkscape:window-maximized="1"
     inkscape:current-layer="svg2" /><defs
     id="defs4" /><g
     id="g3357"><g
       transform="translate(0.70797412,-0.2665)"
       id="g3364"><g
         id="g3359"
         transform="translate(0,-6)"><path
           style="fill:#8575bc"
           inkscape:connector-curvature="0"
           id="path6"
           d="m 111,151.005 0,4.286 c 0,4.068 -20.271,9.742 -54,9.742 -33.729,0 -54,-5.674 -54,-9.742 L 3,139.6 c 0,-4.068 20.477,-9.742 54.206,-9.742 4.211,0 8.102,0.089 11.893,0.251 -1.33,-0.899 -2.607,-1.776 -3.719,-2.627 -2.769,-0.082 -5.605,-0.124 -8.395,-0.124 C 28.689,127.357 0,131.563 0,139.6 l 0,15.691 c 0,8.037 28.705,12.242 57,12.242 28.295,0 57,-4.205 57,-12.242 l 0,-3.352 c -1,-0.305 -2,-0.617 -3,-0.934 z" /><path
           style="fill:#8575bc"
           inkscape:connector-curvature="0"
           id="path8"
           d="m 98.335,145.674 c -9.418,2.087 -23.578,3.666 -41.363,3.666 -33.729,0 -54.439,-5.673 -54.439,-9.74 0,-4.068 20.71,-9.742 54.439,-9.742 4.211,0 8.219,0.089 12.01,0.251 -1.33,-0.899 -2.548,-1.776 -3.66,-2.627 -2.769,-0.082 -5.56,-0.124 -8.35,-0.124 -28.295,0 -56.939,4.205 -56.939,12.242 0,8.036 28.644,12.24 56.939,12.24 17.074,0 34.265,-1.533 45.223,-4.514 -1.305,-0.547 -2.592,-1.097 -3.86,-1.652 z" /><path
           style="fill:#8575bc"
           inkscape:connector-curvature="0"
           id="path14"
           d="m 67.858,142.896 c -0.348,0 -0.636,-0.008 -0.865,-0.018 -0.245,-0.012 -0.45,-0.031 -0.613,-0.055 -0.251,-0.041 -0.431,-0.1 -0.572,-0.191 -0.261,-0.176 -0.402,-0.434 -0.402,-0.719 0,-0.506 0.472,-0.787 0.673,-0.906 0.191,-0.113 0.408,-0.27 0.644,-0.459 0.219,-0.18 0.426,-0.4 0.614,-0.658 0.139,-0.189 0.205,-0.418 0.205,-0.705 0,-0.332 -0.099,-0.76 -0.869,-1.123 -0.749,-0.354 -1.811,-0.533 -3.155,-0.533 -0.835,0 -1.531,0.066 -2.07,0.199 -0.535,0.133 -0.996,0.305 -1.368,0.516 -0.374,0.209 -0.697,0.447 -0.963,0.711 -0.311,0.307 -0.624,0.619 -0.941,0.938 -0.34,0.34 -0.731,0.678 -1.165,1.004 -0.457,0.344 -1.024,0.65 -1.688,0.912 -0.646,0.256 -1.44,0.465 -2.357,0.619 -0.908,0.154 -2.029,0.23 -3.332,0.23 -1.046,0 -2.034,-0.064 -2.941,-0.195 -0.922,-0.131 -1.748,-0.332 -2.455,-0.6 -0.74,-0.281 -1.359,-0.648 -1.84,-1.088 -0.375,-0.344 -0.649,-0.734 -0.819,-1.166 l -4.083,-0.145 c -0.136,-0.008 -0.247,-0.021 -0.355,-0.039 -0.166,-0.027 -0.327,-0.086 -0.47,-0.174 -0.198,-0.127 -0.342,-0.307 -0.416,-0.521 -0.049,-0.135 -0.073,-0.301 -0.073,-0.5 0,-0.207 0.03,-0.387 0.092,-0.549 0.088,-0.225 0.237,-0.406 0.436,-0.529 0.163,-0.096 0.335,-0.152 0.523,-0.176 0.111,-0.014 0.247,-0.021 0.402,-0.021 l 4.091,0.162 c 0.032,-0.057 0.065,-0.113 0.102,-0.17 0.132,-0.207 0.288,-0.408 0.462,-0.596 0.179,-0.191 0.374,-0.363 0.582,-0.514 0.229,-0.164 0.426,-0.275 0.604,-0.344 0.168,-0.063 0.324,-0.107 0.469,-0.133 0.123,-0.021 0.267,-0.041 0.429,-0.053 0.146,-0.012 0.313,-0.021 0.502,-0.031 0.191,-0.008 0.407,-0.012 0.646,-0.012 0.298,0 0.557,0.004 0.777,0.012 0.24,0.01 0.43,0.023 0.566,0.043 0.19,0.025 0.341,0.064 0.469,0.123 0.314,0.141 0.503,0.416 0.503,0.738 0,0.467 -0.411,0.74 -0.61,0.871 -0.172,0.113 -0.361,0.262 -0.56,0.436 -0.19,0.166 -0.37,0.363 -0.54,0.586 -0.104,0.139 -0.152,0.281 -0.152,0.449 0,0.211 0.049,0.377 0.15,0.51 0.125,0.164 0.313,0.303 0.56,0.414 0.295,0.135 0.664,0.232 1.098,0.297 0.458,0.068 0.975,0.104 1.534,0.104 0.848,0 1.556,-0.07 2.104,-0.205 0.538,-0.133 0.997,-0.305 1.366,-0.516 0.362,-0.207 0.678,-0.445 0.938,-0.711 0.304,-0.311 0.62,-0.631 0.948,-0.957 0.345,-0.342 0.728,-0.68 1.14,-1.006 0.444,-0.35 1.007,-0.662 1.675,-0.93 0.649,-0.26 1.442,-0.471 2.357,-0.629 0.908,-0.154 2.029,-0.234 3.336,-0.234 1.243,0 2.395,0.086 3.422,0.258 1.045,0.176 1.959,0.43 2.718,0.756 0.799,0.342 1.45,0.771 1.936,1.277 0.373,0.389 0.642,0.818 0.8,1.283 l 4.399,0.16 c 0.129,0.006 0.241,0.02 0.351,0.037 0.188,0.029 0.359,0.098 0.503,0.203 0.152,0.107 0.274,0.26 0.355,0.445 0.069,0.158 0.105,0.342 0.105,0.547 0,0.238 -0.046,0.447 -0.136,0.623 -0.08,0.154 -0.188,0.291 -0.316,0.396 -0.16,0.129 -0.354,0.207 -0.58,0.236 -0.079,0.012 -0.168,0.02 -0.264,0.02 -0.071,0 -0.146,-0.006 -0.225,-0.012 l -4.383,-0.166 c -0.066,0.133 -0.141,0.264 -0.22,0.387 -0.166,0.258 -0.352,0.494 -0.55,0.701 -0.199,0.209 -0.414,0.393 -0.639,0.543 -0.231,0.156 -0.45,0.27 -0.666,0.348 -0.216,0.078 -0.48,0.131 -0.805,0.158 -0.28,0.026 -0.649,0.037 -1.128,0.037 z" /></g><g
         id="g3354"
         transform="translate(-2,-6)"><path
           style="fill:#8575bc"
           inkscape:connector-curvature="0"
           id="path10"
           d="m 154.342,163.025 c -0.001,0 -0.001,0 0,0 -10.315,0 -29.17,-5.033 -49.208,-13.134 C 78.9,139.287 53.92,124.652 56.932,117.202 l 5.883,-14.549 c 0.854,-2.113 3.526,-3.141 8.17,-3.141 10.314,0 29.169,5.033 49.207,13.134 13.863,5.604 26.477,11.946 35.517,17.856 9.805,6.41 14.072,11.401 12.683,14.833 l -5.881,14.548 c -0.856,2.115 -3.528,3.142 -8.169,3.142 z M 70.985,102.012 c -4.838,0 -5.703,1.208 -5.853,1.578 l -5.883,14.549 c -1.524,3.771 15.55,16.793 46.82,29.435 19.461,7.867 38.409,12.951 48.271,12.952 0,0 0,0 0.001,0 4.837,0 5.701,-1.208 5.851,-1.578 l 5.881,-14.548 c 0.61,-1.508 -2.097,-5.504 -11.733,-11.804 -8.908,-5.824 -21.369,-12.085 -35.086,-17.631 -19.46,-7.869 -38.406,-12.953 -48.269,-12.953 z" /><path
           style="fill:#8575bc"
           inkscape:connector-curvature="0"
           id="path12"
           d="m 160.223,148.477 c -10.313,0 -29.168,-5.033 -49.208,-13.134 -13.864,-5.604 -26.477,-11.946 -35.517,-17.856 -9.804,-6.41 -14.071,-11.401 -12.683,-14.833 0.854,-2.113 3.526,-3.141 8.17,-3.141 10.314,0 29.169,5.033 49.207,13.134 13.863,5.604 26.477,11.946 35.517,17.856 9.805,6.41 14.072,11.401 12.683,14.833 -0.855,2.113 -3.527,3.141 -8.169,3.141 z M 70.985,102.012 c -4.838,0 -5.703,1.208 -5.853,1.578 -0.609,1.508 2.098,5.504 11.734,11.804 8.908,5.824 21.368,12.086 35.085,17.631 19.462,7.868 38.41,12.952 48.271,12.952 4.837,0 5.701,-1.208 5.851,-1.578 0.61,-1.508 -2.097,-5.504 -11.733,-11.804 -8.908,-5.824 -21.369,-12.085 -35.086,-17.631 -19.46,-7.868 -38.406,-12.952 -48.269,-12.952 z" /><path
           style="fill:#8575bc"
           inkscape:connector-curvature="0"
           id="path16"
           d="m 124.46,131.131 c -0.322,-0.131 -0.587,-0.244 -0.795,-0.34 -0.224,-0.104 -0.406,-0.197 -0.549,-0.281 -0.218,-0.131 -0.361,-0.254 -0.459,-0.391 -0.176,-0.262 -0.211,-0.555 -0.104,-0.818 0.19,-0.469 0.733,-0.553 0.965,-0.588 0.22,-0.033 0.479,-0.096 0.769,-0.184 0.27,-0.084 0.544,-0.211 0.815,-0.381 0.2,-0.123 0.348,-0.311 0.455,-0.574 0.124,-0.309 0.192,-0.744 -0.386,-1.369 -0.561,-0.607 -1.478,-1.172 -2.725,-1.676 -0.774,-0.314 -1.445,-0.512 -1.994,-0.592 -0.546,-0.078 -1.038,-0.09 -1.461,-0.035 -0.426,0.053 -0.814,0.154 -1.16,0.299 -0.402,0.168 -0.81,0.34 -1.224,0.516 -0.442,0.188 -0.933,0.354 -1.457,0.494 -0.551,0.146 -1.193,0.219 -1.906,0.213 -0.696,-0.004 -1.509,-0.109 -2.417,-0.309 -0.899,-0.199 -1.969,-0.547 -3.176,-1.035 -0.97,-0.393 -1.862,-0.824 -2.654,-1.283 -0.805,-0.467 -1.495,-0.965 -2.051,-1.479 -0.581,-0.537 -1.017,-1.109 -1.299,-1.697 -0.218,-0.459 -0.326,-0.924 -0.322,-1.389 l -3.73,-1.664 c -0.123,-0.057 -0.222,-0.111 -0.315,-0.17 -0.144,-0.086 -0.271,-0.201 -0.369,-0.336 -0.138,-0.193 -0.203,-0.412 -0.191,-0.639 0.006,-0.145 0.045,-0.307 0.12,-0.492 0.077,-0.191 0.173,-0.348 0.291,-0.475 0.164,-0.176 0.371,-0.287 0.602,-0.326 0.187,-0.027 0.368,-0.016 0.551,0.033 0.108,0.029 0.237,0.072 0.382,0.131 l 3.731,1.682 c 0.051,-0.039 0.104,-0.08 0.158,-0.117 0.199,-0.143 0.42,-0.271 0.65,-0.379 0.238,-0.111 0.484,-0.199 0.733,-0.26 0.272,-0.064 0.497,-0.096 0.688,-0.092 0.18,0.004 0.341,0.021 0.484,0.053 0.123,0.025 0.263,0.063 0.418,0.111 0.141,0.045 0.297,0.098 0.478,0.16 0.18,0.064 0.381,0.141 0.603,0.23 0.276,0.111 0.516,0.213 0.717,0.303 0.219,0.1 0.39,0.184 0.509,0.252 0.167,0.094 0.292,0.188 0.39,0.289 0.237,0.248 0.309,0.576 0.188,0.873 -0.175,0.434 -0.659,0.531 -0.893,0.578 -0.202,0.043 -0.433,0.109 -0.682,0.197 -0.239,0.082 -0.479,0.195 -0.721,0.34 -0.148,0.09 -0.247,0.203 -0.31,0.359 -0.079,0.193 -0.096,0.367 -0.051,0.529 0.054,0.197 0.176,0.396 0.363,0.592 0.223,0.234 0.527,0.467 0.906,0.688 0.398,0.234 0.865,0.461 1.383,0.67 0.787,0.318 1.469,0.52 2.027,0.6 0.548,0.078 1.039,0.09 1.46,0.033 0.413,-0.055 0.795,-0.158 1.135,-0.307 0.398,-0.176 0.812,-0.352 1.238,-0.533 0.448,-0.188 0.93,-0.357 1.434,-0.504 0.543,-0.158 1.183,-0.236 1.901,-0.234 0.699,0.002 1.515,0.104 2.421,0.301 0.9,0.195 1.97,0.543 3.181,1.033 1.152,0.465 2.188,0.977 3.075,1.521 0.903,0.555 1.656,1.131 2.238,1.719 0.612,0.615 1.054,1.258 1.314,1.91 0.201,0.5 0.288,0.998 0.262,1.488 l 4.019,1.797 c 0.117,0.055 0.217,0.109 0.311,0.166 0.164,0.1 0.297,0.227 0.391,0.377 0.101,0.158 0.156,0.344 0.162,0.545 0.006,0.174 -0.031,0.359 -0.107,0.549 -0.09,0.221 -0.211,0.396 -0.359,0.525 -0.132,0.115 -0.282,0.199 -0.441,0.25 -0.196,0.059 -0.406,0.061 -0.627,0.002 -0.077,-0.02 -0.163,-0.047 -0.252,-0.082 -0.065,-0.027 -0.134,-0.059 -0.203,-0.096 l -4.001,-1.797 c -0.112,0.102 -0.229,0.193 -0.35,0.277 -0.251,0.178 -0.511,0.326 -0.771,0.445 -0.263,0.119 -0.532,0.207 -0.796,0.264 -0.273,0.057 -0.519,0.082 -0.748,0.072 -0.23,-0.008 -0.494,-0.059 -0.805,-0.156 -0.267,-0.079 -0.614,-0.206 -1.057,-0.386 z" /></g></g><path
       style="fill:#8575bc"
       inkscape:connector-curvature="0"
       id="path18"
       d="m 36.534,68.5325 c 2.007,0 3.633,1.627 3.633,3.633 l 0,4.184 0.002,0 c 0,1.855 1.394,3.381 3.187,3.602 l 4.597,0 c 2.007,0 3.633,1.627 3.633,3.633 l 0,4.721 c 0,2.006 -1.626,3.633 -3.633,3.633 l -4.579,0 c -1.803,0.209 -3.204,1.744 -3.204,3.605 l -0.002,0 0,4.178 c 0,2.008 -1.626,3.633 -3.633,3.633 l -4.721,0 c -2.005,0 -3.633,-1.625 -3.633,-3.633 l 0,-4.594 c -0.189,-1.668 -1.511,-2.994 -3.18,-3.189 l -4.604,0 c -2.006,0 -3.632,-1.627 -3.632,-3.633 l 0,-4.722 c 0,-2.006 1.626,-3.633 3.632,-3.633 l 4.622,0 c 1.659,-0.203 2.973,-1.523 3.162,-3.189 l 0,-4.596 c 0,-2.006 1.628,-3.633 3.633,-3.633 l 4.72,0 m 0,-2.5 -4.721,0 c -3.382,0 -6.133,2.751 -6.133,6.133 l 0,4.413 c -0.089,0.43 -0.431,0.776 -0.859,0.872 l -4.425,0 c -3.381,0 -6.132,2.751 -6.132,6.133 l 0,4.721 c 0,3.382 2.751,6.133 6.132,6.133 l 4.417,0 c 0.432,0.093 0.778,0.439 0.868,0.872 l 0,4.411 c 0,3.382 2.751,6.133 6.133,6.133 l 4.721,0 c 3.382,0 6.133,-2.751 6.133,-6.133 l 0,-4.078 c 10e-4,-0.033 0.002,-0.066 0.002,-0.1 0,-0.539 0.376,-0.997 0.89,-1.105 l 4.394,0 c 3.382,0 6.133,-2.751 6.133,-6.133 l 0,-4.721 c 0,-3.382 -2.751,-6.133 -6.133,-6.133 l -4.4,0 c -0.511,-0.114 -0.883,-0.569 -0.883,-1.102 0,-0.033 0,-0.066 -0.002,-0.1 l 0,-4.084 c -0.002,-3.381 -2.753,-6.132 -6.135,-6.132 l 0,0 z" /><path
       style="fill:#8575bc"
       inkscape:connector-curvature="0"
       id="path20"
       d="m 105.798,46.4025 c 2.007,0 3.633,1.627 3.633,3.633 l 0,4.184 0.002,0 c 0,1.855 1.394,3.381 3.187,3.602 l 4.597,0 c 2.007,0 3.633,1.627 3.633,3.633 l 0,4.721 c 0,2.006 -1.626,3.633 -3.633,3.633 l -4.579,0 c -1.803,0.209 -3.204,1.744 -3.204,3.605 l -0.002,0 0,4.178 c 0,2.008 -1.626,3.633 -3.633,3.633 l -4.721,0 c -2.005,0 -3.633,-1.625 -3.633,-3.633 l 0,-4.594 c -0.189,-1.668 -1.511,-2.994 -3.18,-3.189 l -4.605,0 c -2.006,0 -3.632,-1.627 -3.632,-3.633 l 0,-4.722 c 0,-2.006 1.626,-3.633 3.632,-3.633 l 4.622,0 c 1.659,-0.203 2.973,-1.523 3.162,-3.189 l 0,-4.596 c 0,-2.006 1.628,-3.633 3.633,-3.633 l 4.721,0 m 0,-2.5 -4.721,0 c -3.382,0 -6.133,2.751 -6.133,6.133 l 0,4.413 c -0.089,0.43 -0.431,0.776 -0.859,0.872 l -4.425,0 c -3.381,0 -6.132,2.751 -6.132,6.133 l 0,4.721 c 0,3.382 2.751,6.133 6.132,6.133 l 4.417,0 c 0.432,0.093 0.778,0.439 0.868,0.872 l 0,4.411 c 0,3.382 2.751,6.133 6.133,6.133 l 4.721,0 c 3.382,0 6.133,-2.751 6.133,-6.133 l 0,-4.078 c 0.001,-0.033 0.002,-0.066 0.002,-0.1 0,-0.539 0.376,-0.997 0.89,-1.105 l 4.394,0 c 3.382,0 6.133,-2.751 6.133,-6.133 l 0,-4.721 c 0,-3.382 -2.751,-6.133 -6.133,-6.133 l -4.4,0 c -0.511,-0.114 -0.883,-0.569 -0.883,-1.102 0,-0.033 0,-0.066 -0.002,-0.1 l 0,-4.084 c -0.002,-3.381 -2.753,-6.132 -6.135,-6.132 l 0,0 z" /><path
       style="fill:#8575bc"
       inkscape:connector-curvature="0"
       id="path22"
       d="m 66.283,9.2335 c 2.007,0 3.633,1.627 3.633,3.633 l 0,4.184 0.002,0 c 0,1.855 1.394,3.381 3.187,3.602 l 4.597,0 c 2.007,0 3.633,1.627 3.633,3.633 l 0,4.721 c 0,2.006 -1.626,3.633 -3.633,3.633 l -4.579,0 c -1.803,0.209 -3.204,1.744 -3.204,3.605 l -0.002,0 0,4.178 c 0,2.008 -1.626,3.633 -3.633,3.633 l -4.721,0 c -2.005,0 -3.633,-1.625 -3.633,-3.633 l 0,-4.594 c -0.189,-1.668 -1.511,-2.994 -3.18,-3.189 l -4.604,0 c -2.006,0 -3.632,-1.627 -3.632,-3.633 l 0,-4.721 c 0,-2.006 1.626,-3.633 3.632,-3.633 l 4.622,0 c 1.659,-0.203 2.973,-1.523 3.162,-3.189 l 0,-4.597 c 0,-2.006 1.628,-3.633 3.633,-3.633 l 4.72,0 m 0,-2.5 -4.721,0 c -3.382,0 -6.133,2.751 -6.133,6.133 l 0,4.413 c -0.089,0.43 -0.431,0.776 -0.859,0.872 l -4.425,0 c -3.381,0 -6.132,2.751 -6.132,6.133 l 0,4.721 c 0,3.382 2.751,6.133 6.132,6.133 l 4.417,0 c 0.432,0.093 0.778,0.439 0.868,0.872 l 0,4.411 c 0,3.382 2.751,6.133 6.133,6.133 l 4.721,0 c 3.382,0 6.133,-2.751 6.133,-6.133 l 0,-4.078 c 0.001,-0.033 0.002,-0.066 0.002,-0.1 0,-0.539 0.376,-0.997 0.89,-1.105 l 4.394,0 c 3.382,0 6.133,-2.751 6.133,-6.133 l 0,-4.721 c 0,-3.382 -2.751,-6.133 -6.133,-6.133 l -4.4,0 c -0.511,-0.114 -0.883,-0.569 -0.883,-1.102 0,-0.033 0,-0.066 -0.002,-0.1 l 0,-4.083 c -0.002,-3.382 -2.753,-6.133 -6.135,-6.133 l 0,0 z" /></g></svg>