<?xml version="1.0" encoding="utf-8"?>
<!-- Generator: Adobe Illustrator 15.1.0, SVG Export Plug-In  -->
<!DOCTYPE svg PUBLIC "-//W3C//DTD SVG 1.1//EN" "http://www.w3.org/Graphics/SVG/1.1/DTD/svg11.dtd" [
	<!ENTITY ns_flows "http://ns.adobe.com/Flows/1.0/">
]>
<svg version="1.1"
	 xmlns="http://www.w3.org/2000/svg" xmlns:xlink="http://www.w3.org/1999/xlink" xmlns:a="http://ns.adobe.com/AdobeSVGViewerExtensions/3.0/"
	 x="0px" y="0px" width="217px" height="191px" viewBox="-0.059 0.18 217 191" enable-background="new -0.059 0.18 217 191"
	 xml:space="preserve">
<defs>
</defs>
<path fill="#8575BC" d="M149.693,181.859H60.254c-0.69,0-1.25-0.56-1.25-1.25s0.56-1.25,1.25-1.25h89.439
	c0.69,0,1.25,0.56,1.25,1.25S150.384,181.859,149.693,181.859z"/>
<path fill="#8575BC" d="M150.063,166.207L117,156.744v-39.309c17-5.904,29.99-21.643,38.926-34.729l-2.271-0.905
	C142.382,98.175,129,111.239,115,115.645v42.982l35,9.982v12V189H60v-8.391v-12l35-10.158v-42.807
	c-16.792-5.299-33.011-23.123-45.359-44.172c-13.046-0.289-25.296-6.547-34.182-17.701C7.036,43.199,3,29.285,2,14.529V10h25.721
	c-0.259-2-0.392-4.545-0.392-6.814C27.329,3.01,27.335,3,27.336,3h77.638h77.639c0,0,0.006,0.01,0.006,0.186
	c0,2.27-0.133,4.814-0.391,6.814H208v4.529c-1,6.64-1.296,13.105-3.124,19.177l2.213,0.879C209.018,28.241,210,21.484,210,14.552
	v-4.188C210,8.982,208.887,8,207.506,8h-22.554c0.11-2,0.166-3.234,0.166-4.725c0-0.102-0.001-0.237-0.003-0.338l-0.002-0.331
	c0-1.381-1.119-2.607-2.5-2.607h-77.639H27.336c-1.375,0-2.492,1.201-2.5,2.576l-0.003,0.255c-0.002,0.11-0.004,0.311-0.004,0.422
	C24.829,4.745,24.885,6,24.995,8H2.441C1.061,8,0,8.982,0,10.363v4.166c0,15.336,5.004,29.818,13.754,40.8
	c9.016,11.318,20.943,17.881,34.194,18.59C56.164,87.675,72,110.115,92,117.436v39.142l-32.575,9.633
	c-1.066,0.312-1.425,1.289-1.425,2.399v12v8.535c0,1.381,0.873,2.855,2.254,2.855h89.439c1.381,0,2.307-1.475,2.307-2.855v-8.535
	v-12C152,167.495,151.135,166.515,150.063,166.207z"/>
<path fill="#8575BC" d="M180.251,22.396l2.836-1.419c0.269-1.296,0.521-2.977,0.738-3.977h15.017c-0.229,5-0.982,9.376-2.179,13.698
	l2.331,1.119c1.514-5.343,2.363-10.817,2.42-16.817h-19.718C181.326,17,180.834,19.787,180.251,22.396z"/>
<path fill="#8575BC" d="M46.814,66.943C37.374,49.629,30.613,30,28.25,15H8.532C8.792,42,25.521,64.566,46.814,66.943z
	 M42.183,63.021C24.97,58.333,12.195,40,11.104,17h15.017C28.551,31,34.291,47.552,42.183,63.021z"/>
<path fill="#8575BC" d="M215.747,132.486l-11.884-53.018l-1.605,4.269l11.05,49.296l-19.821-9.584l-13.833,17.127l-11.107-49.547
	l-3.223-2.949l11.89,53.043c0.21,0.936,0.937,1.669,1.871,1.888c0.188,0.044,0.379,0.065,0.568,0.065
	c0.745,0,1.464-0.334,1.945-0.929l12.586-15.583l18.035,8.72c0.346,0.167,0.718,0.25,1.088,0.25c0.554,0,1.103-0.184,1.554-0.541
	C215.613,134.396,215.957,133.422,215.747,132.486z"/>
<polygon fill="#8575BC" points="185.975,88.662 184.553,89.307 192.54,124.942 194.979,124.396 186.96,88.618 "/>
<path fill="#8575BC" d="M172.593,95.98c-0.307,0-0.609-0.113-0.844-0.328l-10.663-9.755l-13.527-5.085
	c-0.468-0.176-0.787-0.614-0.809-1.114l-0.643-14.437l-5.969-13.163c-0.207-0.456-0.122-0.991,0.216-1.36l9.755-10.664l5.086-13.526
	c0.176-0.468,0.615-0.787,1.115-0.809l14.437-0.64l13.162-5.97c0.457-0.208,0.992-0.121,1.36,0.216l10.663,9.757l13.527,5.083
	c0.469,0.176,0.787,0.614,0.809,1.114l0.642,14.437l5.969,13.161c0.207,0.456,0.122,0.991-0.216,1.36l-9.755,10.664l-5.086,13.528
	c-0.176,0.468-0.614,0.787-1.114,0.809L186.271,89.9l-13.162,5.968C172.943,95.944,172.768,95.98,172.593,95.98z M149.211,78.763
	l12.981,4.88c0.149,0.056,0.286,0.14,0.404,0.248l10.232,9.361l12.631-5.728c0.145-0.066,0.301-0.104,0.46-0.11l13.853-0.616
	l4.881-12.982c0.056-0.149,0.14-0.286,0.248-0.404l9.361-10.233l-5.729-12.63c-0.066-0.145-0.104-0.301-0.11-0.46l-0.616-13.854
	l-12.981-4.878c-0.149-0.056-0.286-0.14-0.404-0.248l-10.232-9.363l-12.63,5.729c-0.146,0.066-0.302,0.104-0.461,0.11l-13.854,0.614
	l-4.88,12.979c-0.056,0.149-0.14,0.286-0.248,0.404l-9.361,10.233l5.729,12.632c0.066,0.145,0.104,0.301,0.11,0.46L149.211,78.763z"
	/>
<path fill="#8575BC" d="M178.527,37.127c9.321,0,17.73,6.441,19.854,15.916c2.461,10.977-4.441,21.869-15.418,24.33
	c-1.499,0.336-2.997,0.497-4.471,0.497c-9.323,0-17.733-6.44-19.858-15.915c-2.461-10.977,4.444-21.869,15.419-24.33
	C175.554,37.289,177.052,37.127,178.527,37.127 M178.528,34.627L178.528,34.627c-1.68,0-3.369,0.188-5.021,0.558
	c-12.304,2.759-20.07,15.013-17.312,27.316c2.322,10.354,11.699,17.868,22.297,17.868c1.678,0,3.367-0.188,5.018-0.558
	c5.961-1.336,11.044-4.914,14.313-10.073c3.269-5.159,4.334-11.283,2.998-17.243C198.5,42.142,189.124,34.627,178.528,34.627
	L178.528,34.627z"/>
<path fill="#8575BC" d="M30.613,122.451c-0.45,0-0.865-0.242-1.087-0.634l-6.525-11.51l-11.512-6.525
	c-0.392-0.222-0.634-0.637-0.634-1.087s0.242-0.866,0.634-1.087l11.512-6.525l6.525-11.512c0.443-0.783,1.731-0.783,2.175,0
	l6.525,11.512l11.51,6.525c0.392,0.222,0.634,0.637,0.634,1.087s-0.242,0.865-0.634,1.087l-11.51,6.525l-6.525,11.51
	C31.479,122.209,31.063,122.451,30.613,122.451z M14.641,102.695l9.894,5.608c0.197,0.111,0.36,0.274,0.471,0.471l5.608,9.892
	l5.608-9.892c0.111-0.197,0.274-0.36,0.471-0.471l9.892-5.608l-9.892-5.608c-0.197-0.111-0.36-0.274-0.471-0.471l-5.608-9.894
	l-5.608,9.894c-0.111,0.197-0.274,0.36-0.471,0.471L14.641,102.695z"/>
<path fill="#8575BC" d="M183.149,190.395c-0.45,0-0.866-0.242-1.087-0.634l-6.525-11.512l-11.511-6.525
	c-0.392-0.222-0.634-0.637-0.634-1.087s0.242-0.866,0.634-1.087l11.511-6.525l6.525-11.51c0.444-0.783,1.73-0.783,2.175,0
	l6.525,11.51l11.511,6.525c0.392,0.222,0.634,0.637,0.634,1.087s-0.242,0.865-0.634,1.087l-11.511,6.525l-6.525,11.512
	C184.015,190.152,183.6,190.395,183.149,190.395z M167.177,170.637l9.893,5.608c0.197,0.111,0.36,0.274,0.471,0.471l5.608,9.894
	l5.608-9.894c0.111-0.197,0.274-0.36,0.471-0.471l9.893-5.608l-9.893-5.608c-0.197-0.111-0.36-0.274-0.471-0.471l-5.608-9.892
	l-5.608,9.892c-0.111,0.197-0.274,0.36-0.471,0.471L167.177,170.637z"/>
</svg>
