<?xml version="1.0" encoding="UTF-8" standalone="no"?>
<!-- Generator: Adobe Illustrator 15.1.0, SVG Export Plug-In  -->

<svg
   xmlns:dc="http://purl.org/dc/elements/1.1/"
   xmlns:cc="http://creativecommons.org/ns#"
   xmlns:rdf="http://www.w3.org/1999/02/22-rdf-syntax-ns#"
   xmlns:svg="http://www.w3.org/2000/svg"
   xmlns="http://www.w3.org/2000/svg"
   xmlns:sodipodi="http://sodipodi.sourceforge.net/DTD/sodipodi-0.dtd"
   xmlns:inkscape="http://www.inkscape.org/namespaces/inkscape"
   version="1.1"
   x="0px"
   y="0px"
   width="168"
   height="168"
   viewBox="0 0 168 168"
   enable-background="new 0 0 131 131"
   xml:space="preserve"
   id="svg2"
   inkscape:version="0.91 r13725"
   sodipodi:docname="exclamacao.svg"><metadata
     id="metadata12"><rdf:RDF><cc:Work
         rdf:about=""><dc:format>image/svg+xml</dc:format><dc:type
           rdf:resource="http://purl.org/dc/dcmitype/StillImage" /><dc:title></dc:title></cc:Work></rdf:RDF></metadata><sodipodi:namedview
     pagecolor="#ffffff"
     bordercolor="#666666"
     borderopacity="1"
     objecttolerance="10"
     gridtolerance="10"
     guidetolerance="10"
     inkscape:pageopacity="0"
     inkscape:pageshadow="2"
     inkscape:window-width="1366"
     inkscape:window-height="744"
     id="namedview10"
     showgrid="false"
     inkscape:zoom="3.3095238"
     inkscape:cx="84"
     inkscape:cy="84"
     inkscape:window-x="0"
     inkscape:window-y="24"
     inkscape:window-maximized="1"
     inkscape:current-layer="svg2" /><defs
     id="defs4" /><g
     id="g3340"
     transform="matrix(1.0850218,0,0,1.0850218,12.663614,-27.482735)"><path
       style="fill:#ba7575"
       inkscape:connector-curvature="0"
       id="path6"
       d="M 65.747,168.494 C 29.494,168.494 0,139 0,102.748 0,66.494 29.494,37 65.747,37 102,37 131.493,66.494 131.493,102.748 131.493,139 102,168.494 65.747,168.494 Z m 0,-128.994 C 30.872,39.5 2.5,67.873 2.5,102.748 c 0,34.875 28.372,63.246 63.247,63.246 34.874,0 63.246,-28.371 63.246,-63.246 0,-34.875 -28.372,-63.248 -63.246,-63.248 z" /><path
       style="fill:#ba7575"
       inkscape:connector-curvature="0"
       id="path8"
       d="m 65.747,125.828 c -0.992,0 -1.838,-0.344 -2.538,-1.033 -0.7,-0.691 -1.051,-1.531 -1.051,-2.523 0,-0.99 0.351,-1.836 1.051,-2.537 0.7,-0.699 1.546,-1.051 2.538,-1.051 0.97,0 1.81,0.352 2.521,1.051 0.711,0.701 1.066,1.547 1.066,2.537 0,0.992 -0.355,1.832 -1.066,2.523 -0.711,0.689 -1.551,1.033 -2.521,1.033 z m 2.715,-46.941 -0.614,33.299 -4.364,0 -0.582,-33.299 5.56,0 z" /></g></svg>