<?xml version="1.0" encoding="UTF-8" standalone="no"?>
<!-- Generator: Adobe Illustrator 15.1.0, SVG Export Plug-In  -->

<svg
   xmlns:dc="http://purl.org/dc/elements/1.1/"
   xmlns:cc="http://creativecommons.org/ns#"
   xmlns:rdf="http://www.w3.org/1999/02/22-rdf-syntax-ns#"
   xmlns:svg="http://www.w3.org/2000/svg"
   xmlns="http://www.w3.org/2000/svg"
   xmlns:sodipodi="http://sodipodi.sourceforge.net/DTD/sodipodi-0.dtd"
   xmlns:inkscape="http://www.inkscape.org/namespaces/inkscape"
   version="1.1"
   x="0px"
   y="0px"
   width="168"
   height="168"
   viewBox="0 0 168 168"
   enable-background="new 0 0 151 151"
   xml:space="preserve"
   id="svg2"
   inkscape:version="0.91 r13725"
   sodipodi:docname="ideia-premiada.svg"><metadata
     id="metadata32"><rdf:RDF><cc:Work
         rdf:about=""><dc:format>image/svg+xml</dc:format><dc:type
           rdf:resource="http://purl.org/dc/dcmitype/StillImage" /><dc:title></dc:title></cc:Work></rdf:RDF></metadata><sodipodi:namedview
     pagecolor="#ffffff"
     bordercolor="#666666"
     borderopacity="1"
     objecttolerance="10"
     gridtolerance="10"
     guidetolerance="10"
     inkscape:pageopacity="0"
     inkscape:pageshadow="2"
     inkscape:window-width="1366"
     inkscape:window-height="744"
     id="namedview30"
     showgrid="false"
     inkscape:zoom="3.3095238"
     inkscape:cx="84"
     inkscape:cy="84"
     inkscape:window-x="0"
     inkscape:window-y="24"
     inkscape:window-maximized="1"
     inkscape:current-layer="svg2" /><defs
     id="defs4" /><g
     id="g3360"
     transform="translate(8.444502,8.4445)"><path
       id="path6"
       d="m 90.156,117.844 c -0.28,0 -0.559,-0.094 -0.785,-0.277 L 75.71,106.544 62.051,117.383 c -0.377,0.299 -0.892,0.355 -1.321,0.146 -0.432,-0.208 -0.706,-0.646 -0.706,-1.125 l 0,-28.818 2.5,0 0,26.231 12.416,-9.853 c 0.458,-0.363 1.106,-0.361 1.563,0.006 l 12.404,10.008 -0.002,-26.713 2.5,0 0.002,29.328 c 0,0.481 -0.276,0.92 -0.711,1.128 -0.173,0.083 -0.356,0.123 -0.54,0.123 z"
       inkscape:connector-curvature="0"
       style="fill:#8575bc" /><rect
       id="rect8"
       height="16.083"
       width="2.5"
       y="89.793999"
       x="74.467003"
       style="fill:#8575bc" /><path
       id="path10"
       d="m 86.103,37.301 6.095,8.736 c 0.183,0.262 0.414,0.486 0.681,0.661 l 8.911,5.838 -1.865,10.489 c -0.057,0.313 -0.052,0.635 0.014,0.947 l 2.171,10.428 -8.734,6.097 c -0.262,0.182 -0.485,0.413 -0.66,0.68 l -5.84,8.911 -10.488,-1.868 c -0.146,-0.026 -0.292,-0.039 -0.438,-0.039 -0.171,0 -0.342,0.018 -0.51,0.053 l -10.432,2.173 -6.097,-8.736 c -0.182,-0.262 -0.413,-0.486 -0.68,-0.66 l -8.909,-5.838 1.865,-10.489 c 0.057,-0.313 0.052,-0.635 -0.014,-0.947 l -2.171,-10.43 8.734,-6.097 c 0.262,-0.182 0.485,-0.413 0.66,-0.68 l 5.838,-8.911 10.49,1.867 c 0.146,0.026 0.292,0.039 0.438,0.039 0.171,0 0.342,-0.018 0.51,-0.052 l 10.431,-2.172 m 1.106,-2.783 -12.045,2.508 -12.115,-2.156 -6.742,10.29 -10.088,7.041 2.508,12.045 -2.154,12.113 10.289,6.742 7.041,10.09 12.047,-2.51 12.111,2.156 6.744,-10.291 10.088,-7.041 -2.508,-12.043 2.154,-12.113 -10.291,-6.742 -7.039,-10.089 0,0 z"
       inkscape:connector-curvature="0"
       style="fill:#8575bc" /><path
       id="path12"
       d="m 75.557,52.896 c 6.051,0 10.957,4.906 10.957,10.957 0,6.053 -4.904,10.959 -10.957,10.959 -6.053,-0.002 -10.959,-4.906 -10.961,-10.957 0,-6.052 4.908,-10.959 10.961,-10.959 m 0,-2.5 c -7.422,0 -13.461,6.038 -13.461,13.459 0.002,7.418 6.041,13.455 13.46,13.457 7.421,0 13.458,-6.038 13.458,-13.459 0,-7.42 -6.037,-13.457 -13.457,-13.457 l 0,0 z"
       inkscape:connector-curvature="0"
       style="fill:#8575bc" /><path
       id="path14"
       d="m 75.691,11.98 c -0.689,0 -1.249,-0.558 -1.25,-1.248 l -0.02,-9.48 c 0,-0.69 0.558,-1.251 1.248,-1.252 0.001,0 0.002,0 0.003,0 0.689,0 1.249,0.558 1.25,1.248 l 0.02,9.48 c 0.001,0.69 -0.557,1.251 -1.247,1.252 -0.002,0 -0.003,0 -0.004,0 z"
       inkscape:connector-curvature="0"
       style="fill:#8575bc" /><path
       id="path16"
       d="m 140.381,76.941 c -0.689,0 -1.249,-0.558 -1.25,-1.248 -0.001,-0.69 0.557,-1.251 1.247,-1.252 l 9.48,-0.02 c 0.001,0 0.002,0 0.003,0 0.689,0 1.249,0.558 1.25,1.248 0.001,0.69 -0.557,1.251 -1.247,1.252 l -9.48,0.02 c -10e-4,0 -0.002,0 -0.003,0 z"
       inkscape:connector-curvature="0"
       style="fill:#8575bc" /><path
       id="path18"
       d="m 75.441,151.111 c -0.689,0 -1.248,-0.558 -1.25,-1.247 l -0.021,-9.479 c -0.002,-0.69 0.557,-1.251 1.247,-1.253 0.001,0 0.002,0 0.003,0 0.689,0 1.248,0.558 1.25,1.247 l 0.021,9.479 c 0.002,0.69 -0.557,1.251 -1.247,1.253 -0.001,0 -0.002,0 -0.003,0 z"
       inkscape:connector-curvature="0"
       style="fill:#8575bc" /><path
       id="path20"
       d="m 1.25,76.691 c -0.689,0 -1.248,-0.558 -1.25,-1.247 -0.002,-0.69 0.557,-1.251 1.247,-1.253 l 9.479,-0.021 c 10e-4,0 0.002,0 0.003,0 0.689,0 1.248,0.558 1.25,1.247 0.002,0.69 -0.557,1.251 -1.247,1.253 l -9.479,0.021 c -10e-4,0 -0.002,0 -0.003,0 z"
       inkscape:connector-curvature="0"
       style="fill:#8575bc" /><path
       id="path22"
       d="m 121.49,31.063 c -0.319,0 -0.638,-0.122 -0.882,-0.364 -0.489,-0.487 -0.491,-1.279 -0.004,-1.768 l 6.689,-6.717 c 0.487,-0.49 1.278,-0.489 1.768,-0.003 0.489,0.487 0.491,1.279 0.004,1.768 l -6.689,6.717 c -0.244,0.244 -0.565,0.367 -0.886,0.367 z"
       inkscape:connector-curvature="0"
       style="fill:#8575bc" /><path
       id="path24"
       d="m 128.016,129.43 c -0.319,0 -0.638,-0.121 -0.882,-0.364 l -6.719,-6.689 c -0.489,-0.487 -0.491,-1.278 -0.004,-1.768 0.487,-0.49 1.278,-0.491 1.768,-0.004 l 6.719,6.689 c 0.489,0.487 0.491,1.278 0.004,1.768 -0.245,0.245 -0.566,0.368 -0.886,0.368 z"
       inkscape:connector-curvature="0"
       style="fill:#8575bc" /><path
       id="path26"
       d="m 22.93,129.266 c -0.319,0 -0.638,-0.122 -0.882,-0.364 -0.489,-0.487 -0.491,-1.279 -0.004,-1.768 l 6.689,-6.717 c 0.487,-0.49 1.278,-0.489 1.768,-0.003 0.489,0.487 0.491,1.279 0.004,1.768 l -6.689,6.717 c -0.245,0.244 -0.566,0.367 -0.886,0.367 z"
       inkscape:connector-curvature="0"
       style="fill:#8575bc" /><path
       id="path28"
       d="m 29.811,30.871 c -0.319,0 -0.638,-0.121 -0.882,-0.364 l -6.717,-6.688 c -0.489,-0.487 -0.491,-1.278 -0.004,-1.768 0.488,-0.49 1.279,-0.491 1.768,-0.004 l 6.717,6.688 c 0.489,0.487 0.491,1.278 0.004,1.768 -0.245,0.246 -0.566,0.368 -0.886,0.368 z"
       inkscape:connector-curvature="0"
       style="fill:#8575bc" /></g></svg>