<?xml version="1.0" encoding="UTF-8" standalone="no"?>
<!-- Generator: Adobe Illustrator 15.1.0, SVG Export Plug-In  -->

<svg
   xmlns:dc="http://purl.org/dc/elements/1.1/"
   xmlns:cc="http://creativecommons.org/ns#"
   xmlns:rdf="http://www.w3.org/1999/02/22-rdf-syntax-ns#"
   xmlns:svg="http://www.w3.org/2000/svg"
   xmlns="http://www.w3.org/2000/svg"
   xmlns:sodipodi="http://sodipodi.sourceforge.net/DTD/sodipodi-0.dtd"
   xmlns:inkscape="http://www.inkscape.org/namespaces/inkscape"
   version="1.1"
   x="0px"
   y="0px"
   width="168"
   height="168"
   viewBox="0 0 168 168"
   enable-background="new 0 0 124 156"
   xml:space="preserve"
   id="svg2"
   inkscape:version="0.91 r13725"
   sodipodi:docname="ideia-autor.svg"><metadata
     id="metadata22"><rdf:RDF><cc:Work
         rdf:about=""><dc:format>image/svg+xml</dc:format><dc:type
           rdf:resource="http://purl.org/dc/dcmitype/StillImage" /><dc:title></dc:title></cc:Work></rdf:RDF></metadata><sodipodi:namedview
     pagecolor="#ffffff"
     bordercolor="#666666"
     borderopacity="1"
     objecttolerance="10"
     gridtolerance="10"
     guidetolerance="10"
     inkscape:pageopacity="0"
     inkscape:pageshadow="2"
     inkscape:window-width="1366"
     inkscape:window-height="744"
     id="namedview20"
     showgrid="false"
     inkscape:zoom="3.3095238"
     inkscape:cx="84"
     inkscape:cy="84"
     inkscape:window-x="0"
     inkscape:window-y="24"
     inkscape:window-maximized="1"
     inkscape:current-layer="svg2" /><defs
     id="defs4" /><g
     id="g3350"
     transform="translate(21.79869,-5.9625)"><path
       style="fill:#8575bc"
       inkscape:connector-curvature="0"
       id="path6"
       d="m 96.772,148.457 c -0.629,0 -1.171,-0.475 -1.24,-1.114 -0.075,-0.687 0.421,-1.304 1.106,-1.378 10.263,-1.119 21.894,-2.388 24.769,-10.431 1.403,-3.925 -0.208,-13.766 -4.313,-26.323 -0.295,-0.902 -0.583,-1.799 -0.869,-2.688 -2.185,-6.794 -4.249,-13.211 -8.228,-18.817 -6.33,-8.92 -19.05,-10.681 -29.577,-11.939 -2.824,7.91 -5.804,18.065 -8.227,28.056 -0.163,0.67 -0.836,1.085 -1.51,0.92 -0.671,-0.163 -1.083,-0.839 -0.92,-1.51 2.54,-10.472 5.689,-21.134 8.643,-29.252 0.199,-0.546 0.757,-0.876 1.322,-0.813 11.199,1.331 25.136,2.986 32.308,13.092 4.201,5.921 6.323,12.517 8.568,19.499 0.285,0.886 0.572,1.777 0.866,2.676 2.547,7.794 6.491,21.787 4.289,27.942 -3.401,9.517 -16.403,10.935 -26.851,12.073 -0.044,0.005 -0.09,0.007 -0.136,0.007 z" /><path
       style="fill:#8575bc"
       inkscape:connector-curvature="0"
       id="path8"
       d="m 66.001,72.738 c 0.54,1.836 0.54,5.775 0,7.611 -0.948,0.279 -2.346,0.398 -3.764,0.398 -0.011,0 -0.022,0 -0.034,0 -0.012,0 -0.022,0 -0.034,0 -1.418,0 -2.815,-0.119 -3.765,-0.398 -0.539,-1.836 -0.539,-5.775 0,-7.611 1.267,0 2.533,0 3.799,0 1.266,0 2.531,0 3.798,0 m 0,-2.5 -3.798,0 -3.799,0 c -1.109,0 -2.086,0.731 -2.398,1.796 -0.669,2.276 -0.669,6.743 0,9.02 0.239,0.816 0.878,1.455 1.693,1.694 1.406,0.413 3.206,0.5 4.47,0.5 l 0.068,0 c 1.264,0 3.064,-0.087 4.469,-0.5 0.815,-0.24 1.453,-0.878 1.693,-1.693 0.67,-2.276 0.67,-6.745 0,-9.021 -0.312,-1.065 -1.289,-1.796 -2.398,-1.796 l 0,0 z" /><path
       style="fill:#8575bc"
       inkscape:connector-curvature="0"
       id="path10"
       d="m 84.887,154.059 c 11.534,0 22.844,0 33.58,0.004 0,0.094 0,0.186 0,0.279 -1.62,3.457 -2.781,7.377 -4.156,11.082 -17.592,0 -35.184,0 -52.775,0 -17.591,0 -35.184,0 -52.775,0 -1.375,-3.705 -2.536,-7.625 -4.156,-11.082 0,-0.094 0,-0.186 0,-0.279 10.737,-0.004 22.045,-0.004 33.58,-0.004 7.716,0 15.534,0 23.352,0 7.817,0 15.633,0 23.35,0 m 0,-2.5 -11.6,0 -11.752,0 -11.752,0 -11.6,0 c -11.536,0 -22.844,0 -33.581,0.004 -1.38,0 -2.499,1.119 -2.499,2.5 l 0,0.279 c 0,0.367 0.081,0.729 0.236,1.061 1.05,2.24 1.896,4.682 2.79,7.266 0.413,1.191 0.84,2.423 1.286,3.626 0.363,0.979 1.299,1.63 2.344,1.63 l 52.775,0 52.775,0 c 1.045,0 1.98,-0.65 2.344,-1.63 0.446,-1.203 0.873,-2.435 1.286,-3.626 0.895,-2.584 1.74,-5.025 2.79,-7.266 0.155,-0.332 0.236,-0.693 0.236,-1.061 l 0,-0.279 c 0,-1.381 -1.119,-2.5 -2.499,-2.5 -10.735,-0.004 -22.045,-0.004 -33.579,-0.004 l 0,0 z" /><path
       style="fill:#8575bc"
       inkscape:connector-curvature="0"
       id="path12"
       d="m 27.633,148.457 c -0.046,0 -0.092,-0.002 -0.138,-0.008 -10.447,-1.139 -23.448,-2.557 -26.851,-12.073 -2.203,-6.158 1.742,-20.15 4.29,-27.942 0.293,-0.895 0.578,-1.782 0.861,-2.664 2.247,-6.987 4.369,-13.587 8.573,-19.511 7.172,-10.105 21.107,-11.762 32.306,-13.092 0.587,-0.063 1.123,0.269 1.322,0.813 2.954,8.118 6.105,18.78 8.644,29.252 0.163,0.671 -0.249,1.347 -0.92,1.51 -0.672,0.165 -1.347,-0.25 -1.51,-0.92 -2.422,-9.99 -5.401,-20.146 -8.228,-28.056 -10.526,1.259 -23.245,3.02 -29.575,11.939 -3.98,5.609 -6.046,12.03 -8.231,18.829 -0.285,0.885 -0.572,1.777 -0.865,2.676 -4.105,12.555 -5.718,22.396 -4.313,26.323 2.876,8.043 14.507,9.312 24.769,10.431 0.687,0.074 1.182,0.691 1.106,1.378 -0.069,0.64 -0.611,1.115 -1.24,1.115 z" /><path
       style="fill:#8575bc"
       inkscape:connector-curvature="0"
       id="path14"
       d="M 65.34,14.5 C 83.353,16.945 95.76,37.061 85.524,54.869 80.498,63.617 71.338,67.98 62.204,68.019 53.068,67.98 43.911,63.617 38.884,54.869 28.646,37.061 41.053,16.945 59.066,14.5 c 1.045,0 2.092,0 3.137,0 1.045,0 2.092,0 3.137,0 m 0,-2.5 -3.137,0 -3.137,0 c -0.112,0 -0.225,0.008 -0.336,0.022 -9.96,1.353 -18.58,7.597 -23.06,16.703 -4.308,8.758 -3.927,18.741 1.045,27.39 5.156,8.973 14.681,14.358 25.477,14.404 C 73.01,70.473 82.535,65.087 87.691,56.114 92.662,47.467 93.042,37.483 88.735,28.725 84.256,19.619 75.635,13.374 65.675,12.022 65.564,12.008 65.452,12 65.34,12 l 0,0 z" /><path
       style="fill:#8575bc"
       inkscape:connector-curvature="0"
       id="path16"
       d="m 57.082,104.447 c -0.036,0 -0.072,-0.002 -0.109,-0.005 -0.688,-0.06 -1.196,-0.666 -1.137,-1.354 0.269,-3.097 0.691,-6.08 1.099,-8.965 0.479,-3.38 0.973,-6.874 1.215,-10.53 0.043,-0.657 0.589,-1.168 1.247,-1.168 l 5.612,0 c 0.658,0 1.204,0.511 1.247,1.167 0.242,3.65 0.735,7.14 1.213,10.514 0.409,2.891 0.832,5.88 1.101,8.983 0.06,0.688 -0.449,1.293 -1.138,1.353 -0.671,0.067 -1.293,-0.449 -1.353,-1.138 -0.263,-3.035 -0.682,-5.99 -1.086,-8.848 -0.433,-3.062 -0.879,-6.218 -1.146,-9.531 l -3.289,0 c -0.268,3.32 -0.714,6.481 -1.148,9.549 -0.403,2.852 -0.82,5.801 -1.084,8.831 -0.056,0.651 -0.602,1.142 -1.244,1.142 z" /><path
       style="fill:#8575bc"
       inkscape:connector-curvature="0"
       id="path18"
       d="m 62.203,106.48 c 8.263,0.029 16.462,0.089 24.525,0.089 4.273,0 8.509,-0.017 12.693,-0.063 -1.479,12.973 -4.376,27.387 -6.287,41.031 -10.311,0 -20.621,0 -30.932,0 -10.312,0 -20.621,0 -30.932,0 -1.911,-13.645 -4.811,-28.059 -6.287,-41.031 4.186,0.047 8.419,0.063 12.693,0.063 8.065,0 16.266,-0.059 24.527,-0.089 m 0,-2.5 c -0.003,0 -0.006,0 -0.009,0 -2.814,0.01 -5.622,0.023 -8.419,0.037 -5.303,0.025 -10.786,0.052 -16.098,0.052 -4.709,0 -8.853,-0.021 -12.665,-0.063 -0.01,0 -0.02,0 -0.028,0 -0.707,0 -1.382,0.3 -1.855,0.825 -0.48,0.532 -0.71,1.245 -0.629,1.958 0.862,7.574 2.227,15.762 3.546,23.68 0.959,5.754 1.949,11.702 2.75,17.415 0.173,1.234 1.229,2.153 2.476,2.153 l 30.932,0 30.932,0 c 1.247,0 2.303,-0.919 2.476,-2.153 0.801,-5.716 1.792,-11.669 2.751,-17.425 1.318,-7.915 2.682,-16.099 3.544,-23.67 0.082,-0.713 -0.146,-1.426 -0.628,-1.958 -0.474,-0.525 -1.148,-0.825 -1.855,-0.825 -0.009,0 -0.019,0 -0.028,0 -3.813,0.043 -7.955,0.063 -12.665,0.063 -5.312,0 -10.796,-0.026 -16.1,-0.052 -2.796,-0.014 -5.603,-0.027 -8.417,-0.037 -0.005,0 -0.008,0 -0.011,0 l 0,0 z" /></g></svg>