<?xml version="1.0" encoding="UTF-8" standalone="no"?>
<!-- Generator: Adobe Illustrator 15.1.0, SVG Export Plug-In  -->

<svg
   xmlns:dc="http://purl.org/dc/elements/1.1/"
   xmlns:cc="http://creativecommons.org/ns#"
   xmlns:rdf="http://www.w3.org/1999/02/22-rdf-syntax-ns#"
   xmlns:svg="http://www.w3.org/2000/svg"
   xmlns="http://www.w3.org/2000/svg"
   xmlns:sodipodi="http://sodipodi.sourceforge.net/DTD/sodipodi-0.dtd"
   xmlns:inkscape="http://www.inkscape.org/namespaces/inkscape"
   version="1.1"
   x="0px"
   y="0px"
   width="168"
   height="168"
   viewBox="0 0 168 168"
   enable-background="new 0 0 130 130"
   xml:space="preserve"
   id="svg2"
   inkscape:version="0.91 r13725"
   sodipodi:docname="ideia-moderada.svg"><metadata
     id="metadata16"><rdf:RDF><cc:Work
         rdf:about=""><dc:format>image/svg+xml</dc:format><dc:type
           rdf:resource="http://purl.org/dc/dcmitype/StillImage" /><dc:title></dc:title></cc:Work></rdf:RDF></metadata><sodipodi:namedview
     pagecolor="#ffffff"
     bordercolor="#666666"
     borderopacity="1"
     objecttolerance="10"
     gridtolerance="10"
     guidetolerance="10"
     inkscape:pageopacity="0"
     inkscape:pageshadow="2"
     inkscape:window-width="1366"
     inkscape:window-height="744"
     id="namedview14"
     showgrid="false"
     inkscape:zoom="3.3095238"
     inkscape:cx="84"
     inkscape:cy="84"
     inkscape:window-x="0"
     inkscape:window-y="24"
     inkscape:window-maximized="1"
     inkscape:current-layer="svg2" /><defs
     id="defs4" /><g
     id="g3344"
     transform="translate(18.874,-19.126)"><path
       style="fill:#727277"
       inkscape:connector-curvature="0"
       id="path6"
       d="m 54.557,73.039 c 10.783,0 19.521,8.738 19.521,19.52 0,10.782 -8.74,19.52 -19.521,19.52 -10.779,0 -19.518,-8.738 -19.52,-19.52 0,-10.782 8.738,-19.52 19.52,-19.52 m 0,-2.5 c -12.142,0 -22.02,9.878 -22.02,22.02 0.002,12.142 9.88,22.02 22.02,22.02 12.143,0 22.021,-9.878 22.021,-22.02 0,-12.142 -9.879,-22.02 -22.021,-22.02 l 0,0 z" /><path
       style="fill:#727277"
       inkscape:connector-curvature="0"
       id="path8"
       d="m 54.557,82.064 c 5.797,0.002 10.494,4.699 10.494,10.494 -0.002,5.795 -4.699,10.492 -10.494,10.492 -5.793,0 -10.49,-4.697 -10.492,-10.492 -10e-4,-5.794 4.697,-10.492 10.492,-10.494 m 10e-4,-2.5 c -10e-4,0 -10e-4,0 -0.002,0 -7.163,0.002 -12.991,5.832 -12.991,12.994 0.002,7.164 5.831,12.992 12.992,12.992 7.162,0 12.992,-5.828 12.994,-12.991 0,-7.163 -5.829,-12.993 -12.993,-12.995 l 0,0 z" /><path
       style="fill:#727277"
       inkscape:connector-curvature="0"
       id="path10"
       d="m 88.23,134.463 c -2.199,0 -4.266,-0.857 -5.82,-2.414 L 69.173,118.813 c -0.292,-0.292 -0.421,-0.71 -0.345,-1.115 0.077,-0.406 0.349,-0.748 0.728,-0.914 4.152,-1.816 7.426,-5.096 9.217,-9.232 0.165,-0.38 0.507,-0.653 0.913,-0.73 0.406,-0.081 0.825,0.052 1.118,0.344 l 13.248,13.246 c 1.555,1.555 2.411,3.621 2.411,5.819 0,4.539 -3.693,8.232 -8.233,8.232 z m -16.054,-16.182 12.003,12.001 c 1.083,1.084 2.521,1.681 4.052,1.681 3.161,0 5.732,-2.571 5.732,-5.732 0,-1.53 -0.597,-2.969 -1.679,-4.052 L 80.275,110.172 c -1.861,3.427 -4.664,6.233 -8.099,8.109 z" /><path
       style="fill:#727277"
       inkscape:connector-curvature="0"
       id="path12"
       d="M 65.125,168.252 C 29.215,168.252 0,139.036 0,103.125 0,67.215 29.215,38 65.125,38 c 35.911,0 65.127,29.215 65.127,65.125 0,35.911 -29.216,65.127 -65.127,65.127 z m 0,-127.752 C 30.594,40.5 2.5,68.594 2.5,103.125 c 0,34.532 28.094,62.627 62.625,62.627 34.532,0 62.627,-28.095 62.627,-62.627 C 127.752,68.594 99.657,40.5 65.125,40.5 Z" /></g></svg>