<?xml version="1.0" encoding="UTF-8" standalone="no"?>
<!-- Generator: Adobe Illustrator 15.1.0, SVG Export Plug-In  -->

<svg
   xmlns:dc="http://purl.org/dc/elements/1.1/"
   xmlns:cc="http://creativecommons.org/ns#"
   xmlns:rdf="http://www.w3.org/1999/02/22-rdf-syntax-ns#"
   xmlns:svg="http://www.w3.org/2000/svg"
   xmlns="http://www.w3.org/2000/svg"
   xmlns:sodipodi="http://sodipodi.sourceforge.net/DTD/sodipodi-0.dtd"
   xmlns:inkscape="http://www.inkscape.org/namespaces/inkscape"
   version="1.1"
   x="0px"
   y="0px"
   width="168"
   height="168"
   viewBox="0 0 168 168"
   enable-background="new 0 0 141 141"
   xml:space="preserve"
   id="svg2"
   inkscape:version="0.91 r13725"
   sodipodi:docname="ideia-edicao.svg"><metadata
     id="metadata16"><rdf:RDF><cc:Work
         rdf:about=""><dc:format>image/svg+xml</dc:format><dc:type
           rdf:resource="http://purl.org/dc/dcmitype/StillImage" /><dc:title></dc:title></cc:Work></rdf:RDF></metadata><sodipodi:namedview
     pagecolor="#ffffff"
     bordercolor="#666666"
     borderopacity="1"
     objecttolerance="10"
     gridtolerance="10"
     guidetolerance="10"
     inkscape:pageopacity="0"
     inkscape:pageshadow="2"
     inkscape:window-width="1366"
     inkscape:window-height="744"
     id="namedview14"
     showgrid="false"
     inkscape:zoom="3.3095238"
     inkscape:cx="84"
     inkscape:cy="84"
     inkscape:window-x="0"
     inkscape:window-y="24"
     inkscape:window-maximized="1"
     inkscape:current-layer="svg2" /><defs
     id="defs4" /><g
     id="g3344"
     transform="translate(13.429612,-13.557)"><path
       style="fill:#8575bc"
       inkscape:connector-curvature="0"
       id="path6"
       d="m 129.961,55.492 c -0.32,0 -0.64,-0.122 -0.884,-0.366 L 113.014,39.063 c -0.488,-0.488 -0.488,-1.279 0,-1.768 l 9.93,-9.93 c 0.488,-0.488 1.279,-0.488 1.768,0 l 16.063,16.063 c 0.488,0.488 0.488,1.279 0,1.768 l -9.93,9.93 c -0.244,0.244 -0.564,0.366 -0.884,0.366 z m -14.295,-17.312 14.295,14.295 8.162,-8.162 -14.295,-14.295 -8.162,8.162 z" /><path
       style="fill:#8575bc"
       inkscape:connector-curvature="0"
       id="path8"
       d="m 28.82,156.635 c -0.32,0 -0.64,-0.122 -0.884,-0.366 L 11.872,140.206 c -0.234,-0.234 -0.366,-0.552 -0.366,-0.884 0,-0.331 0.132,-0.649 0.366,-0.884 l 97.74,-97.74 c 0.488,-0.488 1.279,-0.488 1.768,0 l 16.063,16.063 c 0.488,0.488 0.488,1.279 0,1.768 l -97.738,97.74 c -0.245,0.244 -0.564,0.366 -0.885,0.366 z M 14.523,139.322 28.82,153.617 124.791,57.644 110.496,43.35 14.523,139.322 Z" /><path
       style="fill:#8575bc"
       inkscape:connector-curvature="0"
       id="path10"
       d="m 1.25,168.115 c -0.325,0 -0.645,-0.127 -0.884,-0.366 -0.358,-0.358 -0.465,-0.897 -0.27,-1.365 l 11.506,-27.543 c 0.16,-0.385 0.502,-0.664 0.911,-0.745 0.413,-0.081 0.832,0.048 1.126,0.343 l 16.039,16.037 c 0.295,0.295 0.423,0.717 0.343,1.126 -0.081,0.409 -0.36,0.751 -0.745,0.911 L 1.731,168.019 c -0.155,0.065 -0.319,0.096 -0.481,0.096 z M 13.19,141.524 3.576,164.539 26.593,154.925 13.19,141.524 Z" /><path
       style="fill:#8575bc"
       inkscape:connector-curvature="0"
       id="path12"
       d="m 1.25,168.115 c -0.325,0 -0.645,-0.127 -0.884,-0.366 -0.358,-0.358 -0.465,-0.897 -0.27,-1.365 l 4.271,-10.227 c 0.16,-0.385 0.502,-0.664 0.911,-0.745 0.412,-0.081 0.832,0.049 1.126,0.343 l 5.955,5.955 c 0.295,0.295 0.423,0.717 0.343,1.126 -0.081,0.409 -0.36,0.751 -0.745,0.911 L 1.73,168.018 c -0.154,0.066 -0.318,0.097 -0.48,0.097 z m 4.706,-9.274 -2.38,5.698 5.698,-2.38 -3.318,-3.318 z" /></g></svg>