<?xml version="1.0" encoding="UTF-8" standalone="no"?>
<!-- Generator: Adobe Illustrator 15.1.0, SVG Export Plug-In  -->

<svg
   xmlns:dc="http://purl.org/dc/elements/1.1/"
   xmlns:cc="http://creativecommons.org/ns#"
   xmlns:rdf="http://www.w3.org/1999/02/22-rdf-syntax-ns#"
   xmlns:svg="http://www.w3.org/2000/svg"
   xmlns="http://www.w3.org/2000/svg"
   xmlns:sodipodi="http://sodipodi.sourceforge.net/DTD/sodipodi-0.dtd"
   xmlns:inkscape="http://www.inkscape.org/namespaces/inkscape"
   version="1.1"
   x="0px"
   y="0px"
   width="168"
   height="168"
   viewBox="0 0 168 168"
   enable-background="new 0 0 130 130"
   xml:space="preserve"
   id="svg2"
   inkscape:version="0.91 r13725"
   sodipodi:docname="ideia-cadastrada.svg"><metadata
     id="metadata18"><rdf:RDF><cc:Work
         rdf:about=""><dc:format>image/svg+xml</dc:format><dc:type
           rdf:resource="http://purl.org/dc/dcmitype/StillImage" /><dc:title></dc:title></cc:Work></rdf:RDF></metadata><sodipodi:namedview
     pagecolor="#ffffff"
     bordercolor="#666666"
     borderopacity="1"
     objecttolerance="10"
     gridtolerance="10"
     guidetolerance="10"
     inkscape:pageopacity="0"
     inkscape:pageshadow="2"
     inkscape:window-width="1366"
     inkscape:window-height="744"
     id="namedview16"
     showgrid="false"
     inkscape:zoom="3.3095238"
     inkscape:cx="84"
     inkscape:cy="84"
     inkscape:window-x="0"
     inkscape:window-y="24"
     inkscape:window-maximized="1"
     inkscape:current-layer="svg2" /><defs
     id="defs4" /><g
     id="g3346"
     transform="translate(18.874,-19.126)"><path
       style="fill:#727277"
       inkscape:connector-curvature="0"
       id="path6"
       d="m 89.984,96.838 c -0.32,0 -0.64,-0.122 -0.884,-0.366 L 69.736,77.108 c -0.234,-0.234 -0.366,-0.552 -0.366,-0.884 0,-0.332 0.132,-0.649 0.366,-0.884 L 74.076,71 c 0.488,-0.488 1.279,-0.488 1.768,0 l 19.364,19.363 c 0.234,0.234 0.366,0.552 0.366,0.884 0,0.332 -0.132,0.649 -0.366,0.884 l -4.34,4.34 c -0.244,0.245 -0.563,0.367 -0.884,0.367 z M 72.388,76.225 89.984,93.82 92.556,91.248 74.96,73.652 72.388,76.225 Z" /><path
       style="fill:#727277"
       inkscape:connector-curvature="0"
       id="path8"
       d="m 31.918,135.617 c -0.325,0 -0.645,-0.127 -0.884,-0.366 -0.358,-0.358 -0.465,-0.898 -0.27,-1.366 L 44.636,100.68 c 0.16,-0.384 0.502,-0.664 0.911,-0.745 0.412,-0.08 0.832,0.048 1.126,0.343 l 19.336,19.334 c 0.295,0.294 0.423,0.717 0.343,1.126 -0.081,0.409 -0.36,0.75 -0.745,0.911 l -33.208,13.872 c -0.155,0.064 -0.319,0.096 -0.481,0.096 z m 14.306,-32.253 -11.98,28.677 28.679,-11.979 -16.699,-16.698 z" /><path
       style="fill:#727277"
       inkscape:connector-curvature="0"
       id="path10"
       d="m 31.918,135.617 c -0.325,0 -0.645,-0.127 -0.884,-0.366 -0.358,-0.358 -0.465,-0.898 -0.27,-1.366 l 5.15,-12.328 c 0.16,-0.384 0.502,-0.664 0.911,-0.745 0.413,-0.081 0.832,0.048 1.126,0.343 l 7.18,7.178 c 0.295,0.294 0.423,0.717 0.343,1.126 -0.081,0.409 -0.36,0.75 -0.745,0.911 l -12.33,5.15 c -0.155,0.065 -0.319,0.097 -0.481,0.097 z m 5.585,-11.376 -3.258,7.799 7.8,-3.258 -4.542,-4.541 z" /><path
       style="fill:#727277"
       inkscape:connector-curvature="0"
       id="path12"
       d="m 65.154,121.775 c -0.32,0 -0.64,-0.122 -0.884,-0.366 L 44.905,102.046 c -0.234,-0.234 -0.366,-0.552 -0.366,-0.884 0,-0.332 0.132,-0.649 0.366,-0.884 l 24.88,-24.879 c 0.488,-0.488 1.279,-0.488 1.768,0 l 19.364,19.363 c 0.234,0.234 0.366,0.552 0.366,0.884 0,0.332 -0.132,0.649 -0.366,0.884 l -24.879,24.879 c -0.244,0.244 -0.563,0.366 -0.884,0.366 z M 47.557,101.162 65.155,118.758 88.266,95.647 70.669,78.051 47.557,101.162 Z" /><path
       style="fill:#727277"
       inkscape:connector-curvature="0"
       id="path14"
       d="M 65.125,168.252 C 29.215,168.252 0,139.036 0,103.125 0,67.215 29.215,38 65.125,38 c 35.911,0 65.127,29.215 65.127,65.125 0,35.911 -29.216,65.127 -65.127,65.127 z m 0,-127.752 C 30.594,40.5 2.5,68.593 2.5,103.125 c 0,34.533 28.094,62.627 62.625,62.627 34.532,0 62.627,-28.094 62.627,-62.627 C 127.752,68.593 99.657,40.5 65.125,40.5 Z" /></g></svg>