<?xml version="1.0" encoding="UTF-8" standalone="no"?>
<!-- Generator: Adobe Illustrator 15.1.0, SVG Export Plug-In  -->

<svg
   xmlns:dc="http://purl.org/dc/elements/1.1/"
   xmlns:cc="http://creativecommons.org/ns#"
   xmlns:rdf="http://www.w3.org/1999/02/22-rdf-syntax-ns#"
   xmlns:svg="http://www.w3.org/2000/svg"
   xmlns="http://www.w3.org/2000/svg"
   xmlns:sodipodi="http://sodipodi.sourceforge.net/DTD/sodipodi-0.dtd"
   xmlns:inkscape="http://www.inkscape.org/namespaces/inkscape"
   version="1.1"
   x="0px"
   y="0px"
   width="128"
   height="128"
   viewBox="0 0 128 128"
   enable-background="new 0 0 106 106"
   xml:space="preserve"
   id="svg2"
   inkscape:version="0.91 r13725"
   sodipodi:docname="gold.svg"><metadata
     id="metadata26"><rdf:RDF><cc:Work
         rdf:about=""><dc:format>image/svg+xml</dc:format><dc:type
           rdf:resource="http://purl.org/dc/dcmitype/StillImage" /><dc:title /></cc:Work></rdf:RDF></metadata><sodipodi:namedview
     pagecolor="#ffffff"
     bordercolor="#666666"
     borderopacity="1"
     objecttolerance="10"
     gridtolerance="10"
     guidetolerance="10"
     inkscape:pageopacity="0"
     inkscape:pageshadow="2"
     inkscape:window-width="1366"
     inkscape:window-height="744"
     id="namedview24"
     showgrid="false"
     inkscape:zoom="4.34375"
     inkscape:cx="64"
     inkscape:cy="64"
     inkscape:window-x="0"
     inkscape:window-y="24"
     inkscape:window-maximized="1"
     inkscape:current-layer="svg2" /><defs
     id="defs4" /><g
     id="g4143"><circle
       style="fill:#e59d23"
       id="circle6"
       r="53.230999"
       cy="63.999416"
       cx="64" /><path
       style="fill:#ffd800"
       inkscape:connector-curvature="0"
       id="path12"
       d="m 103.915,63.999422 c 0,22.045 -17.872999,39.915998 -39.915999,39.915998 -22.047,0 -39.916,-17.870998 -39.916,-39.915998 0,-22.049 17.869,-39.916 39.916,-39.916 22.043,0 39.915999,17.868 39.915999,39.916 z" /><path
       style="fill:#e2b26d;opacity:0.5"
       inkscape:connector-curvature="0"
       id="path10"
       d="m 65.593001,117.19142 c 3.018,-0.09 5.973,-0.42 8.842,-0.988 L 112.015,40.994422 c -1.291,-2.691 -2.814,-5.248 -4.52,-7.666 L 65.593001,117.19142 Z" /><path
       style="clip-rule:evenodd;fill:#fae6d2;fill-opacity:1;fill-rule:evenodd"
       inkscape:connector-curvature="0"
       id="path14"
       d="m 39.455001,102.11742 c 0,0 -1.527,-4.833998 -2.688,-5.995998 -1.164,-1.16 -5.996,-2.688 -5.996,-2.688 0,0 4.832,-1.527 5.996,-2.689 1.16,-1.162 2.688,-5.994 2.688,-5.994 0,0 1.527,4.832 2.689,5.994 1.16,1.162 5.994,2.689 5.994,2.689 0,0 -4.834,1.527 -5.994,2.688 -1.162,1.162 -2.689,5.995998 -2.689,5.995998 z" /><path
       style="fill:#e2b26d;opacity:0.5"
       inkscape:connector-curvature="0"
       id="path8"
       d="M 64.115001,117.22842 106.636,32.126422 c -4.516,-6.035 -10.288999,-11.072 -16.925999,-14.74 l -47.547,95.155998 c 6.666,3.004 14.053,4.689 21.836,4.689 0.04,0.001 0.077,-0.003 0.116,-0.003 z" /></g></svg>