<?xml version="1.0" encoding="UTF-8" standalone="no"?>
<!-- Generator: Adobe Illustrator 15.1.0, SVG Export Plug-In  -->

<svg
   xmlns:dc="http://purl.org/dc/elements/1.1/"
   xmlns:cc="http://creativecommons.org/ns#"
   xmlns:rdf="http://www.w3.org/1999/02/22-rdf-syntax-ns#"
   xmlns:svg="http://www.w3.org/2000/svg"
   xmlns="http://www.w3.org/2000/svg"
   xmlns:sodipodi="http://sodipodi.sourceforge.net/DTD/sodipodi-0.dtd"
   xmlns:inkscape="http://www.inkscape.org/namespaces/inkscape"
   version="1.1"
   x="0px"
   y="0px"
   width="128"
   height="128"
   viewBox="0 0 128 128"
   enable-background="new 0 0 106 106"
   xml:space="preserve"
   id="svg2"
   inkscape:version="0.91 r13725"
   sodipodi:docname="silver.svg"><metadata
     id="metadata26"><rdf:RDF><cc:Work
         rdf:about=""><dc:format>image/svg+xml</dc:format><dc:type
           rdf:resource="http://purl.org/dc/dcmitype/StillImage" /><dc:title /></cc:Work></rdf:RDF></metadata><sodipodi:namedview
     pagecolor="#ffffff"
     bordercolor="#666666"
     borderopacity="1"
     objecttolerance="10"
     gridtolerance="10"
     guidetolerance="10"
     inkscape:pageopacity="0"
     inkscape:pageshadow="2"
     inkscape:window-width="1366"
     inkscape:window-height="744"
     id="namedview24"
     showgrid="false"
     inkscape:zoom="4.34375"
     inkscape:cx="64"
     inkscape:cy="64"
     inkscape:window-x="0"
     inkscape:window-y="24"
     inkscape:window-maximized="1"
     inkscape:current-layer="svg2" /><defs
     id="defs4" /><g
     id="g4143"><circle
       style="fill:#8e8e8e"
       id="circle6"
       r="53.230999"
       cy="63.999416"
       cx="64" /><path
       style="fill:#a0a0a0"
       inkscape:connector-curvature="0"
       id="path12"
       d="m 103.915,63.999422 c 0,22.045 -17.872999,39.915998 -39.915999,39.915998 -22.047,0 -39.916,-17.870998 -39.916,-39.915998 0,-22.049 17.869,-39.916 39.916,-39.916 22.043,0 39.915999,17.868 39.915999,39.916 z" /><path
       style="fill:#bcbcbc;opacity:0.5"
       inkscape:connector-curvature="0"
       id="path8"
       d="M 64.115001,117.22842 106.636,32.126422 c -4.518,-6.035 -10.288999,-11.072 -16.925999,-14.74 l -47.547,95.155998 c 6.666,3.004 14.053,4.689 21.836,4.689 0.04,0.001 0.077,-0.003 0.116,-0.003 z" /><path
       style="fill:#bcbcbc;opacity:0.5"
       inkscape:connector-curvature="0"
       id="path10"
       d="m 65.593001,117.19142 c 3.018,-0.09 5.973,-0.42 8.842,-0.988 L 112.015,40.994422 c -1.291,-2.691 -2.814,-5.248 -4.521,-7.666 L 65.593001,117.19142 Z" /><path
       style="clip-rule:evenodd;fill:#ffffff;fill-rule:evenodd"
       inkscape:connector-curvature="0"
       id="path14"
       d="m 101.277,59.521422 c 0,0 -1.15,-3.643 -2.026999,-4.518 -0.875,-0.875 -4.518,-2.027 -4.518,-2.027 0,0 3.643,-1.148 4.518,-2.025 0.876999,-0.875 2.026999,-4.518 2.026999,-4.518 0,0 1.15,3.643 2.027,4.518 0.873,0.877 4.518,2.025 4.518,2.025 0,0 -3.645,1.152 -4.518,2.027 -0.877,0.875 -2.027,4.518 -2.027,4.518 z" /></g></svg>